  0
SECTION
  2
HEADER
  9
$ACADVER
  1
AC1014
  9
$HANDSEED
  5
FFFF
  9
$MEASUREMENT
 70
     1
  0
ENDSEC
  0
SECTION
  2
TABLES
  0
TABLE
  2
VPORT
  5
8
330
0
100
AcDbSymbolTable
 70
     4
  0
VPORT
  5
2E
330
8
100
AcDbSymbolTableRecord
100
AcDbViewportTableRecord
  2
*ACTIVE
 70
     0
 10
0.0
 20
0.0
 11
1.0
 21
1.0
 12
210.0
 22
148.5
 13
0.0
 23
0.0
 14
10.0
 24
10.0
 15
10.0
 25
10.0
 16
0.0
 26
0.0
 36
1.0
 17
0.0
 27
0.0
 37
0.0
 40
341.0
 41
1.24
 42
50.0
 43
0.0
 44
0.0
 50
0.0
 51
0.0
 71
     0
 72
   100
 73
     1
 74
     3
 75
     0
 76
     0
 77
     0
 78
     0
  0
ENDTAB
  0
TABLE
  2
LTYPE
  5
5
330
0
100
AcDbSymbolTable
 70
     1
  0
LTYPE
  5
14
330
5
100
AcDbSymbolTableRecord
100
AcDbLinetypeTableRecord
  2
BYBLOCK
 70
     0
  3

 72
    65
 73
     0
 40
0.0
  0
LTYPE
  5
15
330
5
100
AcDbSymbolTableRecord
100
AcDbLinetypeTableRecord
  2
BYLAYER
 70
     0
  3

 72
    65
 73
     0
 40
0.0
  0
LTYPE
  5
16
330
5
100
AcDbSymbolTableRecord
100
AcDbLinetypeTableRecord
  2
CONTINUOUS
 70
     0
  3
Solid line
 72
    65
 73
     0
 40
0.0
  0
ENDTAB
  0
TABLE
  2
LAYER
  5
2
100
AcDbSymbolTable
 70
2
  0
LAYER
  5
50
100
AcDbSymbolTableRecord
100
AcDbLayerTableRecord
  2
0
 70
0
  6
CONTINUOUS
  0
LAYER
  5
51
100
AcDbSymbolTableRecord
100
AcDbLayerTableRecord
  2
Layer_1
 70
0
  6
CONTINUOUS
  0
ENDTAB
  0
TABLE
  2
STYLE
  5
3
330
0
100
AcDbSymbolTable
 70
     1
  0
STYLE
  5
11
330
3
100
AcDbSymbolTableRecord
100
AcDbTextStyleTableRecord
  2
STANDARD
 70
     0
 40
0.0
 41
1.0
 50
0.0
 71
     0
 42
2.5
  3
txt
  4

  0
ENDTAB
  0
TABLE
  2
VIEW
  5
6
330
0
100
AcDbSymbolTable
 70
     0
  0
ENDTAB
  0
TABLE
  2
UCS
  5
7
330
0
100
AcDbSymbolTable
 70
     0
  0
ENDTAB
  0
TABLE
  2
APPID
  5
9
330
0
100
AcDbSymbolTable
 70
     2
  0
APPID
  5
12
330
9
100
AcDbSymbolTableRecord
100
AcDbRegAppTableRecord
  2
ACAD
 70
     0
  0
ENDTAB
  0
TABLE
  2
DIMSTYLE
  5
A
330
0
100
AcDbSymbolTable
 70
     1
  0
DIMSTYLE
105
27
330
A
100
AcDbSymbolTableRecord
100
AcDbDimStyleTableRecord
  2
ISO-25
 70
     0
  3

  4

  5

  6

  7

 40
1.0
 41
2.5
 42
0.625
 43
3.75
 44
1.25
 45
0.0
 46
0.0
 47
0.0
 48
0.0
140
2.5
141
2.5
142
0.0
143
0.03937007874016
144
1.0
145
0.0
146
1.0
147
0.625
 71
     0
 72
     0
 73
     0
 74
     0
 75
     0
 76
     0
 77
     1
 78
     8
170
     0
171
     3
172
     1
173
     0
174
     0
175
     0
176
     0
177
     0
178
     0
270
     2
271
     2
272
     2
273
     2
274
     3
340
11
275
     0
280
     0
281
     0
282
     0
283
     0
284
     8
285
     0
286
     0
287
     3
288
     0
  0
ENDTAB
  0
TABLE
  2
BLOCK_RECORD
  5
1
330
0
100
AcDbSymbolTable
 70
     1
  0
BLOCK_RECORD
  5
1F
330
1
100
AcDbSymbolTableRecord
100
AcDbBlockTableRecord
  2
*MODEL_SPACE
  0
BLOCK_RECORD
  5
1B
330
1
100
AcDbSymbolTableRecord
100
AcDbBlockTableRecord
  2
*PAPER_SPACE
  0
ENDTAB
  0
ENDSEC
  0
SECTION
  2
BLOCKS
  0
BLOCK
  5
20
330
1F
100
AcDbEntity
  8
0
100
AcDbBlockBegin
  2
*MODEL_SPACE
 70
     0
 10
0.0
 20
0.0
 30
0.0
  3
*MODEL_SPACE
  1

  0
ENDBLK
  5
21
330
1F
100
AcDbEntity
  8
0
100
AcDbBlockEnd
  0
BLOCK
  5
1C
330
1B
100
AcDbEntity
 67
     1
  8
0
100
AcDbBlockBegin
  2
*PAPER_SPACE
  1

  0
ENDBLK
  5
1D
330
1B
100
AcDbEntity
 67
     1
  8
0
100
AcDbBlockEnd
  0
ENDSEC
  0
SECTION
  2
ENTITIES
  0
LWPOLYLINE
  5
100
100
AcDbEntity
  8
Layer_1
 62
7
100
AcDbPolyline
 90
1290
 70
1
 10
-1.2350674625550662
 20
-13.888141951985219
 30
0.0
 10
-1.140686259911894
 20
-13.872657951985218
 30
0.0
 10
-1.060124
 20
-13.829624951985219
 30
0.0
 10
-1.0001454361233482
 20
-13.764167951985218
 30
0.0
 10
-0.9675174977973569
 20
-13.681413951985219
 30
0.0
 10
-0.8892108810572688
 20
-13.30852795198522
 30
0.0
 10
-0.8713615947136564
 20
-13.23490995198522
 30
0.0
 10
-0.8469640881057269
 20
-13.16398195198522
 30
0.0
 10
-0.8163447929515419
 20
-13.096004951985218
 30
0.0
 10
-0.7798290528634362
 20
-13.03123895198522
 30
0.0
 10
-0.7377411233480176
 20
-12.96994295198522
 30
0.0
 10
-0.6904085242290748
 20
-12.912377951985219
 30
0.0
 10
-0.6381555110132159
 20
-12.85880395198522
 30
0.0
 10
-0.5813074273127753
 20
-12.80947995198522
 30
0.0
 10
-0.520190704845815
 20
-12.764665951985219
 30
0.0
 10
-0.4551306872246696
 20
-12.724621951985219
 30
0.0
 10
-0.3864538061674009
 20
-12.68960895198522
 30
0.0
 10
-0.3144832290748899
 20
-12.65988495198522
 30
0.0
 10
-0.23954647577092514
 20
-12.635711951985218
 30
0.0
 10
-0.1619688898678414
 20
-12.61734895198522
 30
0.0
 10
-0.08207581497797356
 20
-12.605054951985219
 30
0.0
 10
-1.915066079295154E-4
 20
-12.59909195198522
 30
0.0
 10
0.08169606607929515
 20
-12.60499695198522
 30
0.0
 10
0.16160002202643173
 20
-12.61724695198522
 30
0.0
 10
0.23919501762114537
 20
-12.635580951985219
 30
0.0
 10
0.31415353303964755
 20
-12.659735951985219
 30
0.0
 10
0.38614587224669605
 20
-12.68945195198522
 30
0.0
 10
0.45484777973568286
 20
-12.72446695198522
 30
0.0
 10
0.5199306475770925
 20
-12.764518951985218
 30
0.0
 10
0.5810669559471365
 20
-12.80934695198522
 30
0.0
 10
0.6379302731277533
 20
-12.85868995198522
 30
0.0
 10
0.6901930792951542
 20
-12.91228495198522
 30
0.0
 10
0.7375278546255507
 20
-12.969871951985219
 30
0.0
 10
0.7796070792951543
 20
-13.031188951985218
 30
0.0
 10
0.8161032334801762
 20
-13.09597495198522
 30
0.0
 10
0.8466909735682819
 20
-13.163967951985219
 30
0.0
 10
0.8710406035242291
 20
-13.234905951985219
 30
0.0
 10
0.8888267797356829
 20
-13.30852795198522
 30
0.0
 10
0.9667503832599119
 20
-13.681413951985219
 30
0.0
 10
0.999984396475771
 20
-13.764167951985218
 30
0.0
 10
1.0601718766519823
 20
-13.829624951985219
 30
0.0
 10
1.1407286960352423
 20
-13.872657951985218
 30
0.0
 10
1.2350674625550662
 20
-13.888141951985219
 30
0.0
 10
1.6794288003116757
 20
-13.841437693398678
 30
0.0
 10
1.7685282426108435
 20
-13.80666910052596
 30
0.0
 10
1.8383829600623953
 20
-13.747826639149201
 30
0.0
 10
1.8834415728679432
 20
-13.671329787019552
 30
0.0
 10
1.8981509883964698
 20
-13.583600430643171
 30
0.0
 10
1.8972190589400975
 20
-13.202582023307297
 30
0.0
 10
1.8993722526972907
 20
-13.126861677932887
 30
0.0
 10
1.9084898548434022
 20
-13.052411098057444
 30
0.0
 10
1.9243068319279093
 20
-12.979553449175208
 30
0.0
 10
1.9465590069166065
 20
-12.908610692402902
 30
0.0
 10
1.9749830591916013
 20
-12.839903584479755
 30
0.0
 10
2.009312890974366
 20
-12.773755517129894
 30
0.0
 10
2.0492853895586998
 20
-12.710488225240152
 30
0.0
 10
2.0946361699987053
 20
-12.650422691779648
 30
0.0
 10
2.145099990932169
 20
-12.593881104095017
 30
0.0
 10
2.200412675324885
 20
-12.541185423302986
 30
0.0
 10
2.260309189726331
 20
-12.492658814897789
 30
0.0
 10
2.3245270699349314
 20
-12.448620831241142
 30
0.0
 10
2.3928004260838476
 20
-12.409395842204782
 30
0.0
 10
2.4648648732271834
 20
-12.37530483075784
 30
0.0
 10
2.54045602641904
 20
-12.346668779869434
 30
0.0
 10
2.6193111887766
 20
-12.3238113807216
 30
0.0
 10
2.7006370400648025
 20
-12.312561958609571
 30
0.0
 10
2.7813418210761514
 20
-12.307931300134562
 30
0.0
 10
2.8610530327855233
 20
-12.309731751513324
 30
0.0
 10
2.9393956316884022
 20
-12.317774155127196
 30
0.0
 10
3.015993069359332
 20
-12.33187274026014
 30
0.0
 10
3.0904737031895038
 20
-12.351838648751393
 30
0.0
 10
3.162461633258087
 20
-12.377483927359808
 30
0.0
 10
3.231582231883946
 20
-12.408621374761932
 30
0.0
 10
3.2974619357139527
 20
-12.445063563404412
 30
0.0
 10
3.3597257012435895
 20
-12.486621335668593
 30
0.0
 10
3.4179991087034125
 20
-12.53310846837863
 30
0.0
 10
3.4719073225005967
 20
-12.584336782063467
 30
0.0
 10
3.521075714954007
 20
-12.640119075399655
 30
0.0
 10
3.5651315791268283
 20
-12.700266716456335
 30
0.0
 10
3.603697950770224
 20
-12.764591978222262
 30
0.0
 10
3.6364023308590716
 20
-12.83290720691418
 30
0.0
 10
3.7901504754290993
 20
-13.181443524998071
 30
0.0
 10
3.83986376978088
 20
-13.255479411668828
 30
0.0
 10
3.912345284655313
 20
-13.306992338400564
 30
0.0
 10
4.000088808048756
 20
-13.332336259578067
 30
0.0
 10
4.095585350796931
 20
-13.327867764571032
 30
0.0
 10
4.520525965811304
 20
-13.189796189023534
 30
0.0
 10
4.600449574591433
 20
-13.137262557624856
 30
0.0
 10
4.656543763229887
 20
-13.065182332790958
 30
0.0
 10
4.684713147369516
 20
-12.980988908042349
 30
0.0
 10
4.6808611680583745
 20
-12.892118389135396
 30
0.0
 10
4.600731422194679
 20
-12.519619907193391
 30
0.0
 10
4.587094418466093
 20
-12.445106558883959
 30
0.0
 10
4.580533633185493
 20
-12.370387246727155
 30
0.0
 10
4.580857014403453
 20
-12.295833177828623
 30
0.0
 10
4.587873097467953
 20
-12.221814203176079
 30
0.0
 10
4.601391005024371
 20
-12.148698817639305
 30
0.0
 10
4.621217691089241
 20
-12.076858670896417
 30
0.0
 10
4.647162685044584
 20
-12.006663171362659
 30
0.0
 10
4.679034115501738
 20
-11.938481256480285
 30
0.0
 10
4.716639523774633
 20
-11.872683219809483
 30
0.0
 10
4.759787445211251
 20
-11.809638912337965
 30
0.0
 10
4.808285827862167
 20
-11.749719541171375
 30
0.0
 10
4.861944381670162
 20
-11.69329224506157
 30
0.0
 10
4.920570467388412
 20
-11.640729587232123
 30
0.0
 10
4.9839722136282525
 20
-11.592400505125287
 30
0.0
 10
5.051957749001017
 20
-11.54867393618332
 30
0.0
 10
5.124337416362016
 20
-11.509921115912382
 30
0.0
 10
5.201547216305171
 20
-11.482008925415336
 30
0.0
 10
5.2795256361860305
 20
-11.460699990461043
 30
0.0
 10
5.35786930156153
 20
-11.445888204853786
 30
0.0
 10
5.436172036447232
 20
-11.437466520451876
 30
0.0
 10
5.514026897000537
 20
-11.435331514894935
 30
0.0
 10
5.591031096075783
 20
-11.439375725869315
 30
0.0
 10
5.666777870391128
 20
-11.449493461351254
 30
0.0
 10
5.74086185743542
 20
-11.46557950028998
 30
0.0
 10
5.812878688731552
 20
-11.487528179062242
 30
0.0
 10
5.8824221882950845
 20
-11.515232449526344
 30
0.0
 10
5.949087400351507
 20
-11.548588004176978
 30
0.0
 10
6.012468555653025
 20
-11.587488708417899
 30
0.0
 10
6.072160291688485
 20
-11.631829341198342
 30
0.0
 10
6.127758827278179
 20
-11.681502882777124
 30
0.0
 10
6.178856405106224
 20
-11.736404083702956
 30
0.0
 10
6.225049650729556
 20
-11.796426837780118
 30
0.0
 10
6.44790280466222
 20
-12.105380764384822
 30
0.0
 10
6.511922670635897
 20
-12.16746281421522
 30
0.0
 10
6.593530430203642
 20
-12.20278030559407
 30
0.0
 10
6.6846258445948346
 20
-12.209327496979993
 30
0.0
 10
6.777106506410012
 20
-12.185101801639947
 30
0.0
 10
7.16405445471472
 20
-11.961697299523852
 30
0.0
 10
7.2313091847560935
 20
-11.893694601375666
 30
0.0
 10
7.271191259368167
 20
-11.811526864789164
 30
0.0
 10
7.281240277583272
 20
-11.723316524087986
 30
0.0
 10
7.258995253412207
 20
-11.637188910774755
 30
0.0
 10
7.103169745540613
 20
-11.289490325333515
 30
0.0
 10
7.074338546826792
 20
-11.2194405649649
 30
0.0
 10
7.052386111918382
 20
-11.147718113011026
 30
0.0
 10
7.037201763958814
 20
-11.074725994657179
 30
0.0
 10
7.028675118602297
 20
-11.000865786499157
 30
0.0
 10
7.026696084013805
 20
-10.926537616543262
 30
0.0
 10
7.03115310304075
 20
-10.852145149547283
 30
0.0
 10
7.041936671633363
 20
-10.778089322534514
 30
0.0
 10
7.058935817660594
 20
-10.704770903083757
 30
0.0
 10
7.082039276480627
 20
-10.632592107363305
 30
0.0
 10
7.111136663747668
 20
-10.561954511968958
 30
0.0
 10
7.146117302605148
 20
-10.493261142086
 30
0.0
 10
7.18687139372882
 20
-10.426910677131245
 30
0.0
 10
7.233287967751345
 20
-10.363307590879469
 30
0.0
 10
7.285256052541676
 20
-10.302852650909477
 30
0.0
 10
7.3426646759687655
 20
-10.245946624800068
 30
0.0
 10
7.40540550955335
 20
-10.19299206760853
 30
0.0
 10
7.475124819400216
 20
-10.149637005388735
 30
0.0
 10
7.546968847019818
 20
-10.112581096664274
 30
0.0
 10
7.620520971949921
 20
-10.081804420176873
 30
0.0
 10
7.695361637565731
 20
-10.057286715779266
 30
0.0
 10
7.771071290006162
 20
-10.039011429520171
 30
0.0
 10
7.847233601319749
 20
-10.026957191551823
 30
0.0
 10
7.923428722370926
 20
-10.021105190316446
 30
0.0
 10
7.999238272105406
 20
-10.02143678370077
 30
0.0
 10
8.074244749764926
 20
-10.027932690019018
 30
0.0
 10
8.148028598724691
 20
-10.040572649123924
 30
0.0
 10
8.22017202571567
 20
-10.059338827919209
 30
0.0
 10
8.290256061898317
 20
-10.084211775274602
 30
0.0
 10
8.35786232621835
 20
-10.115172849076831
 30
0.0
 10
8.422573610428271
 20
-10.152201319050622
 30
0.0
 10
8.483969185096498
 20
-10.195279013210708
 30
0.0
 10
8.541632429760789
 20
-10.244386010298813
 30
0.0
 10
8.823850840861157
 20
-10.500254776306281
 30
0.0
 10
8.899379303112278
 20
-10.54766970581601
 30
0.0
 10
8.986546656682748
 20
-10.565248217996588
 30
0.0
 10
9.0770126553385
 20
-10.552712535910457
 30
0.0
 10
9.162435587527906
 20
-10.509788419371542
 30
0.0
 10
9.494479386999762
 20
-10.21081483944306
 30
0.0
 10
9.546125883875575
 20
-10.130315118767593
 30
0.0
 10
9.568052806425293
 20
-10.041650994801861
 30
0.0
 10
9.559542268399335
 20
-9.95327895331693
 30
0.0
 10
9.51987641366809
 20
-9.873658435585353
 30
0.0
 10
9.295165466216332
 20
-9.565955843271587
 30
0.0
 10
9.252400134248512
 20
-9.50343118150794
 30
0.0
 10
9.21601547645726
 20
-9.437840205069886
 30
0.0
 10
9.185987028188581
 20
-9.369600143087832
 30
0.0
 10
9.16229030972851
 20
-9.299126746941441
 30
0.0
 10
9.14490082630309
 20
-9.226834290259628
 30
0.0
 10
9.133793385173483
 20
-9.153140810792943
 30
0.0
 10
9.128944234710563
 20
-9.078461251300906
 30
0.0
 10
9.13032815205553
 20
-9.003210694032573
 30
0.0
 10
9.137919929409568
 20
-8.927805698987749
 30
0.0
 10
9.151695087058707
 20
-8.852662017546091
 30
0.0
 10
9.171629160348951
 20
-8.778196878838013
 30
0.0
 10
9.197697639446371
 20
-8.704823078741681
 30
0.0
 10
9.229876074756952
 20
-8.63295932413825
 30
0.0
 10
9.268139243421897
 20
-8.563020697276778
 30
0.0
 10
9.31246192258241
 20
-8.495422280406318
 30
0.0
 10
9.36282184689901
 20
-8.430580354547608
 30
0.0
 10
9.422003598258913
 20
-8.373677244864743
 30
0.0
 10
9.484573304864389
 20
-8.32249388339535
 30
0.0
 10
9.550119308547396
 20
-8.27709740447318
 30
0.0
 10
9.618227008680543
 20
-8.237555221411052
 30
0.0
 10
9.688482577901237
 20
-8.20393837215388
 30
0.0
 10
9.760474342981443
 20
-8.176312513284667
 30
0.0
 10
9.833787718353758
 20
-8.15474653586698
 30
0.0
 10
9.90800958968045
 20
-8.139309191474846
 30
0.0
 10
9.982727570708622
 20
-8.130068423062157
 30
0.0
 10
10.05752706081089
 20
-8.127091643941728
 30
0.0
 10
10.131995688794348
 20
-8.130448274818196
 30
0.0
 10
10.205719597176426
 20
-8.140206398134984
 30
0.0
 10
10.278285671619395
 20
-8.156434765466127
 30
0.0
 10
10.34928151081038
 20
-8.17919984201476
 30
0.0
 10
10.418291801097133
 20
-8.208571327464593
 30
0.0
 10
10.484904884311605
 20
-8.244616356149375
 30
0.0
 10
10.814154253780405
 20
-8.436217268690521
 30
0.0
 10
10.897890356082826
 20
-8.466892817937929
 30
0.0
 10
10.98680767202962
 20
-8.465964085586887
 30
0.0
 10
11.07269045670465
 20
-8.43489339948874
 30
0.0
 10
11.1473222672269
 20
-8.375146851616474
 30
0.0
 10
11.409950010506067
 20
-8.013670773952885
 30
0.0
 10
11.443731074475453
 20
-7.92419225482417
 30
0.0
 10
11.446744533230346
 20
-7.832906791154185
 30
0.0
 10
11.420046390313153
 20
-7.748235331154497
 30
0.0
 10
11.364693293211372
 20
-7.678601707691077
 30
0.0
 10
11.080917852865852
 20
-7.424343188309749
 30
0.0
 10
11.026087437861856
 20
-7.3720762528967585
 30
0.0
 10
10.976860741326197
 20
-7.315483392385293
 30
0.0
 10
10.933300580030235
 20
-7.254977804935794
 30
0.0
 10
10.895469448772786
 20
-7.190971246381505
 30
0.0
 10
10.863429520380125
 20
-7.123874030228464
 30
0.0
 10
10.837243067570745
 20
-7.0541002969643145
 30
0.0
 10
10.816973129196326
 20
-6.982060860095096
 30
0.0
 10
10.802681334030282
 20
-6.9081669754540505
 30
0.0
 10
10.794429632818566
 20
-6.8328313412016195
 30
0.0
 10
10.792280520359995
 20
-6.756465713171044
 30
0.0
 10
10.796296813425926
 20
-6.679483289522768
 30
0.0
 10
10.806540362870091
 20
-6.6022929414356275
 30
0.0
 10
10.823074307436393
 20
-6.525309309397266
 30
0.0
 10
10.845960275898243
 20
-6.448943649240926
 30
0.0
 10
10.87525989702905
 20
-6.373607216799847
 30
0.0
 10
10.911037941731305
 20
-6.299711825580071
 30
0.0
 10
10.957095608084265
 20
-6.23174760737869
 30
0.0
 10
11.007656397254191
 20
-6.1686737516655965
 30
0.0
 10
11.062331604804532
 20
-6.1106415142740325
 30
0.0
 10
11.120729706142198
 20
-6.057803035691642
 30
0.0
 10
11.18246068664458
 20
-6.010313841060473
 30
0.0
 10
11.247135519902585
 20
-5.968323743886561
 30
0.0
 10
11.314363003295663
 20
-5.931986326984755
 30
0.0
 10
11.383753344281535
 20
-5.901454730842698
 30
0.0
 10
11.45491729437078
 20
-5.876881153620832
 30
0.0
 10
11.527463328970306
 20
-5.858417735806801
 30
0.0
 10
11.60100252156324
 20
-5.846218117888248
 30
0.0
 10
11.675144213581891
 20
-5.840434940352818
 30
0.0
 10
11.749498612483983
 20
-5.841221343688156
 30
0.0
 10
11.82367614780755
 20
-5.848728083727501
 30
0.0
 10
11.897285072879184
 20
-5.8631096856128995
 30
0.0
 10
11.969936683262329
 20
-5.884517405177594
 30
0.0
 10
12.331827233740007
 20
-6.003476584971185
 30
0.0
 10
12.420111306612712
 20
-6.0160720852565435
 30
0.0
 10
12.506892471556338
 20
-5.996676698434172
 30
0.0
 10
12.584438552449022
 20
-5.948428946400194
 30
0.0
 10
12.645017473061133
 20
-5.874471178032338
 30
0.0
 10
12.826751067538577
 20
-5.466290841782204
 30
0.0
 10
12.841190304006547
 20
-5.37174416485174
 30
0.0
 10
12.825158596358845
 20
-5.281826974276132
 30
0.0
 10
12.7814396855078
 20
-5.204556644862417
 30
0.0
 10
12.712818541992462
 20
-5.147953239151702
 30
0.0
 10
12.38238095720192
 20
-4.9582511100675175
 30
0.0
 10
12.317881811402946
 20
-4.9185262168873125
 30
0.0
 10
12.257964518977387
 20
-4.87340485186946
 30
0.0
 10
12.202776432727617
 20
-4.823278123462082
 30
0.0
 10
12.15246429064265
 20
-4.768535796246261
 30
0.0
 10
12.10717421589814
 20
-4.709566290936045
 30
0.0
 10
12.0670532250533
 20
-4.646761750829594
 30
0.0
 10
12.032248392340303
 20
-4.580510905657951
 30
0.0
 10
12.002905504691647
 20
-4.5112032109852045
 30
0.0
 10
11.979170963853182
 20
-4.439229466242481
 30
0.0
 10
11.961191507813925
 20
-4.364979436010862
 30
0.0
 10
11.949114489376248
 20
-4.28884422873847
 30
0.0
 10
11.94308541690245
 20
-4.211210921272314
 30
0.0
 10
11.943252258008254
 20
-4.13247196592755
 30
0.0
 10
11.949760799626162
 20
-4.053016818268268
 30
0.0
 10
11.962756828688669
 20
-3.973234933858557
 30
0.0
 10
11.982389321540982
 20
-3.893515660463447
 30
0.0
 10
12.013309961858173
 20
-3.817460696207453
 30
0.0
 10
12.04965208448824
 20
-3.7452529764072615
 30
0.0
 10
12.091066926975211
 20
-3.6771212677898855
 30
0.0
 10
12.137203152263755
 20
-3.6132957887484345
 30
0.0
 10
12.187711603981766
 20
-3.5540097544270863
 30
0.0
 10
12.24224290485991
 20
-3.499490587685817
 30
0.0
 10
12.300446332656218
 20
-3.4499698507847736
 30
0.0
 10
12.36197245242839
 20
-3.4056783801510537
 30
0.0
 10
12.426472165477286
 20
-3.3668459773617134
 30
0.0
 10
12.493594134747575
 20
-3.333702860809861
 30
0.0
 10
12.562989876353477
 20
-3.30648017593959
 30
0.0
 10
12.634309004296174
 20
-3.285408450161005
 30
0.0
 10
12.707202083633373
 20
-3.2707185199012025
 30
0.0
 10
12.78131940085258
 20
-3.2626388428702033
 30
0.0
 10
12.856309897468652
 20
-3.261402016178194
 30
0.0
 10
12.93182481102562
 20
-3.267236806552189
 30
0.0
 10
13.310540188912778
 20
-3.3083551666117677
 30
0.0
 10
13.399513794737247
 20
-3.30232013413269
 30
0.0
 10
13.480366055347435
 20
-3.2653057643125196
 30
0.0
 10
13.546186296615385
 20
-3.2019896046249956
 30
0.0
 10
13.590064737796695
 20
-3.1170529251279717
 30
0.0
 10
13.68296155333921
 20
-2.6800077696519953
 30
0.0
 10
13.67742789838497
 20
-2.5845250783869345
 30
0.0
 10
13.643051686887548
 20
-2.499905973604409
 30
0.0
 10
13.584222734293453
 20
-2.4334138589562233
 30
0.0
 10
13.505332617616954
 20
-2.392314511441048
 30
0.0
 10
13.142674596452192
 20
-2.2754596659867965
 30
0.0
 10
13.071325642030892
 20
-2.250012983492538
 30
0.0
 10
13.0033364269095
 20
-2.218335134135912
 30
0.0
 10
12.938932399896856
 20
-2.180778043336786
 30
0.0
 10
12.878338129017928
 20
-2.137692449841595
 30
0.0
 10
12.821777301513796
 20
-2.0894279057233405
 30
0.0
 10
12.76947525245529
 20
-2.03633741854686
 30
0.0
 10
12.721656663605389
 20
-1.9787706449136195
 30
0.0
 10
12.67854510846716
 20
-1.9170782190415894
 30
0.0
 10
12.640365041327554
 20
-1.8516119618221745
 30
0.0
 10
12.607341030211531
 20
-1.7827226120018098
 30
0.0
 10
12.579698523927934
 20
-1.7107620950003632
 30
0.0
 10
12.557660328933975
 20
-1.636078776217403
 30
0.0
 10
12.541452774822366
 20
-1.55902576774623
 30
0.0
 10
12.531299435096184
 20
-1.4799537038048163
 30
0.0
 10
12.527423883258491
 20
-1.399213218611133
 30
0.0
 10
12.530052790116065
 20
-1.3171541778235716
 30
0.0
 10
12.544485024041931
 20
-1.2363324344031612
 30
0.0
 10
12.565020154984351
 20
-1.1581466743622209
 30
0.0
 10
12.591364605060807
 20
-1.0828931771178225
 30
0.0
 10
12.62322257986895
 20
-1.010870177320052
 30
0.0
 10
12.660301041096071
 20
-0.9423783874943241
 30
0.0
 10
12.702305530075769
 20
-0.8777129003842781
 30
0.0
 10
12.748941133189575
 20
-0.8171731373134323
 30
0.0
 10
12.799914045078921
 20
-0.7610575419887994
 30
0.0
 10
12.854930574123271
 20
-0.7096634759724211
 30
0.0
 10
12.913694925920266
 20
-0.6632891739143828
 30
0.0
 10
12.975914289633245
 20
-0.6222331840501596
 30
0.0
 10
13.041293865381748
 20
-0.5867938455583008
 30
0.0
 10
13.10953984780722
 20
-0.5572696021458183
 30
0.0
 10
13.180357664505234
 20
-0.5339566287013209
 30
0.0
 10
13.253452288119298
 20
-0.5171554286932971
 30
0.0
 10
13.328530140766894
 20
-0.5071622815388193
 30
0.0
 10
13.707518666771852
 20
-0.46864275222199925
 30
0.0
 10
13.793293232030829
 20
-0.44424094685712023
 30
0.0
 10
13.864682956546721
 20
-0.391225299614945
 30
0.0
 10
13.915900697805967
 20
-0.31560795227686267
 30
0.0
 10
13.941160961124732
 20
-0.22340450211609886
 30
0.0
 10
13.941160961124734
 20
0.22340450211609375
 30
0.0
 10
13.915896262023205
 20
0.3156501559306819
 30
0.0
 10
13.864677952073865
 20
0.3912729139936133
 30
0.0
 10
13.793310065257716
 20
0.4440807894015776
 30
0.0
 10
13.707598852075602
 20
0.4678798400182501
 30
0.0
 10
13.328570290287777
 20
0.5067802843644574
 30
0.0
 10
13.253489818922635
 20
0.5168366140410396
 30
0.0
 10
13.180400136054665
 20
0.5336864737123695
 30
0.0
 10
13.10959493330441
 20
0.557032501816405
 30
0.0
 10
13.041366794032498
 20
0.5865783144076102
 30
0.0
 10
12.97600719333964
 20
0.6220285051569566
 30
0.0
 10
12.913809936584396
 20
0.6630846303574317
 30
0.0
 10
12.855067493389381
 20
0.7094513882084701
 30
0.0
 10
12.800071452593318
 20
0.7608322902360727
 30
0.0
 10
12.749114511294856
 20
0.8169298703497341
 30
0.0
 10
12.702489252854622
 20
0.877447744603919
 30
0.0
 10
12.660489368893165
 20
0.9420885514365851
 30
0.0
 10
12.62340522625127
 20
1.0105578621352098
 30
0.0
 10
12.591531624809402
 20
1.0825573375212443
 30
0.0
 10
12.565160153406291
 20
1.1577904891206905
 30
0.0
 10
12.544582400880667
 20
1.2359608284595487
 30
0.0
 10
12.530092825898933
 20
1.3167732627941802
 30
0.0
 10
12.527405895557367
 20
1.3988294873657816
 30
0.0
 10
12.53123655105147
 20
1.4795761947567796
 30
0.0
 10
12.541359229834375
 20
1.558662541692276
 30
0.0
 10
12.557546607791476
 20
1.6357353115505069
 30
0.0
 10
12.579574571849882
 20
1.7104394370051583
 30
0.0
 10
12.607216451202822
 20
1.782425052397838
 30
0.0
 10
12.640246029995598
 20
1.8513379634902756
 30
0.0
 10
12.678437973157388
 20
1.9168251627176334
 30
0.0
 10
12.721566831879356
 20
1.9785347246600433
 30
0.0
 10
12.769405282046883
 20
2.0361134326957417
 30
0.0
 10
12.82172898311105
 20
2.0892083837883533
 30
0.0
 10
12.878311605479137
 20
2.1374664658445774
 30
0.0
 10
12.938927814080328
 20
2.1805346712995766
 30
0.0
 10
13.003351051845861
 20
2.218062052349989
 30
0.0
 10
13.071355216659066
 20
2.2496933326125745
 30
0.0
 10
13.142714745973077
 20
2.275077668812435
 30
0.0
 10
13.505412802920706
 20
2.391551599237299
 30
0.0
 10
13.58423956752034
 20
2.4332537015006808
 30
0.0
 10
13.643046682414692
 20
2.499953587983078
 30
0.0
 10
13.67742346260221
 20
2.584567282040754
 30
0.0
 10
13.682961553339211
 20
2.680007769651991
 30
0.0
 10
13.590064737796697
 20
3.117052925127971
 30
0.0
 10
13.546173183132096
 20
3.20202996377663
 30
0.0
 10
13.48035126064834
 20
3.265351297714364
 30
0.0
 10
13.399563558725118
 20
3.302166976326478
 30
0.0
 10
13.310777240341482
 20
3.3076255973321835
 30
0.0
 10
12.931943504861556
 20
3.2668715044873755
 30
0.0
 10
12.856412893427297
 20
3.2610979714837915
 30
0.0
 10
12.781417112677289
 20
3.2623834217475904
 30
0.0
 10
12.707305261310667
 20
3.270498053701717
 30
0.0
 10
12.634425150726893
 20
3.2852127916021625
 30
0.0
 10
12.563123305025746
 20
3.306299285537965
 30
0.0
 10
12.493749159149525
 20
3.3335266990820283
 30
0.0
 10
12.426650188254529
 20
3.3666669913403844
 30
0.0
 10
12.362173252683702
 20
3.405490777552031
 30
0.0
 10
12.300666500079663
 20
3.4497679471229166
 30
0.0
 10
12.24247774184187
 20
3.499269424309034
 30
0.0
 10
12.187956076669465
 20
3.553765407533327
 30
0.0
 10
12.13744674136255
 20
3.6130282727178815
 30
0.0
 10
12.09130012191994
 20
3.6768274924525937
 30
0.0
 10
12.049863078684577
 20
3.7449336819764616
 30
0.0
 10
12.013482471999405
 20
3.8171174565284813
 30
0.0
 10
11.982507679133755
 20
3.893151393248676
 30
0.0
 10
11.962819016274011
 20
3.9728558482082383
 30
0.0
 10
11.949777778293175
 20
4.052634484370616
 30
0.0
 10
11.943236276145715
 20
4.132097228137733
 30
0.0
 10
11.94304559115939
 20
4.210851318177436
 30
0.0
 10
11.949060330317833
 20
4.288502850508477
 30
0.0
 10
11.961131517275836
 20
4.364662477365823
 30
0.0
 10
11.979111520660835
 20
4.438936711584278
 30
0.0
 10
12.002853323913625
 20
4.510933409865679
 30
0.0
 10
12.032209574231832
 20
4.5802614637619055
 30
0.0
 10
12.06703135294322
 20
4.646528111940808
 30
0.0
 10
12.107172594545096
 20
4.709341520121219
 30
0.0
 10
12.152485331421735
 20
4.768309235987981
 30
0.0
 10
12.202822547013936
 20
4.823039116242935
 30
0.0
 10
12.258035601219643
 20
4.873140778271006
 30
0.0
 10
12.317977198909459
 20
4.918219700056955
 30
0.0
 10
12.382499651037856
 20
4.957885808002704
 30
0.0
 10
12.713055593421167
 20
5.147223669872118
 30
0.0
 10
12.781489449495673
 20
5.204403487056205
 30
0.0
 10
12.82514380165975
 20
5.281872507677977
 30
0.0
 10
12.841177190523258
 20
5.371784524003375
 30
0.0
 10
12.826751067538579
 20
5.466290841782203
 30
0.0
 10
12.645017473061134
 20
5.8744711780323335
 30
0.0
 10
12.58441733438735
 20
5.948465697161047
 30
0.0
 10
12.506868533230346
 20
5.9967181608310325
 30
0.0
 10
12.420191826436502
 20
6.0159326208307204
 30
0.0
 10
12.33221079100873
 20
6.002812244294141
 30
0.0
 10
11.970128733923122
 20
5.884184763675469
 30
0.0
 10
11.897449032575514
 20
5.86283369908846
 30
0.0
 10
11.823824829431926
 20
5.848498559599926
 30
0.0
 10
11.749645372981778
 20
5.841027147049424
 30
0.0
 10
11.675298501636224
 20
5.840267705603713
 30
0.0
 10
11.601170643728143
 20
5.846068921756754
 30
0.0
 10
11.52765159179982
 20
5.8582776550209035
 30
0.0
 10
11.455128640209544
 20
5.876743091890122
 30
0.0
 10
11.38398876134306
 20
5.901312976531168
 30
0.0
 10
11.314620337664381
 20
5.931834610783598
 30
0.0
 10
11.247411207584667
 20
5.968156238814173
 30
0.0
 10
11.182750619593326
 20
6.010125662462451
 30
0.0
 10
11.121023591944983
 20
6.057592010549591
 30
0.0
 10
11.06262078320732
 20
6.110402642587951
 30
0.0
 10
11.007929165766084
 20
6.168405302744293
 30
0.0
 10
10.957335712007024
 20
6.2314477351853705
 30
0.0
 10
10.911229448339236
 20
6.299380126405147
 30
0.0
 10
10.87539954200497
 20
6.373249344606529
 30
0.0
 10
10.846056375227763
 20
6.448573200319622
 30
0.0
 10
10.823136587183388
 20
6.524939437711185
 30
0.0
 10
10.80657617310255
 20
6.601932916293576
 30
0.0
 10
10.796314814397885
 20
6.679138110924747
 30
0.0
 10
10.792287740166904
 20
6.756143208098657
 30
0.0
 10
10.794432355718573
 20
6.8325326250004625
 30
0.0
 10
10.8026863883344
 20
6.907892221142521
 30
0.0
 10
10.816987021243028
 20
6.981808798364387
 30
0.0
 10
10.837270249675155
 20
7.053867216178418
 30
0.0
 10
10.863474666937691
 20
7.12365383409697
 30
0.0
 10
10.895537134286737
 20
7.190754011632399
 30
0.0
 10
10.933395379003807
 20
7.2547536082970625
 30
0.0
 10
10.97698517423927
 20
7.315239868257718
 30
0.0
 10
11.026244469354957
 20
7.371796266372319
 30
0.0
 10
11.081109903526647
 20
7.424010546807624
 30
0.0
 10
11.365076850480097
 20
7.6779373670140325
 30
0.0
 10
11.420126910136943
 20
7.748095866728674
 30
0.0
 10
11.446720594904356
 20
7.832948253551046
 30
0.0
 10
11.443709856413781
 20
7.9242290055850235
 30
0.0
 10
11.40995001050607
 20
8.01367077395288
 30
0.0
 10
11.147322267226903
 20
8.375146851616469
 30
0.0
 10
11.072662061395707
 20
8.434924935674214
 30
0.0
 10
10.986775636296453
 20
8.465999664873063
 30
0.0
 10
10.897998112639861
 20
8.46677314215713
 30
0.0
 10
10.814667553595996
 20
8.435647191491466
 30
0.0
 10
10.485161898261827
 20
8.244330913239775
 30
0.0
 10
10.418509558705658
 20
8.20833546104557
 30
0.0
 10
10.349474664133988
 20
8.179006246187981
 30
0.0
 10
10.27846960079971
 20
8.156275325713121
 30
0.0
 10
10.205905283726047
 20
8.140074896156639
 30
0.0
 10
10.132191156706542
 20
8.130337293543707
 30
0.0
 10
10.057740334078936
 20
8.126993766300297
 30
0.0
 10
9.982963002781606
 20
8.129977319582194
 30
0.0
 10
9.908269334692944
 20
8.13921948079444
 30
0.0
 10
9.834070972921015
 20
8.154651637852531
 30
0.0
 10
9.760778832489045
 20
8.17620598729212
 30
0.0
 10
9.688805299649921
 20
8.203814586159313
 30
0.0
 10
9.618558346967522
 20
8.237409909968823
 30
0.0
 10
9.55045183192441
 20
8.276923876277229
 30
0.0
 10
9.484895926398982
 20
8.322288012489567
 30
0.0
 10
9.42230080226963
 20
8.373433846010874
 30
0.0
 10
9.363078132764388
 20
8.43029572025815
 30
0.0
 10
9.312672921793373
 20
8.495101262402112
 30
0.0
 10
9.268310263412094
 20
8.562678323727297
 30
0.0
 10
9.23001389418969
 20
8.632610483723434
 30
0.0
 10
9.197807520575356
 20
8.704478366378758
 30
0.0
 10
9.171718534622435
 20
8.77786298583305
 30
0.0
 10
9.151769201670412
 20
8.852348061065573
 30
0.0
 10
9.137984699398137
 20
8.92751407657503
 30
0.0
 10
9.130390220544449
 20
9.002942994610875
 30
0.0
 10
9.129010229763336
 20
9.078217586042694
 30
0.0
 10
9.13386843350399
 20
9.152918474858728
 30
0.0
 10
9.144990767650068
 20
9.226628292439036
 30
0.0
 10
9.162401681795581
 20
9.298928331902458
 30
0.0
 10
9.186126368679371
 20
9.369400555498448
 30
0.0
 10
9.216187821725754
 20
9.437627873586129
 30
0.0
 10
9.252611946698432
 20
9.503189962044065
 30
0.0
 10
9.295422480166554
 20
9.565670400361988
 30
0.0
 10
9.52038971348368
 20
9.8730883583863
 30
0.0
 10
9.559650024956373
 20
9.953159277536132
 30
0.0
 10
9.568020770692126
 20
10.04168657408804
 30
0.0
 10
9.546097488566632
 20
10.130346654953067
 30
0.0
 10
9.49447938699977
 20
10.210814839443055
 30
0.0
 10
9.162435587527908
 20
10.50978841937154
 30
0.0
 10
9.076978323793536
 20
10.552737479237923
 30
0.0
 10
8.986507923657662
 20
10.565276359186552
 30
0.0
 10
8.899509586923939
 20
10.547575049086127
 30
0.0
 10
8.824471449558581
 20
10.499803877694351
 30
0.0
 10
8.541943174257515
 20
10.244160241206597
 30
0.0
 10
8.4842312235648
 20
10.195093575391423
 30
0.0
 10
8.42280279372401
 20
10.152052112591246
 30
0.0
 10
8.358075385493406
 20
10.115055134491838
 30
0.0
 10
8.290465031549976
 20
10.084121753334486
 30
0.0
 10
8.220386296489428
 20
10.059270911915966
 30
0.0
 10
8.14825756136605
 20
10.040521252349558
 30
0.0
 10
8.074493978560804
 20
10.02789252644904
 30
0.0
 10
7.9995109929654244
 20
10.021403037438699
 30
0.0
 10
7.9237255175529215
 20
10.02107125798731
 30
0.0
 10
7.8475535850002816
 20
10.026916300336158
 30
0.0
 10
7.771412696065768
 20
10.038957446171016
 30
0.0
 10
7.695715947263813
 20
10.057213468844171
 30
0.0
 10
7.620882307433956
 20
10.081703819485893
 30
0.0
 10
7.547327221467933
 20
10.112446801320473
 30
0.0
 10
7.475466134257475
 20
10.14946071757219
 30
0.0
 10
7.4057153737540515
 20
10.192766938088813
 30
0.0
 10
7.34293780773676
 20
10.245676491012176
 30
0.0
 10
7.285494518798322
 20
10.302553316098823
 30
0.0
 10
7.2334953034992795
 20
10.362995027735964
 30
0.0
 10
7.187050543421719
 20
10.426596343131825
 30
0.0
 10
7.1462741440955355
 20
10.492953127400613
 30
0.0
 10
7.11127443399999
 20
10.561662825485039
 30
0.0
 10
7.082163262798448
 20
10.632320324037824
 30
0.0
 10
7.059052187643503
 20
10.704521958301182
 30
0.0
 10
7.042051885391719
 20
10.77786470308982
 30
0.0
 10
7.031272737625183
 20
10.851943275611964
 30
0.0
 10
7.026826889281739
 20
10.92635482012682
 30
0.0
 10
7.028825309728724
 20
11.000694862859602
 30
0.0
 10
7.037379556118735
 20
11.074559739052527
 30
0.0
 10
7.0525988372270545
 20
11.147546254075804
 30
0.0
 10
7.074595883013076
 20
11.21924865500966
 30
0.0
 10
7.103480490037339
 20
11.2892645562413
 30
0.0
 10
7.259615862109632
 20
11.636738012162825
 30
0.0
 10
7.281370561394932
 20
11.723221867358104
 30
0.0
 10
7.271152526343082
 20
11.811555005979127
 30
0.0
 10
7.231274853211132
 20
11.893719544703131
 30
0.0
 10
7.164054454714722
 20
11.96169729952385
 30
0.0
 10
6.777106506410015
 20
12.185101801639945
 30
0.0
 10
6.684587077267114
 20
12.209344757306347
 30
0.0
 10
6.593486692705699
 20
12.202799778782778
 30
0.0
 10
6.512069787674445
 20
12.167397313489563
 30
0.0
 10
6.448603598663398
 20
12.105068750793006
 30
0.0
 10
6.225400544747169
 20
11.796270609697972
 30
0.0
 10
6.1791512720958455
 20
11.73627717900594
 30
0.0
 10
6.128014024136285
 20
11.681404586723394
 30
0.0
 10
6.072393169345597
 20
11.631758496473582
 30
0.0
 10
6.0126916754302036
 20
11.587444100906769
 30
0.0
 10
5.949311109325836
 20
11.548566121700219
 30
0.0
 10
5.882656833543649
 20
11.515229779904713
 30
0.0
 10
5.813130821756021
 20
11.487540710742984
 30
0.0
 10
5.741135634932725
 20
11.465603193319827
 30
0.0
 10
5.667075234814231
 20
11.44952197771304
 30
0.0
 10
5.591352589106958
 20
11.439402256572876
 30
0.0
 10
5.514372066288018
 20
11.435349693522587
 30
0.0
 10
5.436533832522453
 20
11.437468539266455
 30
0.0
 10
5.358243657058059
 20
11.445864928400711
 30
0.0
 10
5.279904100864618
 20
11.460643140030166
 30
0.0
 10
5.2019177249119055
 20
11.481907453259616
 30
0.0
 10
5.124687316345584
 20
11.50976533040271
 30
0.0
 10
5.052281076157154
 20
11.548466492754516
 30
0.0
 10
4.9842677040316525
 20
11.592157291421053
 30
0.0
 10
4.920838257884455
 20
11.640466961869148
 30
0.0
 10
4.862184970225746
 20
11.693022027329771
 30
0.0
 10
4.808503281843722
 20
11.74945086652533
 30
0.0
 10
4.759982849883075
 20
11.809382243949658
 30
0.0
 10
4.716817307624673
 20
11.87244315380672
 30
0.0
 10
4.679199701051984
 20
11.938261946418402
 30
0.0
 10
4.647322082114431
 20
12.006467414679062
 30
0.0
 10
4.621376683322193
 20
12.076686081819664
 30
0.0
 10
4.601556957395383
 20
12.148547211707562
 30
0.0
 10
4.588055543580823
 20
12.22167824111918
 30
0.0
 10
4.581065487861981
 20
12.295707520376407
 30
0.0
 10
4.580777441417593
 20
12.37026337140061
 30
0.0
 10
4.58738603156257
 20
12.444972345823281
 30
0.0
 10
4.601082316212292
 20
12.519463679111245
 30
0.0
 10
4.681561962059552
 20
12.89180637554358
 30
0.0
 10
4.684860264408064
 20
12.980923407316691
 30
0.0
 10
4.656500025731945
 20
13.065201805979665
 30
0.0
 10
4.600410807263714
 20
13.13727981795121
 30
0.0
 10
4.520525965811308
 20
13.189796189023532
 30
0.0
 10
4.095585350796936
 20
13.32786776457103
 30
0.0
 10
4.000047299256524
 20
13.332345082544222
 30
0.0
 10
3.912298454223051
 20
13.307002292516227
 30
0.0
 10
3.8400212903257867
 20
13.25544592964341
 30
0.0
 10
3.790900826673395
 20
13.181284032917537
 30
0.0
 10
3.6367780386452244
 20
12.832827347758963
 30
0.0
 10
3.6040127591787883
 20
12.764529152991733
 30
0.0
 10
3.5654016362200327
 20
12.700223626817477
 30
0.0
 10
3.5213182331220874
 20
12.640098196789548
 30
0.0
 10
3.4721348409983848
 20
12.584339538543604
 30
0.0
 10
3.418222478722659
 20
12.533133575797594
 30
0.0
 10
3.3599557739760453
 20
12.486667509874971
 30
0.0
 10
3.2977059535439706
 20
12.44512824264129
 30
0.0
 10
3.231845100628175
 20
12.408701471584603
 30
0.0
 10
3.1627465706700963
 20
12.377573646110665
 30
0.0
 10
3.090782654783168
 20
12.351931441855125
 30
0.0
 10
3.016326916320517
 20
12.33196228637134
 30
0.0
 10
2.939749101916183
 20
12.317851351459563
 30
0.0
 10
2.8614240471629913
 20
12.309786816590844
 30
0.0
 10
2.7817238352626825
 20
12.307954379253239
 30
0.0
 10
2.7010205494169988
 20
12.3125397369348
 30
0.0
 10
2.6196858322347465
 20
12.323731747796284
 30
0.0
 10
2.540815418015102
 20
12.34653309307298
 30
0.0
 10
2.4652044734287877
 20
12.375128367765965
 30
0.0
 10
2.393116967598321
 20
12.409194632610914
 30
0.0
 10
2.3248185824788488
 20
12.448406539588488
 30
0.0
 10
2.2605777524166006
 20
12.492441222662357
 30
0.0
 10
2.200657174294396
 20
12.540974990650492
 30
0.0
 10
2.1453238023070784
 20
12.593683247451258
 30
0.0
 10
2.0948437342331765
 20
12.650242601340524
 30
0.0
 10
2.0494820035232113
 20
12.710329886824063
 30
0.0
 10
2.0095042921323305
 20
12.773619755882537
 30
0.0
 10
1.9751769057507516
 20
12.839789794939414
 30
0.0
 10
1.9467657342453122
 20
12.908515634122965
 30
0.0
 10
1.9245368753945418
 20
12.979473881709062
 30
0.0
 10
1.9087540904092635
 20
13.052340620285767
 30
0.0
 10
1.8996853978123283
 20
13.126791027521548
 30
0.0
 10
1.897594766726251
 20
13.20250216415208
 30
0.0
 10
1.8989013396407652
 20
13.58344093856264
 30
0.0
 10
1.8835990934128497
 20
13.671296304994135
 30
0.0
 10
1.8383361296301335
 20
13.747836593264864
 30
0.0
 10
1.7684867338186119
 20
13.806677923492115
 30
0.0
 10
1.6794288003116817
 20
13.841437693398676
 30
0.0
 10
1.2350674625550662
 20
13.888141951985219
 30
0.0
 10
1.140686259911894
 20
13.872657951985218
 30
0.0
 10
1.060124
 20
13.829624951985219
 30
0.0
 10
1.0001454361233482
 20
13.764167951985218
 30
0.0
 10
0.9675174977973569
 20
13.681413951985219
 30
0.0
 10
0.8892108810572688
 20
13.30852795198522
 30
0.0
 10
0.8713615947136564
 20
13.23490995198522
 30
0.0
 10
0.8469640881057269
 20
13.16398195198522
 30
0.0
 10
0.8163447929515419
 20
13.096004951985218
 30
0.0
 10
0.7798290528634362
 20
13.03123895198522
 30
0.0
 10
0.7377411233480176
 20
12.96994295198522
 30
0.0
 10
0.6904085242290748
 20
12.912377951985219
 30
0.0
 10
0.6381555110132159
 20
12.85880395198522
 30
0.0
 10
0.5813074273127753
 20
12.80947995198522
 30
0.0
 10
0.520190704845815
 20
12.764665951985219
 30
0.0
 10
0.4551306872246696
 20
12.724621951985219
 30
0.0
 10
0.3864538061674009
 20
12.68960895198522
 30
0.0
 10
0.3144832290748899
 20
12.65988495198522
 30
0.0
 10
0.23954647577092514
 20
12.635711951985218
 30
0.0
 10
0.1619688898678414
 20
12.61734895198522
 30
0.0
 10
0.08207581497797356
 20
12.605054951985219
 30
0.0
 10
1.915066079295154E-4
 20
12.59909195198522
 30
0.0
 10
-0.08169606607929515
 20
12.60499695198522
 30
0.0
 10
-0.16160002202643173
 20
12.61724695198522
 30
0.0
 10
-0.23919501762114537
 20
12.635580951985219
 30
0.0
 10
-0.31415353303964755
 20
12.659735951985219
 30
0.0
 10
-0.38614587224669605
 20
12.68945195198522
 30
0.0
 10
-0.45484777973568286
 20
12.72446695198522
 30
0.0
 10
-0.5199306475770925
 20
12.764518951985218
 30
0.0
 10
-0.5810669559471365
 20
12.80934695198522
 30
0.0
 10
-0.6379302731277533
 20
12.85868995198522
 30
0.0
 10
-0.6901930792951542
 20
12.91228495198522
 30
0.0
 10
-0.7375278546255507
 20
12.969871951985219
 30
0.0
 10
-0.7796070792951543
 20
13.031188951985218
 30
0.0
 10
-0.8161032334801762
 20
13.09597495198522
 30
0.0
 10
-0.8466909735682819
 20
13.163967951985219
 30
0.0
 10
-0.8710406035242291
 20
13.234905951985219
 30
0.0
 10
-0.8888267797356829
 20
13.30852795198522
 30
0.0
 10
-0.9667503832599119
 20
13.681413951985219
 30
0.0
 10
-0.999984396475771
 20
13.764167951985218
 30
0.0
 10
-1.0601718766519823
 20
13.829624951985219
 30
0.0
 10
-1.1407286960352423
 20
13.872657951985218
 30
0.0
 10
-1.2350674625550662
 20
13.888141951985219
 30
0.0
 10
-1.6794288003116722
 20
13.841437693398678
 30
0.0
 10
-1.76852824261084
 20
13.80666910052596
 30
0.0
 10
-1.8383829600623918
 20
13.747826639149201
 30
0.0
 10
-1.8834415728679397
 20
13.671329787019552
 30
0.0
 10
-1.8981509883964662
 20
13.583600430643171
 30
0.0
 10
-1.8972190589400943
 20
13.202582023307297
 30
0.0
 10
-1.8993722526972876
 20
13.126861677932887
 30
0.0
 10
-1.908489854843399
 20
13.052411098057444
 30
0.0
 10
-1.9243068319279062
 20
12.979553449175208
 30
0.0
 10
-1.9465590069166034
 20
12.908610692402902
 30
0.0
 10
-1.9749830591915982
 20
12.839903584479755
 30
0.0
 10
-2.0093128909743627
 20
12.773755517129894
 30
0.0
 10
-2.049285389558696
 20
12.710488225240152
 30
0.0
 10
-2.0946361699987017
 20
12.650422691779648
 30
0.0
 10
-2.1450999909321657
 20
12.593881104095017
 30
0.0
 10
-2.200412675324882
 20
12.541185423302986
 30
0.0
 10
-2.2603091897263283
 20
12.492658814897789
 30
0.0
 10
-2.324527069934928
 20
12.448620831241142
 30
0.0
 10
-2.3928004260838445
 20
12.409395842204782
 30
0.0
 10
-2.4648648732271803
 20
12.375304830757837
 30
0.0
 10
-2.540456026419037
 20
12.346668779869434
 30
0.0
 10
-2.6193111887765967
 20
12.3238113807216
 30
0.0
 10
-2.7006370400647994
 20
12.312561958609571
 30
0.0
 10
-2.7813418210761482
 20
12.307931300134562
 30
0.0
 10
-2.86105303278552
 20
12.309731751513324
 30
0.0
 10
-2.9393956316883996
 20
12.317774155127196
 30
0.0
 10
-3.015993069359329
 20
12.33187274026014
 30
0.0
 10
-3.0904737031895007
 20
12.351838648751393
 30
0.0
 10
-3.1624616332580837
 20
12.377483927359808
 30
0.0
 10
-3.231582231883943
 20
12.408621374761932
 30
0.0
 10
-3.2974619357139496
 20
12.445063563404412
 30
0.0
 10
-3.359725701243586
 20
12.486621335668595
 30
0.0
 10
-3.4179991087034094
 20
12.53310846837863
 30
0.0
 10
-3.471907322500593
 20
12.584336782063467
 30
0.0
 10
-3.5210757149540033
 20
12.640119075399655
 30
0.0
 10
-3.565131579126825
 20
12.700266716456335
 30
0.0
 10
-3.6036979507702207
 20
12.764591978222262
 30
0.0
 10
-3.6364023308590685
 20
12.83290720691418
 30
0.0
 10
-3.7901504754290958
 20
13.181443524998071
 30
0.0
 10
-3.8398637697808766
 20
13.255479411668828
 30
0.0
 10
-3.9123452846553093
 20
13.306992338400564
 30
0.0
 10
-4.000088808048752
 20
13.332336259578067
 30
0.0
 10
-4.095585350796927
 20
13.327867764571032
 30
0.0
 10
-4.5205259658112995
 20
13.189796189023538
 30
0.0
 10
-4.600449574591429
 20
13.137262557624858
 30
0.0
 10
-4.656543763229882
 20
13.065182332790961
 30
0.0
 10
-4.684713147369512
 20
12.980988908042352
 30
0.0
 10
-4.680861168058369
 20
12.892118389135398
 30
0.0
 10
-4.6007314221946745
 20
12.519619907193395
 30
0.0
 10
-4.587094418466089
 20
12.44510655888396
 30
0.0
 10
-4.580533633185489
 20
12.370387246727159
 30
0.0
 10
-4.580857014403448
 20
12.295833177828627
 30
0.0
 10
-4.5878730974679485
 20
12.22181420317608
 30
0.0
 10
-4.601391005024366
 20
12.148698817639307
 30
0.0
 10
-4.621217691089235
 20
12.07685867089642
 30
0.0
 10
-4.64716268504458
 20
12.006663171362662
 30
0.0
 10
-4.679034115501732
 20
11.938481256480289
 30
0.0
 10
-4.71663952377463
 20
11.872683219809485
 30
0.0
 10
-4.759787445211247
 20
11.809638912337968
 30
0.0
 10
-4.8082858278621625
 20
11.749719541171379
 30
0.0
 10
-4.861944381670158
 20
11.693292245061574
 30
0.0
 10
-4.920570467388408
 20
11.640729587232126
 30
0.0
 10
-4.983972213628248
 20
11.59240050512529
 30
0.0
 10
-5.051957749001012
 20
11.548673936183324
 30
0.0
 10
-5.124337416362011
 20
11.509921115912386
 30
0.0
 10
-5.201547216305167
 20
11.482008925415338
 30
0.0
 10
-5.279525636186026
 20
11.460699990461045
 30
0.0
 10
-5.357869301561526
 20
11.445888204853787
 30
0.0
 10
-5.4361720364472275
 20
11.437466520451878
 30
0.0
 10
-5.514026897000533
 20
11.435331514894937
 30
0.0
 10
-5.5910310960757785
 20
11.439375725869319
 30
0.0
 10
-5.666777870391123
 20
11.449493461351258
 30
0.0
 10
-5.740861857435417
 20
11.465579500289982
 30
0.0
 10
-5.81287868873155
 20
11.487528179062243
 30
0.0
 10
-5.882422188295081
 20
11.515232449526348
 30
0.0
 10
-5.9490874003515035
 20
11.548588004176981
 30
0.0
 10
-6.012468555653021
 20
11.587488708417903
 30
0.0
 10
-6.072160291688481
 20
11.631829341198346
 30
0.0
 10
-6.127758827278175
 20
11.681502882777128
 30
0.0
 10
-6.17885640510622
 20
11.736404083702958
 30
0.0
 10
-6.225049650729551
 20
11.796426837780121
 30
0.0
 10
-6.447902804662217
 20
12.105380764384824
 30
0.0
 10
-6.511922670635893
 20
12.167462814215224
 30
0.0
 10
-6.5935304302036375
 20
12.202780305594073
 30
0.0
 10
-6.68462584459483
 20
12.209327496979995
 30
0.0
 10
-6.777106506410008
 20
12.18510180163995
 30
0.0
 10
-7.164054454714718
 20
11.961697299523854
 30
0.0
 10
-7.231309184756092
 20
11.893694601375667
 30
0.0
 10
-7.271191259368165
 20
11.811526864789165
 30
0.0
 10
-7.2812402775832705
 20
11.723316524087988
 30
0.0
 10
-7.258995253412205
 20
11.637188910774755
 30
0.0
 10
-7.103169745540611
 20
11.289490325333517
 30
0.0
 10
-7.074338546826791
 20
11.219440564964902
 30
0.0
 10
-7.05238611191838
 20
11.147718113011026
 30
0.0
 10
-7.037201763958812
 20
11.07472599465718
 30
0.0
 10
-7.028675118602295
 20
11.000865786499158
 30
0.0
 10
-7.026696084013804
 20
10.926537616543264
 30
0.0
 10
-7.031153103040748
 20
10.852145149547283
 30
0.0
 10
-7.04193667163336
 20
10.778089322534516
 30
0.0
 10
-7.0589358176605925
 20
10.704770903083759
 30
0.0
 10
-7.082039276480625
 20
10.632592107363307
 30
0.0
 10
-7.111136663747665
 20
10.56195451196896
 30
0.0
 10
-7.146117302605147
 20
10.493261142086002
 30
0.0
 10
-7.186871393728819
 20
10.426910677131245
 30
0.0
 10
-7.233287967751343
 20
10.36330759087947
 30
0.0
 10
-7.285256052541674
 20
10.302852650909477
 30
0.0
 10
-7.342664675968764
 20
10.24594662480007
 30
0.0
 10
-7.405405509553349
 20
10.19299206760853
 30
0.0
 10
-7.4751248194002144
 20
10.149637005388735
 30
0.0
 10
-7.5469688470198175
 20
10.112581096664275
 30
0.0
 10
-7.6205209719499205
 20
10.081804420176873
 30
0.0
 10
-7.695361637565729
 20
10.057286715779266
 30
0.0
 10
-7.7710712900061605
 20
10.039011429520173
 30
0.0
 10
-7.847233601319748
 20
10.026957191551823
 30
0.0
 10
-7.923428722370925
 20
10.021105190316447
 30
0.0
 10
-7.999238272105405
 20
10.021436783700771
 30
0.0
 10
-8.074244749764924
 20
10.02793269001902
 30
0.0
 10
-8.14802859872469
 20
10.040572649123925
 30
0.0
 10
-8.220172025715668
 20
10.059338827919209
 30
0.0
 10
-8.290256061898315
 20
10.084211775274603
 30
0.0
 10
-8.357862326218347
 20
10.115172849076831
 30
0.0
 10
-8.422573610428271
 20
10.152201319050624
 30
0.0
 10
-8.483969185096496
 20
10.19527901321071
 30
0.0
 10
-8.541632429760787
 20
10.244386010298815
 30
0.0
 10
-8.823850840861155
 20
10.500254776306281
 30
0.0
 10
-8.899379303112276
 20
10.547669705816013
 30
0.0
 10
-8.986546656682746
 20
10.56524821799659
 30
0.0
 10
-9.077012655338498
 20
10.552712535910459
 30
0.0
 10
-9.162435587527904
 20
10.509788419371544
 30
0.0
 10
-9.49447938699976
 20
10.210814839443062
 30
0.0
 10
-9.546125883875574
 20
10.130315118767594
 30
0.0
 10
-9.56805280642529
 20
10.041650994801865
 30
0.0
 10
-9.559542268399335
 20
9.953278953316934
 30
0.0
 10
-9.519876413668088
 20
9.873658435585357
 30
0.0
 10
-9.29516546621633
 20
9.56595584327159
 30
0.0
 10
-9.25240013424851
 20
9.503431181507944
 30
0.0
 10
-9.216015476457258
 20
9.43784020506989
 30
0.0
 10
-9.185987028188581
 20
9.369600143087835
 30
0.0
 10
-9.16229030972851
 20
9.299126746941445
 30
0.0
 10
-9.144900826303088
 20
9.226834290259632
 30
0.0
 10
-9.133793385173481
 20
9.153140810792946
 30
0.0
 10
-9.128944234710561
 20
9.078461251300908
 30
0.0
 10
-9.130328152055528
 20
9.003210694032576
 30
0.0
 10
-9.137919929409566
 20
8.92780569898775
 30
0.0
 10
-9.151695087058705
 20
8.852662017546093
 30
0.0
 10
-9.17162916034895
 20
8.778196878838015
 30
0.0
 10
-9.19769763944637
 20
8.704823078741684
 30
0.0
 10
-9.22987607475695
 20
8.632959324138254
 30
0.0
 10
-9.268139243421896
 20
8.56302069727678
 30
0.0
 10
-9.312461922582408
 20
8.495422280406322
 30
0.0
 10
-9.36282184689901
 20
8.43058035454761
 30
0.0
 10
-9.422003598258911
 20
8.373677244864744
 30
0.0
 10
-9.484573304864387
 20
8.322493883395353
 30
0.0
 10
-9.550119308547394
 20
8.277097404473182
 30
0.0
 10
-9.618227008680542
 20
8.237555221411053
 30
0.0
 10
-9.688482577901235
 20
8.203938372153882
 30
0.0
 10
-9.760474342981441
 20
8.176312513284671
 30
0.0
 10
-9.833787718353756
 20
8.154746535866984
 30
0.0
 10
-9.908009589680448
 20
8.13930919147485
 30
0.0
 10
-9.982727570708622
 20
8.13006842306216
 30
0.0
 10
-10.057527060810893
 20
8.12709164394173
 30
0.0
 10
-10.131995688794346
 20
8.1304482748182
 30
0.0
 10
-10.205719597176426
 20
8.140206398134987
 30
0.0
 10
-10.278285671619393
 20
8.15643476546613
 30
0.0
 10
-10.349281510810382
 20
8.179199842014764
 30
0.0
 10
-10.418291801097133
 20
8.208571327464597
 30
0.0
 10
-10.484904884311604
 20
8.244616356149379
 30
0.0
 10
-10.814154253780403
 20
8.436217268690525
 30
0.0
 10
-10.897890356082826
 20
8.466892817937932
 30
0.0
 10
-10.98680767202962
 20
8.46596408558689
 30
0.0
 10
-11.072690456704649
 20
8.434893399488743
 30
0.0
 10
-11.147322267226897
 20
8.375146851616476
 30
0.0
 10
-11.409950010506062
 20
8.013670773952889
 30
0.0
 10
-11.443731074475451
 20
7.924192254824174
 30
0.0
 10
-11.446744533230342
 20
7.83290679115419
 30
0.0
 10
-11.42004639031315
 20
7.748235331154501
 30
0.0
 10
-11.364693293211369
 20
7.678601707691081
 30
0.0
 10
-11.080917852865849
 20
7.424343188309753
 30
0.0
 10
-11.026087437861852
 20
7.372076252896762
 30
0.0
 10
-10.976860741326194
 20
7.315483392385296
 30
0.0
 10
-10.933300580030231
 20
7.254977804935798
 30
0.0
 10
-10.895469448772783
 20
7.190971246381509
 30
0.0
 10
-10.86342952038012
 20
7.123874030228467
 30
0.0
 10
-10.837243067570741
 20
7.054100296964317
 30
0.0
 10
-10.816973129196324
 20
6.9820608600951
 30
0.0
 10
-10.80268133403028
 20
6.908166975454054
 30
0.0
 10
-10.794429632818563
 20
6.832831341201623
 30
0.0
 10
-10.792280520359991
 20
6.756465713171048
 30
0.0
 10
-10.796296813425922
 20
6.679483289522771
 30
0.0
 10
-10.80654036287009
 20
6.60229294143563
 30
0.0
 10
-10.82307430743639
 20
6.525309309397269
 30
0.0
 10
-10.84596027589824
 20
6.448943649240929
 30
0.0
 10
-10.875259897029046
 20
6.373607216799851
 30
0.0
 10
-10.911037941731303
 20
6.299711825580075
 30
0.0
 10
-10.957095608084263
 20
6.2317476073786935
 30
0.0
 10
-11.00765639725419
 20
6.1686737516656
 30
0.0
 10
-11.06233160480453
 20
6.110641514274036
 30
0.0
 10
-11.120729706142194
 20
6.057803035691646
 30
0.0
 10
-11.182460686644578
 20
6.010313841060476
 30
0.0
 10
-11.247135519902583
 20
5.968323743886565
 30
0.0
 10
-11.314363003295663
 20
5.931986326984759
 30
0.0
 10
-11.383753344281534
 20
5.901454730842701
 30
0.0
 10
-11.454917294370777
 20
5.876881153620835
 30
0.0
 10
-11.527463328970304
 20
5.858417735806804
 30
0.0
 10
-11.601002521563236
 20
5.8462181178882515
 30
0.0
 10
-11.675144213581888
 20
5.840434940352822
 30
0.0
 10
-11.749498612483979
 20
5.841221343688161
 30
0.0
 10
-11.823676147807546
 20
5.848728083727505
 30
0.0
 10
-11.89728507287918
 20
5.863109685612905
 30
0.0
 10
-11.969936683262326
 20
5.884517405177599
 30
0.0
 10
-12.331827233740004
 20
6.00347658497119
 30
0.0
 10
-12.42011130661271
 20
6.016072085256548
 30
0.0
 10
-12.506892471556334
 20
5.996676698434177
 30
0.0
 10
-12.58443855244902
 20
5.948428946400199
 30
0.0
 10
-12.64501747306113
 20
5.874471178032342
 30
0.0
 10
-12.826751067538577
 20
5.466290841782206
 30
0.0
 10
-12.841190304006547
 20
5.371744164851742
 30
0.0
 10
-12.825158596358845
 20
5.281826974276134
 30
0.0
 10
-12.7814396855078
 20
5.204556644862418
 30
0.0
 10
-12.712818541992462
 20
5.147953239151704
 30
0.0
 10
-12.38238095720192
 20
4.958251110067519
 30
0.0
 10
-12.317881811402946
 20
4.918526216887313
 30
0.0
 10
-12.257964518977387
 20
4.873404851869462
 30
0.0
 10
-12.202776432727617
 20
4.823278123462083
 30
0.0
 10
-12.15246429064265
 20
4.768535796246263
 30
0.0
 10
-12.10717421589814
 20
4.7095662909360465
 30
0.0
 10
-12.0670532250533
 20
4.6467617508295955
 30
0.0
 10
-12.032248392340303
 20
4.5805109056579525
 30
0.0
 10
-12.002905504691647
 20
4.511203210985206
 30
0.0
 10
-11.979170963853182
 20
4.439229466242482
 30
0.0
 10
-11.961191507813925
 20
4.364979436010864
 30
0.0
 10
-11.949114489376248
 20
4.288844228738472
 30
0.0
 10
-11.94308541690245
 20
4.211210921272315
 30
0.0
 10
-11.943252258008254
 20
4.132471965927551
 30
0.0
 10
-11.949760799626162
 20
4.0530168182682695
 30
0.0
 10
-11.962756828688669
 20
3.973234933858558
 30
0.0
 10
-11.982389321540982
 20
3.893515660463448
 30
0.0
 10
-12.013309961858173
 20
3.8174606962074544
 30
0.0
 10
-12.04965208448824
 20
3.745252976407263
 30
0.0
 10
-12.091066926975211
 20
3.677121267789887
 30
0.0
 10
-12.137203152263755
 20
3.6132957887484363
 30
0.0
 10
-12.187711603981766
 20
3.5540097544270877
 30
0.0
 10
-12.24224290485991
 20
3.4994905876858184
 30
0.0
 10
-12.300446332656218
 20
3.449969850784775
 30
0.0
 10
-12.361972452428391
 20
3.405678380151055
 30
0.0
 10
-12.426472165477286
 20
3.3668459773617148
 30
0.0
 10
-12.493594134747575
 20
3.3337028608098627
 30
0.0
 10
-12.562989876353477
 20
3.306480175939592
 30
0.0
 10
-12.634309004296174
 20
3.2854084501610057
 30
0.0
 10
-12.707202083633373
 20
3.2707185199012043
 30
0.0
 10
-12.78131940085258
 20
3.2626388428702042
 30
0.0
 10
-12.856309897468652
 20
3.2614020161781947
 30
0.0
 10
-12.931824811025622
 20
3.267236806552191
 30
0.0
 10
-13.310540188912778
 20
3.3083551666117694
 30
0.0
 10
-13.399513794737247
 20
3.302320134132691
 30
0.0
 10
-13.480366055347435
 20
3.2653057643125214
 30
0.0
 10
-13.546186296615385
 20
3.2019896046249974
 30
0.0
 10
-13.590064737796695
 20
3.1170529251279735
 30
0.0
 10
-13.682961553339208
 20
2.680007769652003
 30
0.0
 10
-13.67742789838497
 20
2.584525078386942
 30
0.0
 10
-13.643051686887548
 20
2.4999059736044167
 30
0.0
 10
-13.584222734293453
 20
2.4334138589562313
 30
0.0
 10
-13.505332617616954
 20
2.3923145114410556
 30
0.0
 10
-13.142674596452192
 20
2.275459665986804
 30
0.0
 10
-13.071325642030892
 20
2.250012983492545
 30
0.0
 10
-13.0033364269095
 20
2.218335134135919
 30
0.0
 10
-12.938932399896856
 20
2.180778043336793
 30
0.0
 10
-12.878338129017926
 20
2.137692449841602
 30
0.0
 10
-12.821777301513796
 20
2.0894279057233476
 30
0.0
 10
-12.769475252455289
 20
2.036337418546867
 30
0.0
 10
-12.721656663605389
 20
1.9787706449136266
 30
0.0
 10
-12.67854510846716
 20
1.9170782190415965
 30
0.0
 10
-12.640365041327554
 20
1.8516119618221816
 30
0.0
 10
-12.607341030211531
 20
1.7827226120018167
 30
0.0
 10
-12.579698523927934
 20
1.7107620950003701
 30
0.0
 10
-12.557660328933975
 20
1.63607877621741
 30
0.0
 10
-12.541452774822366
 20
1.559025767746237
 30
0.0
 10
-12.531299435096184
 20
1.4799537038048234
 30
0.0
 10
-12.527423883258491
 20
1.39921321861114
 30
0.0
 10
-12.530052790116065
 20
1.3171541778235787
 30
0.0
 10
-12.544485024041931
 20
1.2363324344031683
 30
0.0
 10
-12.565020154984353
 20
1.1581466743622277
 30
0.0
 10
-12.591364605060809
 20
1.0828931771178296
 30
0.0
 10
-12.623222579868951
 20
1.010870177320059
 30
0.0
 10
-12.660301041096071
 20
0.9423783874943312
 30
0.0
 10
-12.70230553007577
 20
0.877712900384285
 30
0.0
 10
-12.748941133189575
 20
0.8171731373134394
 30
0.0
 10
-12.799914045078921
 20
0.7610575419888065
 30
0.0
 10
-12.854930574123271
 20
0.7096634759724282
 30
0.0
 10
-12.913694925920266
 20
0.6632891739143899
 30
0.0
 10
-12.975914289633245
 20
0.6222331840501669
 30
0.0
 10
-13.041293865381748
 20
0.5867938455583079
 30
0.0
 10
-13.10953984780722
 20
0.5572696021458257
 30
0.0
 10
-13.180357664505234
 20
0.5339566287013282
 30
0.0
 10
-13.253452288119298
 20
0.5171554286933044
 30
0.0
 10
-13.328530140766894
 20
0.5071622815388266
 30
0.0
 10
-13.707518666771852
 20
0.4686427522220068
 30
0.0
 10
-13.793293232030829
 20
0.444240946857128
 30
0.0
 10
-13.864682956546723
 20
0.39122529961495256
 30
0.0
 10
-13.915900697805967
 20
0.3156079522768702
 30
0.0
 10
-13.941160961124734
 20
0.2234045021161064
 30
0.0
 10
-13.941160961124734
 20
-0.22340450211608887
 30
0.0
 10
-13.915896262023205
 20
-0.315650155930677
 30
0.0
 10
-13.864677952073865
 20
-0.3912729139936084
 30
0.0
 10
-13.793310065257714
 20
-0.4440807894015727
 30
0.0
 10
-13.707598852075602
 20
-0.46787984001824523
 30
0.0
 10
-13.328570290287777
 20
-0.5067802843644528
 30
0.0
 10
-13.253489818922635
 20
-0.5168366140410352
 30
0.0
 10
-13.180400136054665
 20
-0.5336864737123651
 30
0.0
 10
-13.10959493330441
 20
-0.5570325018164003
 30
0.0
 10
-13.041366794032498
 20
-0.5865783144076058
 30
0.0
 10
-12.976007193339639
 20
-0.622028505156952
 30
0.0
 10
-12.913809936584396
 20
-0.6630846303574273
 30
0.0
 10
-12.855067493389381
 20
-0.7094513882084656
 30
0.0
 10
-12.800071452593318
 20
-0.7608322902360682
 30
0.0
 10
-12.749114511294856
 20
-0.8169298703497296
 30
0.0
 10
-12.702489252854622
 20
-0.8774477446039146
 30
0.0
 10
-12.660489368893165
 20
-0.9420885514365807
 30
0.0
 10
-12.62340522625127
 20
-1.0105578621352054
 30
0.0
 10
-12.591531624809402
 20
-1.0825573375212398
 30
0.0
 10
-12.565160153406291
 20
-1.1577904891206863
 30
0.0
 10
-12.544582400880667
 20
-1.2359608284595442
 30
0.0
 10
-12.530092825898933
 20
-1.3167732627941757
 30
0.0
 10
-12.527405895557367
 20
-1.3988294873657772
 30
0.0
 10
-12.53123655105147
 20
-1.4795761947567752
 30
0.0
 10
-12.541359229834375
 20
-1.558662541692272
 30
0.0
 10
-12.557546607791476
 20
-1.6357353115505027
 30
0.0
 10
-12.579574571849882
 20
-1.7104394370051539
 30
0.0
 10
-12.607216451202822
 20
-1.7824250523978336
 30
0.0
 10
-12.640246029995598
 20
-1.8513379634902711
 30
0.0
 10
-12.678437973157388
 20
-1.916825162717629
 30
0.0
 10
-12.721566831879356
 20
-1.9785347246600389
 30
0.0
 10
-12.769405282046883
 20
-2.0361134326957373
 30
0.0
 10
-12.82172898311105
 20
-2.089208383788349
 30
0.0
 10
-12.878311605479137
 20
-2.137466465844573
 30
0.0
 10
-12.938927814080328
 20
-2.180534671299572
 30
0.0
 10
-13.003351051845861
 20
-2.2180620523499845
 30
0.0
 10
-13.071355216659066
 20
-2.2496933326125697
 30
0.0
 10
-13.142714745973079
 20
-2.2750776688124303
 30
0.0
 10
-13.505412802920707
 20
-2.391551599237294
 30
0.0
 10
-13.58423956752034
 20
-2.433253701500676
 30
0.0
 10
-13.643046682414692
 20
-2.4999535879830725
 30
0.0
 10
-13.67742346260221
 20
-2.584567282040749
 30
0.0
 10
-13.682961553339211
 20
-2.6800077696519855
 30
0.0
 10
-13.590064737796697
 20
-3.117052925127969
 30
0.0
 10
-13.546173183132094
 20
-3.202029963776629
 30
0.0
 10
-13.48035126064834
 20
-3.2653512977143633
 30
0.0
 10
-13.399563558725118
 20
-3.3021669763264763
 30
0.0
 10
-13.310777240341482
 20
-3.3076255973321826
 30
0.0
 10
-12.931943504861556
 20
-3.2668715044873746
 30
0.0
 10
-12.856412893427297
 20
-3.2610979714837898
 30
0.0
 10
-12.781417112677289
 20
-3.2623834217475896
 30
0.0
 10
-12.707305261310667
 20
-3.2704980537017154
 30
0.0
 10
-12.634425150726893
 20
-3.2852127916021607
 30
0.0
 10
-12.563123305025746
 20
-3.306299285537964
 30
0.0
 10
-12.493749159149525
 20
-3.333526699082027
 30
0.0
 10
-12.426650188254529
 20
-3.366666991340383
 30
0.0
 10
-12.362173252683702
 20
-3.4054907775520293
 30
0.0
 10
-12.300666500079663
 20
-3.4497679471229152
 30
0.0
 10
-12.24247774184187
 20
-3.4992694243090328
 30
0.0
 10
-12.187956076669465
 20
-3.5537654075333256
 30
0.0
 10
-12.13744674136255
 20
-3.61302827271788
 30
0.0
 10
-12.09130012191994
 20
-3.6768274924525923
 30
0.0
 10
-12.049863078684577
 20
-3.7449336819764603
 30
0.0
 10
-12.013482471999405
 20
-3.81711745652848
 30
0.0
 10
-11.982507679133755
 20
-3.8931513932486745
 30
0.0
 10
-11.962819016274011
 20
-3.972855848208237
 30
0.0
 10
-11.949777778293175
 20
-4.052634484370615
 30
0.0
 10
-11.943236276145715
 20
-4.132097228137731
 30
0.0
 10
-11.94304559115939
 20
-4.210851318177435
 30
0.0
 10
-11.949060330317833
 20
-4.288502850508476
 30
0.0
 10
-11.961131517275836
 20
-4.3646624773658225
 30
0.0
 10
-11.979111520660835
 20
-4.438936711584276
 30
0.0
 10
-12.002853323913625
 20
-4.510933409865677
 30
0.0
 10
-12.032209574231832
 20
-4.580261463761904
 30
0.0
 10
-12.06703135294322
 20
-4.646528111940807
 30
0.0
 10
-12.107172594545096
 20
-4.709341520121217
 30
0.0
 10
-12.152485331421735
 20
-4.76830923598798
 30
0.0
 10
-12.202822547013936
 20
-4.823039116242933
 30
0.0
 10
-12.258035601219643
 20
-4.873140778271004
 30
0.0
 10
-12.317977198909459
 20
-4.918219700056953
 30
0.0
 10
-12.382499651037856
 20
-4.957885808002703
 30
0.0
 10
-12.713055593421167
 20
-5.147223669872117
 30
0.0
 10
-12.781489449495673
 20
-5.2044034870562035
 30
0.0
 10
-12.82514380165975
 20
-5.281872507677976
 30
0.0
 10
-12.841177190523258
 20
-5.371784524003374
 30
0.0
 10
-12.826751067538579
 20
-5.466290841782201
 30
0.0
 10
-12.64501747306114
 20
-5.874471178032326
 30
0.0
 10
-12.584417334387354
 20
-5.948465697161041
 30
0.0
 10
-12.506868533230351
 20
-5.996718160831025
 30
0.0
 10
-12.420191826436508
 20
-6.015932620830714
 30
0.0
 10
-12.332210791008736
 20
-6.002812244294135
 30
0.0
 10
-11.970128733923126
 20
-5.884184763675463
 30
0.0
 10
-11.897449032575517
 20
-5.862833699088454
 30
0.0
 10
-11.82382482943193
 20
-5.8484985595999195
 30
0.0
 10
-11.749645372981782
 20
-5.841027147049417
 30
0.0
 10
-11.675298501636227
 20
-5.840267705603707
 30
0.0
 10
-11.601170643728146
 20
-5.846068921756748
 30
0.0
 10
-11.527651591799824
 20
-5.858277655020897
 30
0.0
 10
-11.455128640209546
 20
-5.876743091890115
 30
0.0
 10
-11.383988761343064
 20
-5.901312976531161
 30
0.0
 10
-11.314620337664387
 20
-5.931834610783591
 30
0.0
 10
-11.24741120758467
 20
-5.968156238814167
 30
0.0
 10
-11.182750619593332
 20
-6.010125662462444
 30
0.0
 10
-11.121023591944986
 20
-6.057592010549586
 30
0.0
 10
-11.062620783207324
 20
-6.110402642587946
 30
0.0
 10
-11.007929165766088
 20
-6.168405302744287
 30
0.0
 10
-10.957335712007028
 20
-6.231447735185365
 30
0.0
 10
-10.91122944833924
 20
-6.299380126405142
 30
0.0
 10
-10.875399542004976
 20
-6.373249344606523
 30
0.0
 10
-10.846056375227768
 20
-6.448573200319617
 30
0.0
 10
-10.823136587183393
 20
-6.52493943771118
 30
0.0
 10
-10.806576173102556
 20
-6.6019329162935705
 30
0.0
 10
-10.79631481439789
 20
-6.6791381109247405
 30
0.0
 10
-10.792287740166907
 20
-6.756143208098651
 30
0.0
 10
-10.794432355718579
 20
-6.832532625000457
 30
0.0
 10
-10.802686388334404
 20
-6.907892221142514
 30
0.0
 10
-10.816987021243031
 20
-6.981808798364381
 30
0.0
 10
-10.837270249675159
 20
-7.053867216178412
 30
0.0
 10
-10.863474666937694
 20
-7.123653834096964
 30
0.0
 10
-10.895537134286743
 20
-7.190754011632393
 30
0.0
 10
-10.933395379003812
 20
-7.254753608297057
 30
0.0
 10
-10.976985174239275
 20
-7.315239868257712
 30
0.0
 10
-11.02624446935496
 20
-7.3717962663723124
 30
0.0
 10
-11.081109903526652
 20
-7.424010546807618
 30
0.0
 10
-11.365076850480103
 20
-7.677937367014027
 30
0.0
 10
-11.420126910136949
 20
-7.748095866728669
 30
0.0
 10
-11.446720594904361
 20
-7.83294825355104
 30
0.0
 10
-11.443709856413788
 20
-7.924229005585017
 30
0.0
 10
-11.409950010506074
 20
-8.013670773952875
 30
0.0
 10
-11.147322267226905
 20
-8.375146851616467
 30
0.0
 10
-11.072662061395707
 20
-8.434924935674212
 30
0.0
 10
-10.986775636296453
 20
-8.465999664873062
 30
0.0
 10
-10.897998112639863
 20
-8.46677314215713
 30
0.0
 10
-10.814667553595996
 20
-8.435647191491464
 30
0.0
 10
-10.485161898261829
 20
-8.244330913239773
 30
0.0
 10
-10.418509558705658
 20
-8.208335461045568
 30
0.0
 10
-10.34947466413399
 20
-8.17900624618798
 30
0.0
 10
-10.278469600799712
 20
-8.15627532571312
 30
0.0
 10
-10.205905283726047
 20
-8.140074896156637
 30
0.0
 10
-10.132191156706543
 20
-8.130337293543704
 30
0.0
 10
-10.057740334078938
 20
-8.126993766300295
 30
0.0
 10
-9.982963002781608
 20
-8.129977319582192
 30
0.0
 10
-9.908269334692944
 20
-8.139219480794438
 30
0.0
 10
-9.834070972921017
 20
-8.15465163785253
 30
0.0
 10
-9.760778832489045
 20
-8.17620598729212
 30
0.0
 10
-9.688805299649921
 20
-8.203814586159313
 30
0.0
 10
-9.618558346967523
 20
-8.237409909968822
 30
0.0
 10
-9.550451831924411
 20
-8.276923876277227
 30
0.0
 10
-9.484895926398984
 20
-8.322288012489565
 30
0.0
 10
-9.422300802269632
 20
-8.373433846010872
 30
0.0
 10
-9.363078132764388
 20
-8.430295720258147
 30
0.0
 10
-9.312672921793375
 20
-8.495101262402112
 30
0.0
 10
-9.268310263412094
 20
-8.562678323727296
 30
0.0
 10
-9.230013894189693
 20
-8.632610483723433
 30
0.0
 10
-9.197807520575356
 20
-8.704478366378757
 30
0.0
 10
-9.171718534622437
 20
-8.77786298583305
 30
0.0
 10
-9.151769201670414
 20
-8.852348061065571
 30
0.0
 10
-9.137984699398137
 20
-8.92751407657503
 30
0.0
 10
-9.130390220544449
 20
-9.002942994610873
 30
0.0
 10
-9.129010229763338
 20
-9.078217586042692
 30
0.0
 10
-9.133868433503991
 20
-9.152918474858728
 30
0.0
 10
-9.14499076765007
 20
-9.226628292439035
 30
0.0
 10
-9.162401681795583
 20
-9.298928331902456
 30
0.0
 10
-9.186126368679373
 20
-9.369400555498446
 30
0.0
 10
-9.216187821725756
 20
-9.437627873586127
 30
0.0
 10
-9.252611946698433
 20
-9.503189962044063
 30
0.0
 10
-9.295422480166556
 20
-9.565670400361986
 30
0.0
 10
-9.520389713483684
 20
-9.873088358386298
 30
0.0
 10
-9.559650024956374
 20
-9.953159277536132
 30
0.0
 10
-9.568020770692128
 20
-10.04168657408804
 30
0.0
 10
-9.546097488566634
 20
-10.130346654953065
 30
0.0
 10
-9.494479386999771
 20
-10.210814839443053
 30
0.0
 10
-9.162435587527908
 20
-10.50978841937154
 30
0.0
 10
-9.076978323793538
 20
-10.552737479237923
 30
0.0
 10
-8.986507923657662
 20
-10.565276359186552
 30
0.0
 10
-8.89950958692394
 20
-10.547575049086127
 30
0.0
 10
-8.824471449558583
 20
-10.499803877694351
 30
0.0
 10
-8.541943174257517
 20
-10.244160241206597
 30
0.0
 10
-8.484231223564802
 20
-10.195093575391423
 30
0.0
 10
-8.422802793724012
 20
-10.152052112591246
 30
0.0
 10
-8.358075385493407
 20
-10.115055134491838
 30
0.0
 10
-8.290465031549978
 20
-10.084121753334484
 30
0.0
 10
-8.220386296489428
 20
-10.059270911915966
 30
0.0
 10
-8.148257561366052
 20
-10.040521252349558
 30
0.0
 10
-8.074493978560806
 20
-10.02789252644904
 30
0.0
 10
-7.999510992965426
 20
-10.021403037438699
 30
0.0
 10
-7.923725517552923
 20
-10.02107125798731
 30
0.0
 10
-7.847553585000282
 20
-10.026916300336158
 30
0.0
 10
-7.77141269606577
 20
-10.038957446171016
 30
0.0
 10
-7.695715947263814
 20
-10.057213468844171
 30
0.0
 10
-7.620882307433957
 20
-10.081703819485893
 30
0.0
 10
-7.547327221467935
 20
-10.112446801320473
 30
0.0
 10
-7.475466134257477
 20
-10.14946071757219
 30
0.0
 10
-7.405715373754052
 20
-10.192766938088813
 30
0.0
 10
-7.342937807736762
 20
-10.245676491012176
 30
0.0
 10
-7.285494518798323
 20
-10.302553316098823
 30
0.0
 10
-7.23349530349928
 20
-10.362995027735966
 30
0.0
 10
-7.187050543421721
 20
-10.426596343131825
 30
0.0
 10
-7.146274144095536
 20
-10.492953127400613
 30
0.0
 10
-7.111274433999991
 20
-10.561662825485039
 30
0.0
 10
-7.082163262798449
 20
-10.632320324037824
 30
0.0
 10
-7.059052187643505
 20
-10.704521958301182
 30
0.0
 10
-7.042051885391721
 20
-10.77786470308982
 30
0.0
 10
-7.031272737625184
 20
-10.851943275611964
 30
0.0
 10
-7.0268268892817405
 20
-10.92635482012682
 30
0.0
 10
-7.028825309728726
 20
-11.000694862859602
 30
0.0
 10
-7.037379556118736
 20
-11.074559739052527
 30
0.0
 10
-7.052598837227056
 20
-11.147546254075804
 30
0.0
 10
-7.074595883013077
 20
-11.219248655009661
 30
0.0
 10
-7.103480490037341
 20
-11.2892645562413
 30
0.0
 10
-7.259615862109634
 20
-11.636738012162825
 30
0.0
 10
-7.281370561394934
 20
-11.723221867358104
 30
0.0
 10
-7.271152526343082
 20
-11.811555005979127
 30
0.0
 10
-7.231274853211134
 20
-11.893719544703133
 30
0.0
 10
-7.164054454714722
 20
-11.96169729952385
 30
0.0
 10
-6.777106506410022
 20
-12.185101801639941
 30
0.0
 10
-6.684587077267121
 20
-12.209344757306344
 30
0.0
 10
-6.5934866927057065
 20
-12.202799778782772
 30
0.0
 10
-6.512069787674452
 20
-12.167397313489559
 30
0.0
 10
-6.448603598663405
 20
-12.105068750793
 30
0.0
 10
-6.225400544747174
 20
-11.79627060969797
 30
0.0
 10
-6.179151272095851
 20
-11.736277179005937
 30
0.0
 10
-6.1280140241362915
 20
-11.68140458672339
 30
0.0
 10
-6.072393169345604
 20
-11.63175849647358
 30
0.0
 10
-6.01269167543021
 20
-11.587444100906763
 30
0.0
 10
-5.949311109325843
 20
-11.548566121700215
 30
0.0
 10
-5.882656833543656
 20
-11.515229779904711
 30
0.0
 10
-5.813130821756026
 20
-11.48754071074298
 30
0.0
 10
-5.741135634932731
 20
-11.465603193319824
 30
0.0
 10
-5.667075234814238
 20
-11.449521977713035
 30
0.0
 10
-5.591352589106965
 20
-11.439402256572873
 30
0.0
 10
-5.514372066288024
 20
-11.435349693522582
 30
0.0
 10
-5.436533832522459
 20
-11.437468539266451
 30
0.0
 10
-5.358243657058066
 20
-11.44586492840071
 30
0.0
 10
-5.279904100864624
 20
-11.460643140030164
 30
0.0
 10
-5.201917724911912
 20
-11.481907453259613
 30
0.0
 10
-5.12468731634559
 20
-11.509765330402706
 30
0.0
 10
-5.05228107615716
 20
-11.548466492754512
 30
0.0
 10
-4.984267704031659
 20
-11.59215729142105
 30
0.0
 10
-4.920838257884461
 20
-11.640466961869144
 30
0.0
 10
-4.862184970225752
 20
-11.693022027329768
 30
0.0
 10
-4.808503281843729
 20
-11.749450866525326
 30
0.0
 10
-4.759982849883082
 20
-11.809382243949656
 30
0.0
 10
-4.71681730762468
 20
-11.872443153806719
 30
0.0
 10
-4.679199701051991
 20
-11.938261946418399
 30
0.0
 10
-4.647322082114438
 20
-12.006467414679058
 30
0.0
 10
-4.6213766833222
 20
-12.076686081819663
 30
0.0
 10
-4.60155695739539
 20
-12.14854721170756
 30
0.0
 10
-4.588055543580829
 20
-12.221678241119177
 30
0.0
 10
-4.581065487861988
 20
-12.295707520376403
 30
0.0
 10
-4.580777441417599
 20
-12.37026337140061
 30
0.0
 10
-4.587386031562577
 20
-12.44497234582328
 30
0.0
 10
-4.601082316212299
 20
-12.519463679111245
 30
0.0
 10
-4.681561962059559
 20
-12.891806375543577
 30
0.0
 10
-4.684860264408072
 20
-12.980923407316688
 30
0.0
 10
-4.656500025731953
 20
-13.065201805979662
 30
0.0
 10
-4.600410807263721
 20
-13.137279817951207
 30
0.0
 10
-4.5205259658113155
 20
-13.189796189023532
 30
0.0
 10
-4.095585350796938
 20
-13.327867764571028
 30
0.0
 10
-4.000047299256526
 20
-13.332345082544222
 30
0.0
 10
-3.912298454223053
 20
-13.307002292516227
 30
0.0
 10
-3.8400212903257884
 20
-13.25544592964341
 30
0.0
 10
-3.7909008266733966
 20
-13.181284032917537
 30
0.0
 10
-3.636778038645227
 20
-12.832827347758963
 30
0.0
 10
-3.60401275917879
 20
-12.764529152991733
 30
0.0
 10
-3.5654016362200345
 20
-12.700223626817477
 30
0.0
 10
-3.521318233122089
 20
-12.640098196789548
 30
0.0
 10
-3.4721348409983865
 20
-12.584339538543604
 30
0.0
 10
-3.4182224787226607
 20
-12.533133575797594
 30
0.0
 10
-3.3599557739760475
 20
-12.486667509874971
 30
0.0
 10
-3.2977059535439723
 20
-12.44512824264129
 30
0.0
 10
-3.2318451006281768
 20
-12.408701471584603
 30
0.0
 10
-3.162746570670098
 20
-12.377573646110665
 30
0.0
 10
-3.09078265478317
 20
-12.351931441855125
 30
0.0
 10
-3.016326916320519
 20
-12.33196228637134
 30
0.0
 10
-2.9397491019161848
 20
-12.317851351459563
 30
0.0
 10
-2.861424047162993
 20
-12.309786816590844
 30
0.0
 10
-2.7817238352626843
 20
-12.307954379253239
 30
0.0
 10
-2.7010205494170005
 20
-12.3125397369348
 30
0.0
 10
-2.6196858322347483
 20
-12.323731747796284
 30
0.0
 10
-2.5408154180151037
 20
-12.34653309307298
 30
0.0
 10
-2.4652044734287895
 20
-12.375128367765965
 30
0.0
 10
-2.393116967598323
 20
-12.409194632610914
 30
0.0
 10
-2.3248185824788505
 20
-12.448406539588488
 30
0.0
 10
-2.2605777524166024
 20
-12.492441222662357
 30
0.0
 10
-2.2006571742943977
 20
-12.540974990650492
 30
0.0
 10
-2.14532380230708
 20
-12.593683247451258
 30
0.0
 10
-2.0948437342331783
 20
-12.650242601340524
 30
0.0
 10
-2.049482003523213
 20
-12.710329886824063
 30
0.0
 10
-2.0095042921323323
 20
-12.773619755882537
 30
0.0
 10
-1.9751769057507533
 20
-12.839789794939414
 30
0.0
 10
-1.9467657342453144
 20
-12.908515634122965
 30
0.0
 10
-1.9245368753945435
 20
-12.979473881709062
 30
0.0
 10
-1.9087540904092657
 20
-13.052340620285769
 30
0.0
 10
-1.89968539781233
 20
-13.126791027521548
 30
0.0
 10
-1.8975947667262532
 20
-13.20250216415208
 30
0.0
 10
-1.898901339640767
 20
-13.58344093856264
 30
0.0
 10
-1.8835990934128515
 20
-13.671296304994135
 30
0.0
 10
-1.8383361296301353
 20
-13.747836593264864
 30
0.0
 10
-1.7684867338186137
 20
-13.806677923492115
 30
0.0
 10
-1.6794288003116835
 20
-13.841437693398678
 30
0.0
  0
ENDSEC
  0
SECTION
  2
OBJECTS
  0
DICTIONARY
  5
C
330
0
100
AcDbDictionary
  3
ACAD_GROUP
350
D
  3
ACAD_MLINESTYLE
350
17
  0
DICTIONARY
  5
D
330
C
100
AcDbDictionary
  0
DICTIONARY
  5
1A
330
C
100
AcDbDictionary
  0
DICTIONARY
  5
17
330
C
100
AcDbDictionary
  3
STANDARD
350
18
  0
DICTIONARY
  5
19
330
C
100
AcDbDictionary
  0
ENDSEC
  0
EOF