  0
SECTION
  2
HEADER
  9
$ACADVER
  1
AC1014
  9
$HANDSEED
  5
FFFF
  9
$MEASUREMENT
 70
     1
  0
ENDSEC
  0
SECTION
  2
TABLES
  0
TABLE
  2
VPORT
  5
8
330
0
100
AcDbSymbolTable
 70
     4
  0
VPORT
  5
2E
330
8
100
AcDbSymbolTableRecord
100
AcDbViewportTableRecord
  2
*ACTIVE
 70
     0
 10
0.0
 20
0.0
 11
1.0
 21
1.0
 12
210.0
 22
148.5
 13
0.0
 23
0.0
 14
10.0
 24
10.0
 15
10.0
 25
10.0
 16
0.0
 26
0.0
 36
1.0
 17
0.0
 27
0.0
 37
0.0
 40
341.0
 41
1.24
 42
50.0
 43
0.0
 44
0.0
 50
0.0
 51
0.0
 71
     0
 72
   100
 73
     1
 74
     3
 75
     0
 76
     0
 77
     0
 78
     0
  0
ENDTAB
  0
TABLE
  2
LTYPE
  5
5
330
0
100
AcDbSymbolTable
 70
     1
  0
LTYPE
  5
14
330
5
100
AcDbSymbolTableRecord
100
AcDbLinetypeTableRecord
  2
BYBLOCK
 70
     0
  3

 72
    65
 73
     0
 40
0.0
  0
LTYPE
  5
15
330
5
100
AcDbSymbolTableRecord
100
AcDbLinetypeTableRecord
  2
BYLAYER
 70
     0
  3

 72
    65
 73
     0
 40
0.0
  0
LTYPE
  5
16
330
5
100
AcDbSymbolTableRecord
100
AcDbLinetypeTableRecord
  2
CONTINUOUS
 70
     0
  3
Solid line
 72
    65
 73
     0
 40
0.0
  0
ENDTAB
  0
TABLE
  2
LAYER
  5
2
100
AcDbSymbolTable
 70
2
  0
LAYER
  5
50
100
AcDbSymbolTableRecord
100
AcDbLayerTableRecord
  2
0
 70
0
  6
CONTINUOUS
  0
LAYER
  5
51
100
AcDbSymbolTableRecord
100
AcDbLayerTableRecord
  2
Layer_1
 70
0
  6
CONTINUOUS
  0
ENDTAB
  0
TABLE
  2
STYLE
  5
3
330
0
100
AcDbSymbolTable
 70
     1
  0
STYLE
  5
11
330
3
100
AcDbSymbolTableRecord
100
AcDbTextStyleTableRecord
  2
STANDARD
 70
     0
 40
0.0
 41
1.0
 50
0.0
 71
     0
 42
2.5
  3
txt
  4

  0
ENDTAB
  0
TABLE
  2
VIEW
  5
6
330
0
100
AcDbSymbolTable
 70
     0
  0
ENDTAB
  0
TABLE
  2
UCS
  5
7
330
0
100
AcDbSymbolTable
 70
     0
  0
ENDTAB
  0
TABLE
  2
APPID
  5
9
330
0
100
AcDbSymbolTable
 70
     2
  0
APPID
  5
12
330
9
100
AcDbSymbolTableRecord
100
AcDbRegAppTableRecord
  2
ACAD
 70
     0
  0
ENDTAB
  0
TABLE
  2
DIMSTYLE
  5
A
330
0
100
AcDbSymbolTable
 70
     1
  0
DIMSTYLE
105
27
330
A
100
AcDbSymbolTableRecord
100
AcDbDimStyleTableRecord
  2
ISO-25
 70
     0
  3

  4

  5

  6

  7

 40
1.0
 41
2.5
 42
0.625
 43
3.75
 44
1.25
 45
0.0
 46
0.0
 47
0.0
 48
0.0
140
2.5
141
2.5
142
0.0
143
0.03937007874016
144
1.0
145
0.0
146
1.0
147
0.625
 71
     0
 72
     0
 73
     0
 74
     0
 75
     0
 76
     0
 77
     1
 78
     8
170
     0
171
     3
172
     1
173
     0
174
     0
175
     0
176
     0
177
     0
178
     0
270
     2
271
     2
272
     2
273
     2
274
     3
340
11
275
     0
280
     0
281
     0
282
     0
283
     0
284
     8
285
     0
286
     0
287
     3
288
     0
  0
ENDTAB
  0
TABLE
  2
BLOCK_RECORD
  5
1
330
0
100
AcDbSymbolTable
 70
     1
  0
BLOCK_RECORD
  5
1F
330
1
100
AcDbSymbolTableRecord
100
AcDbBlockTableRecord
  2
*MODEL_SPACE
  0
BLOCK_RECORD
  5
1B
330
1
100
AcDbSymbolTableRecord
100
AcDbBlockTableRecord
  2
*PAPER_SPACE
  0
ENDTAB
  0
ENDSEC
  0
SECTION
  2
BLOCKS
  0
BLOCK
  5
20
330
1F
100
AcDbEntity
  8
0
100
AcDbBlockBegin
  2
*MODEL_SPACE
 70
     0
 10
0.0
 20
0.0
 30
0.0
  3
*MODEL_SPACE
  1

  0
ENDBLK
  5
21
330
1F
100
AcDbEntity
  8
0
100
AcDbBlockEnd
  0
BLOCK
  5
1C
330
1B
100
AcDbEntity
 67
     1
  8
0
100
AcDbBlockBegin
  2
*PAPER_SPACE
  1

  0
ENDBLK
  5
1D
330
1B
100
AcDbEntity
 67
     1
  8
0
100
AcDbBlockEnd
  0
ENDSEC
  0
SECTION
  2
ENTITIES
  0
LWPOLYLINE
  5
100
100
AcDbEntity
  8
Layer_1
 62
7
100
AcDbPolyline
 90
860
 70
1
 10
-1.2350674625550662
 20
-9.084736500303272
 30
0.0
 10
-1.140686259911894
 20
-9.069252500303271
 30
0.0
 10
-1.060124
 20
-9.026219500303272
 30
0.0
 10
-1.0001454361233482
 20
-8.960762500303272
 30
0.0
 10
-0.9675174977973569
 20
-8.878008500303272
 30
0.0
 10
-0.8892108810572688
 20
-8.505122500303273
 30
0.0
 10
-0.8713615947136564
 20
-8.431504500303273
 30
0.0
 10
-0.8469640881057269
 20
-8.360576500303273
 30
0.0
 10
-0.8163447929515419
 20
-8.292599500303272
 30
0.0
 10
-0.7798290528634362
 20
-8.227833500303273
 30
0.0
 10
-0.7377411233480176
 20
-8.166537500303273
 30
0.0
 10
-0.6904085242290748
 20
-8.108972500303272
 30
0.0
 10
-0.6381555110132159
 20
-8.055398500303273
 30
0.0
 10
-0.5813074273127753
 20
-8.006074500303273
 30
0.0
 10
-0.520190704845815
 20
-7.961260500303272
 30
0.0
 10
-0.4551306872246696
 20
-7.921216500303272
 30
0.0
 10
-0.3864538061674009
 20
-7.886203500303272
 30
0.0
 10
-0.3144832290748899
 20
-7.856479500303272
 30
0.0
 10
-0.23954647577092514
 20
-7.832306500303272
 30
0.0
 10
-0.1619688898678414
 20
-7.813943500303272
 30
0.0
 10
-0.08207581497797356
 20
-7.801649500303272
 30
0.0
 10
-1.915066079295154E-4
 20
-7.7956865003032725
 30
0.0
 10
0.08169606607929515
 20
-7.801591500303272
 30
0.0
 10
0.16160002202643173
 20
-7.813841500303272
 30
0.0
 10
0.23919501762114537
 20
-7.832175500303272
 30
0.0
 10
0.31415353303964755
 20
-7.856330500303272
 30
0.0
 10
0.38614587224669605
 20
-7.886046500303272
 30
0.0
 10
0.45484777973568286
 20
-7.9210615003032725
 30
0.0
 10
0.5199306475770925
 20
-7.961113500303272
 30
0.0
 10
0.5810669559471365
 20
-8.005941500303273
 30
0.0
 10
0.6379302731277533
 20
-8.055284500303273
 30
0.0
 10
0.6901930792951542
 20
-8.108879500303273
 30
0.0
 10
0.7375278546255507
 20
-8.166466500303272
 30
0.0
 10
0.7796070792951543
 20
-8.227783500303271
 30
0.0
 10
0.8161032334801762
 20
-8.292569500303273
 30
0.0
 10
0.8466909735682819
 20
-8.360562500303272
 30
0.0
 10
0.8710406035242291
 20
-8.431500500303272
 30
0.0
 10
0.8888267797356829
 20
-8.505122500303273
 30
0.0
 10
0.9667503832599119
 20
-8.878008500303272
 30
0.0
 10
0.999984396475771
 20
-8.960762500303272
 30
0.0
 10
1.0601718766519823
 20
-9.026219500303272
 30
0.0
 10
1.1407286960352423
 20
-9.069252500303271
 30
0.0
 10
1.2350674625550662
 20
-9.084736500303272
 30
0.0
 10
1.632719009684979
 20
-9.021754682566915
 30
0.0
 10
1.7176960483336396
 20
-8.977863127902314
 30
0.0
 10
1.7810173822713733
 20
-8.912041205418559
 30
0.0
 10
1.817833060883487
 20
-8.831253503495336
 30
0.0
 10
1.8232916818891933
 20
-8.7424671851117
 30
0.0
 10
1.7825375890443849
 20
-8.363633449631774
 30
0.0
 10
1.7767640560408005
 20
-8.288102838197515
 30
0.0
 10
1.7780495063045998
 20
-8.213107057447507
 30
0.0
 10
1.7861641382587257
 20
-8.138995206080885
 30
0.0
 10
1.8008788761591716
 20
-8.06611509549711
 30
0.0
 10
1.8219653700949747
 20
-7.994813249795963
 30
0.0
 10
1.8491927836390372
 20
-7.925439103919742
 30
0.0
 10
1.8823330758973933
 20
-7.858340133024748
 30
0.0
 10
1.92115686210904
 20
-7.79386319745392
 30
0.0
 10
1.9654340316799257
 20
-7.732356444849881
 30
0.0
 10
2.014935508866043
 20
-7.67416768661209
 30
0.0
 10
2.069431492090336
 20
-7.619646021439684
 30
0.0
 10
2.12869435727489
 20
-7.569136686132769
 30
0.0
 10
2.1924935770096026
 20
-7.522990066690158
 30
0.0
 10
2.26059976653347
 20
-7.481553023454795
 30
0.0
 10
2.3327835410854902
 20
-7.445172416769624
 30
0.0
 10
2.408817477805685
 20
-7.414197623903973
 30
0.0
 10
2.488521932765247
 20
-7.394508961044229
 30
0.0
 10
2.568300568927625
 20
-7.381467723063392
 30
0.0
 10
2.647763312694741
 20
-7.374926220915932
 30
0.0
 10
2.7265174027344456
 20
-7.3747355359296085
 30
0.0
 10
2.804168935065486
 20
-7.380750275088051
 30
0.0
 10
2.8803285619228327
 20
-7.3928214620460535
 30
0.0
 10
2.954602796141287
 20
-7.410801465431052
 30
0.0
 10
3.0265994944226873
 20
-7.434543268683841
 30
0.0
 10
3.095927548318914
 20
-7.46389951900205
 30
0.0
 10
3.1621941964978166
 20
-7.498721297713438
 30
0.0
 10
3.2250076046782272
 20
-7.538862539315314
 30
0.0
 10
3.28397532054499
 20
-7.584175276191954
 30
0.0
 10
3.3387052007999434
 20
-7.634512491784153
 30
0.0
 10
3.3888068628280146
 20
-7.689725545989861
 30
0.0
 10
3.4338857846139637
 20
-7.749667143679677
 30
0.0
 10
3.4735518925597133
 20
-7.814189595808073
 30
0.0
 10
3.662889754429128
 20
-8.144745538191385
 30
0.0
 10
3.7200695716132137
 20
-8.213179394265891
 30
0.0
 10
3.7975385922349862
 20
-8.256833746429969
 30
0.0
 10
3.8874506085603846
 20
-8.272867135293476
 30
0.0
 10
3.981956926339212
 20
-8.258441012308797
 30
0.0
 10
4.340683569434806
 20
-8.075660658239887
 30
0.0
 10
4.40793829947618
 20
-8.0076579600917
 30
0.0
 10
4.447820374088252
 20
-7.925490223505199
 30
0.0
 10
4.457869392303358
 20
-7.83727988280402
 30
0.0
 10
4.4356243681322916
 20
-7.75115226949079
 30
0.0
 10
4.279798860260699
 20
-7.403453684049551
 30
0.0
 10
4.250967661546879
 20
-7.333403923680936
 30
0.0
 10
4.229015226638468
 20
-7.2616814717270595
 30
0.0
 10
4.2138308786789
 20
-7.188689353373213
 30
0.0
 10
4.205304233322383
 20
-7.114829145215192
 30
0.0
 10
4.203325198733891
 20
-7.040500975259297
 30
0.0
 10
4.207782217760836
 20
-6.966108508263317
 30
0.0
 10
4.218565786353449
 20
-6.892052681250548
 30
0.0
 10
4.23556493238068
 20
-6.818734261799791
 30
0.0
 10
4.258668391200713
 20
-6.74655546607934
 30
0.0
 10
4.287765778467754
 20
-6.675917870684993
 30
0.0
 10
4.322746417325234
 20
-6.607224500802035
 30
0.0
 10
4.363500508448906
 20
-6.540874035847278
 30
0.0
 10
4.409917082471431
 20
-6.4772709495955025
 30
0.0
 10
4.4618851672617605
 20
-6.41681600962551
 30
0.0
 10
4.5192937906888515
 20
-6.359909983516102
 30
0.0
 10
4.582034624273436
 20
-6.3069554263245635
 30
0.0
 10
4.6517539341203005
 20
-6.26360036410477
 30
0.0
 10
4.723597961739904
 20
-6.226544455380307
 30
0.0
 10
4.797150086670007
 20
-6.195767778892906
 30
0.0
 10
4.871990752285817
 20
-6.171250074495299
 30
0.0
 10
4.947700404726248
 20
-6.152974788236206
 30
0.0
 10
5.023862716039836
 20
-6.140920550267856
 30
0.0
 10
5.100057837091012
 20
-6.13506854903248
 30
0.0
 10
5.175867386825493
 20
-6.135400142416804
 30
0.0
 10
5.250873864485012
 20
-6.141896048735052
 30
0.0
 10
5.324657713444778
 20
-6.154536007839958
 30
0.0
 10
5.396801140435755
 20
-6.173302186635244
 30
0.0
 10
5.466885176618403
 20
-6.198175133990637
 30
0.0
 10
5.534491440938435
 20
-6.229136207792865
 30
0.0
 10
5.599202725148359
 20
-6.266164677766657
 30
0.0
 10
5.660598299816584
 20
-6.309242371926742
 30
0.0
 10
5.718261544480875
 20
-6.358349369014847
 30
0.0
 10
6.000479955581242
 20
-6.614218135022315
 30
0.0
 10
6.076008417832365
 20
-6.661633064532045
 30
0.0
 10
6.163175771402833
 20
-6.679211576712623
 30
0.0
 10
6.253641770058586
 20
-6.666675894626491
 30
0.0
 10
6.339064702247991
 20
-6.623751778087578
 30
0.0
 10
6.623751778087578
 20
-6.339064702247991
 30
0.0
 10
6.666700837953959
 20
-6.253607438513622
 30
0.0
 10
6.679239717902587
 20
-6.163137038377746
 30
0.0
 10
6.661538407802165
 20
-6.076138701644023
 30
0.0
 10
6.613767236410386
 20
-6.0011005642786674
 30
0.0
 10
6.358123599922632
 20
-5.7185722889776
 30
0.0
 10
6.309056934107459
 20
-5.660860338284886
 30
0.0
 10
6.2660154713072815
 20
-5.599431908444094
 30
0.0
 10
6.229018493207875
 20
-5.53470450021349
 30
0.0
 10
6.198085112050522
 20
-5.467094146270061
 30
0.0
 10
6.173234270632003
 20
-5.397015411209512
 30
0.0
 10
6.1544846110655955
 20
-5.324886676086135
 30
0.0
 10
6.141855885165078
 20
-5.251123093280889
 30
0.0
 10
6.135366396154734
 20
-5.17614010768551
 30
0.0
 10
6.135034616703346
 20
-5.100354632273007
 30
0.0
 10
6.140879659052194
 20
-5.024182699720366
 30
0.0
 10
6.152920804887051
 20
-4.948041810785853
 30
0.0
 10
6.171176827560206
 20
-4.872345061983898
 30
0.0
 10
6.195667178201931
 20
-4.797511422154042
 30
0.0
 10
6.226410160036508
 20
-4.723956336188017
 30
0.0
 10
6.263424076288226
 20
-4.65209524897756
 30
0.0
 10
6.306730296804849
 20
-4.582344488474136
 30
0.0
 10
6.359639849728211
 20
-4.519566922456844
 30
0.0
 10
6.416516674814859
 20
-4.462123633518407
 30
0.0
 10
6.476958386452001
 20
-4.410124418219364
 30
0.0
 10
6.540559701847862
 20
-4.3636796581418045
 30
0.0
 10
6.606916486116647
 20
-4.32290325881562
 30
0.0
 10
6.675626184201075
 20
-4.287903548720075
 30
0.0
 10
6.746283682753861
 20
-4.258792377518533
 30
0.0
 10
6.818485317017219
 20
-4.235681302363588
 30
0.0
 10
6.891828061805858
 20
-4.218681000111804
 30
0.0
 10
6.965906634328
 20
-4.207901852345267
 30
0.0
 10
7.040318178842854
 20
-4.203456004001822
 30
0.0
 10
7.114658221575637
 20
-4.20545442444881
 30
0.0
 10
7.188523097768562
 20
-4.214008670838819
 30
0.0
 10
7.261509612791841
 20
-4.22922795194714
 30
0.0
 10
7.333212013725697
 20
-4.251224997733161
 30
0.0
 10
7.403227914957337
 20
-4.280109604757424
 30
0.0
 10
7.75070137087886
 20
-4.436244976829717
 30
0.0
 10
7.83718522607414
 20
-4.4579996761150165
 30
0.0
 10
7.925518364695163
 20
-4.447781641063165
 30
0.0
 10
8.007682903419168
 20
-4.407903967931217
 30
0.0
 10
8.075660658239887
 20
-4.340683569434806
 30
0.0
 10
8.258441012308797
 20
-3.9819569263392127
 30
0.0
 10
8.272880248776765
 20
-3.887410249408748
 30
0.0
 10
8.256848541129065
 20
-3.7974930588331404
 30
0.0
 10
8.21312963027802
 20
-3.7202227294194246
 30
0.0
 10
8.144508486762682
 20
-3.66361932370871
 30
0.0
 10
7.814070901972141
 20
-3.4739171946245255
 30
0.0
 10
7.749571756173165
 20
-3.43419230144432
 30
0.0
 10
7.6896544637476065
 20
-3.389070936426468
 30
0.0
 10
7.634466377497836
 20
-3.33894420801909
 30
0.0
 10
7.584154235412869
 20
-3.28420188080327
 30
0.0
 10
7.53886416066836
 20
-3.2252323754930523
 30
0.0
 10
7.498743169823519
 20
-3.1624278353866018
 30
0.0
 10
7.463938337110522
 20
-3.096176990214959
 30
0.0
 10
7.434595449461865
 20
-3.026869295542213
 30
0.0
 10
7.410860908623402
 20
-2.9548955507994887
 30
0.0
 10
7.392881452584146
 20
-2.8806455205678705
 30
0.0
 10
7.380804434146467
 20
-2.804510313295478
 30
0.0
 10
7.374775361672668
 20
-2.7268770058293215
 30
0.0
 10
7.374942202778473
 20
-2.6481380504845577
 30
0.0
 10
7.38145074439638
 20
-2.568682902825276
 30
0.0
 10
7.3944467734588875
 20
-2.488901018415565
 30
0.0
 10
7.4140792663112025
 20
-2.409181745020455
 30
0.0
 10
7.444999906628391
 20
-2.3331267807644607
 30
0.0
 10
7.481342029258459
 20
-2.260919060964269
 30
0.0
 10
7.52275687174543
 20
-2.192787352346893
 30
0.0
 10
7.568893097033974
 20
-2.1289618733054425
 30
0.0
 10
7.619401548751984
 20
-2.069675838984094
 30
0.0
 10
7.673932849630131
 20
-2.015156672242825
 30
0.0
 10
7.732136277426439
 20
-1.9656359353417818
 30
0.0
 10
7.793662397198609
 20
-1.9213444647080618
 30
0.0
 10
7.858162110247505
 20
-1.882512061918721
 30
0.0
 10
7.925284079517795
 20
-1.849368945366869
 30
0.0
 10
7.994679821123696
 20
-1.8221462604965986
 30
0.0
 10
8.065998949066394
 20
-1.8010745347180128
 30
0.0
 10
8.138892028403593
 20
-1.7863846044582106
 30
0.0
 10
8.213009345622797
 20
-1.778304927427211
 30
0.0
 10
8.287999842238872
 20
-1.7770681007352014
 30
0.0
 10
8.36351475579584
 20
-1.782902891109197
 30
0.0
 10
8.742230133682998
 20
-1.8240212511687754
 30
0.0
 10
8.831203739507467
 20
-1.8179862186896978
 30
0.0
 10
8.912056000117655
 20
-1.7809718488695276
 30
0.0
 10
8.977876241385603
 20
-1.7176556891820034
 30
0.0
 10
9.021754682566915
 20
-1.63271900968498
 30
0.0
 10
9.084736500303272
 20
-1.2350674625550662
 30
0.0
 10
9.069252500303271
 20
-1.140686259911894
 30
0.0
 10
9.026219500303272
 20
-1.060124
 30
0.0
 10
8.960762500303272
 20
-1.0001454361233482
 30
0.0
 10
8.878008500303272
 20
-0.9675174977973569
 30
0.0
 10
8.505122500303273
 20
-0.8892108810572688
 30
0.0
 10
8.431504500303273
 20
-0.8713615947136564
 30
0.0
 10
8.360576500303273
 20
-0.8469640881057269
 30
0.0
 10
8.292599500303272
 20
-0.8163447929515419
 30
0.0
 10
8.227833500303273
 20
-0.7798290528634362
 30
0.0
 10
8.166537500303273
 20
-0.7377411233480176
 30
0.0
 10
8.108972500303272
 20
-0.6904085242290748
 30
0.0
 10
8.055398500303273
 20
-0.6381555110132159
 30
0.0
 10
8.006074500303273
 20
-0.5813074273127753
 30
0.0
 10
7.961260500303272
 20
-0.520190704845815
 30
0.0
 10
7.921216500303272
 20
-0.4551306872246696
 30
0.0
 10
7.886203500303272
 20
-0.3864538061674009
 30
0.0
 10
7.856479500303272
 20
-0.3144832290748899
 30
0.0
 10
7.832306500303272
 20
-0.23954647577092514
 30
0.0
 10
7.813943500303272
 20
-0.1619688898678414
 30
0.0
 10
7.801649500303272
 20
-0.08207581497797356
 30
0.0
 10
7.7956865003032725
 20
-1.915066079295154E-4
 30
0.0
 10
7.801591500303272
 20
0.08169606607929515
 30
0.0
 10
7.813841500303272
 20
0.16160002202643173
 30
0.0
 10
7.832175500303272
 20
0.23919501762114537
 30
0.0
 10
7.856330500303272
 20
0.31415353303964755
 30
0.0
 10
7.886046500303272
 20
0.38614587224669605
 30
0.0
 10
7.9210615003032725
 20
0.45484777973568286
 30
0.0
 10
7.961113500303272
 20
0.5199306475770925
 30
0.0
 10
8.005941500303273
 20
0.5810669559471365
 30
0.0
 10
8.055284500303273
 20
0.6379302731277533
 30
0.0
 10
8.108879500303273
 20
0.6901930792951542
 30
0.0
 10
8.166466500303272
 20
0.7375278546255507
 30
0.0
 10
8.227783500303271
 20
0.7796070792951543
 30
0.0
 10
8.292569500303273
 20
0.8161032334801762
 30
0.0
 10
8.360562500303272
 20
0.8466909735682819
 30
0.0
 10
8.431500500303272
 20
0.8710406035242291
 30
0.0
 10
8.505122500303273
 20
0.8888267797356829
 30
0.0
 10
8.878008500303272
 20
0.9667503832599119
 30
0.0
 10
8.960762500303272
 20
0.999984396475771
 30
0.0
 10
9.026219500303272
 20
1.0601718766519823
 30
0.0
 10
9.069252500303271
 20
1.1407286960352423
 30
0.0
 10
9.084736500303272
 20
1.2350674625550662
 30
0.0
 10
9.021754682566915
 20
1.6327190096849786
 30
0.0
 10
8.977863127902316
 20
1.717696048333639
 30
0.0
 10
8.912041205418559
 20
1.7810173822713729
 30
0.0
 10
8.831253503495338
 20
1.8178330608834865
 30
0.0
 10
8.7424671851117
 20
1.8232916818891927
 30
0.0
 10
8.363633449631774
 20
1.7825375890443844
 30
0.0
 10
8.288102838197515
 20
1.7767640560408
 30
0.0
 10
8.213107057447507
 20
1.7780495063045991
 30
0.0
 10
8.138995206080885
 20
1.7861641382587252
 30
0.0
 10
8.066115095497112
 20
1.800878876159171
 30
0.0
 10
7.994813249795964
 20
1.821965370094974
 30
0.0
 10
7.925439103919743
 20
1.8491927836390367
 30
0.0
 10
7.858340133024749
 20
1.8823330758973928
 30
0.0
 10
7.79386319745392
 20
1.9211568621090396
 30
0.0
 10
7.732356444849882
 20
1.965434031679925
 30
0.0
 10
7.6741676866120905
 20
2.0149355088660426
 30
0.0
 10
7.619646021439685
 20
2.0694314920903354
 30
0.0
 10
7.56913668613277
 20
2.1286943572748895
 30
0.0
 10
7.522990066690159
 20
2.192493577009602
 30
0.0
 10
7.481553023454796
 20
2.2605997665334696
 30
0.0
 10
7.4451724167696245
 20
2.33278354108549
 30
0.0
 10
7.4141976239039735
 20
2.4088174778056843
 30
0.0
 10
7.39450896104423
 20
2.4885219327652464
 30
0.0
 10
7.381467723063393
 20
2.5683005689276244
 30
0.0
 10
7.374926220915933
 20
2.6477633126947406
 30
0.0
 10
7.374735535929609
 20
2.726517402734445
 30
0.0
 10
7.380750275088052
 20
2.8041689350654857
 30
0.0
 10
7.392821462046054
 20
2.8803285619228323
 30
0.0
 10
7.410801465431053
 20
2.9546027961412866
 30
0.0
 10
7.434543268683842
 20
3.026599494422687
 30
0.0
 10
7.463899519002051
 20
3.0959275483189135
 30
0.0
 10
7.4987212977134385
 20
3.162194196497816
 30
0.0
 10
7.538862539315315
 20
3.225007604678227
 30
0.0
 10
7.584175276191955
 20
3.2839753205449895
 30
0.0
 10
7.634512491784154
 20
3.338705200799943
 30
0.0
 10
7.6897255459898615
 20
3.388806862828014
 30
0.0
 10
7.7496671436796785
 20
3.433885784613963
 30
0.0
 10
7.814189595808073
 20
3.473551892559713
 30
0.0
 10
8.144745538191385
 20
3.6628897544291275
 30
0.0
 10
8.213179394265893
 20
3.7200695716132133
 30
0.0
 10
8.256833746429969
 20
3.797538592234986
 30
0.0
 10
8.272867135293478
 20
3.8874506085603837
 30
0.0
 10
8.258441012308797
 20
3.981956926339211
 30
0.0
 10
8.075660658239887
 20
4.3406835694348045
 30
0.0
 10
8.0076579600917
 20
4.4079382994761795
 30
0.0
 10
7.925490223505199
 20
4.447820374088251
 30
0.0
 10
7.83727988280402
 20
4.457869392303357
 30
0.0
 10
7.751152269490789
 20
4.4356243681322916
 30
0.0
 10
7.403453684049551
 20
4.279798860260698
 30
0.0
 10
7.333403923680936
 20
4.250967661546877
 30
0.0
 10
7.2616814717270595
 20
4.229015226638467
 30
0.0
 10
7.188689353373213
 20
4.213830878678899
 30
0.0
 10
7.114829145215192
 20
4.205304233322382
 30
0.0
 10
7.040500975259297
 20
4.20332519873389
 30
0.0
 10
6.966108508263317
 20
4.207782217760835
 30
0.0
 10
6.892052681250548
 20
4.218565786353448
 30
0.0
 10
6.818734261799791
 20
4.235564932380679
 30
0.0
 10
6.74655546607934
 20
4.258668391200712
 30
0.0
 10
6.675917870684993
 20
4.287765778467753
 30
0.0
 10
6.607224500802035
 20
4.3227464173252335
 30
0.0
 10
6.540874035847278
 20
4.363500508448906
 30
0.0
 10
6.4772709495955025
 20
4.409917082471431
 30
0.0
 10
6.41681600962551
 20
4.4618851672617605
 30
0.0
 10
6.359909983516102
 20
4.519293790688851
 30
0.0
 10
6.3069554263245635
 20
4.582034624273435
 30
0.0
 10
6.26360036410477
 20
4.6517539341203005
 30
0.0
 10
6.226544455380307
 20
4.7235979617399035
 30
0.0
 10
6.195767778892906
 20
4.7971500866700065
 30
0.0
 10
6.171250074495299
 20
4.871990752285816
 30
0.0
 10
6.152974788236206
 20
4.947700404726247
 30
0.0
 10
6.140920550267856
 20
5.023862716039835
 30
0.0
 10
6.13506854903248
 20
5.100057837091011
 30
0.0
 10
6.135400142416804
 20
5.175867386825492
 30
0.0
 10
6.141896048735052
 20
5.250873864485011
 30
0.0
 10
6.154536007839958
 20
5.324657713444777
 30
0.0
 10
6.173302186635244
 20
5.396801140435754
 30
0.0
 10
6.198175133990637
 20
5.466885176618403
 30
0.0
 10
6.229136207792865
 20
5.534491440938434
 30
0.0
 10
6.266164677766657
 20
5.599202725148358
 30
0.0
 10
6.309242371926742
 20
5.660598299816583
 30
0.0
 10
6.358349369014847
 20
5.718261544480874
 30
0.0
 10
6.614218135022315
 20
6.000479955581241
 30
0.0
 10
6.661633064532045
 20
6.076008417832364
 30
0.0
 10
6.679211576712623
 20
6.163175771402832
 30
0.0
 10
6.666675894626491
 20
6.253641770058586
 30
0.0
 10
6.623751778087578
 20
6.339064702247989
 30
0.0
 10
6.339064702247992
 20
6.623751778087577
 30
0.0
 10
6.253607438513622
 20
6.666700837953958
 30
0.0
 10
6.163137038377748
 20
6.679239717902586
 30
0.0
 10
6.076138701644023
 20
6.661538407802164
 30
0.0
 10
6.0011005642786674
 20
6.613767236410385
 30
0.0
 10
5.718572288977601
 20
6.3581235999226315
 30
0.0
 10
5.660860338284887
 20
6.309056934107458
 30
0.0
 10
5.599431908444095
 20
6.266015471307281
 30
0.0
 10
5.534704500213491
 20
6.2290184932078745
 30
0.0
 10
5.467094146270062
 20
6.198085112050521
 30
0.0
 10
5.397015411209513
 20
6.173234270632002
 30
0.0
 10
5.324886676086136
 20
6.154484611065595
 30
0.0
 10
5.25112309328089
 20
6.141855885165077
 30
0.0
 10
5.1761401076855105
 20
6.135366396154733
 30
0.0
 10
5.100354632273008
 20
6.135034616703345
 30
0.0
 10
5.024182699720367
 20
6.140879659052193
 30
0.0
 10
4.9480418107858535
 20
6.15292080488705
 30
0.0
 10
4.872345061983898
 20
6.171176827560205
 30
0.0
 10
4.797511422154042
 20
6.19566717820193
 30
0.0
 10
4.723956336188017
 20
6.226410160036507
 30
0.0
 10
4.652095248977561
 20
6.263424076288225
 30
0.0
 10
4.582344488474137
 20
6.306730296804848
 30
0.0
 10
4.519566922456845
 20
6.359639849728211
 30
0.0
 10
4.462123633518408
 20
6.416516674814858
 30
0.0
 10
4.410124418219365
 20
6.476958386452
 30
0.0
 10
4.363679658141805
 20
6.540559701847861
 30
0.0
 10
4.32290325881562
 20
6.606916486116647
 30
0.0
 10
4.287903548720076
 20
6.675626184201074
 30
0.0
 10
4.2587923775185335
 20
6.74628368275386
 30
0.0
 10
4.235681302363589
 20
6.818485317017218
 30
0.0
 10
4.218681000111805
 20
6.891828061805857
 30
0.0
 10
4.207901852345268
 20
6.965906634327999
 30
0.0
 10
4.203456004001824
 20
7.040318178842854
 30
0.0
 10
4.20545442444881
 20
7.114658221575636
 30
0.0
 10
4.21400867083882
 20
7.188523097768561
 30
0.0
 10
4.2292279519471405
 20
7.261509612791841
 30
0.0
 10
4.2512249977331615
 20
7.333212013725696
 30
0.0
 10
4.280109604757425
 20
7.403227914957336
 30
0.0
 10
4.436244976829718
 20
7.7507013708788595
 30
0.0
 10
4.457999676115017
 20
7.837185226074139
 30
0.0
 10
4.447781641063167
 20
7.925518364695162
 30
0.0
 10
4.407903967931218
 20
8.007682903419168
 30
0.0
 10
4.340683569434807
 20
8.075660658239885
 30
0.0
 10
3.9819569263392127
 20
8.258441012308797
 30
0.0
 10
3.887410249408749
 20
8.272880248776765
 30
0.0
 10
3.7974930588331413
 20
8.256848541129065
 30
0.0
 10
3.720222729419425
 20
8.21312963027802
 30
0.0
 10
3.6636193237087102
 20
8.144508486762682
 30
0.0
 10
3.473917194624526
 20
7.814070901972141
 30
0.0
 10
3.4341923014443205
 20
7.749571756173165
 30
0.0
 10
3.3890709364264686
 20
7.6896544637476065
 30
0.0
 10
3.3389442080190905
 20
7.634466377497836
 30
0.0
 10
3.28420188080327
 20
7.584154235412869
 30
0.0
 10
3.2252323754930527
 20
7.53886416066836
 30
0.0
 10
3.162427835386602
 20
7.498743169823519
 30
0.0
 10
3.0961769902149596
 20
7.463938337110522
 30
0.0
 10
3.0268692955422134
 20
7.434595449461865
 30
0.0
 10
2.954895550799489
 20
7.410860908623402
 30
0.0
 10
2.880645520567871
 20
7.392881452584146
 30
0.0
 10
2.8045103132954785
 20
7.380804434146467
 30
0.0
 10
2.726877005829322
 20
7.374775361672668
 30
0.0
 10
2.648138050484558
 20
7.374942202778473
 30
0.0
 10
2.5686829028252762
 20
7.38145074439638
 30
0.0
 10
2.4889010184155653
 20
7.3944467734588875
 30
0.0
 10
2.4091817450204553
 20
7.4140792663112025
 30
0.0
 10
2.333126780764461
 20
7.444999906628391
 30
0.0
 10
2.2609190609642695
 20
7.481342029258459
 30
0.0
 10
2.1927873523468935
 20
7.52275687174543
 30
0.0
 10
2.128961873305443
 20
7.568893097033974
 30
0.0
 10
2.0696758389840944
 20
7.619401548751984
 30
0.0
 10
2.0151566722428256
 20
7.673932849630131
 30
0.0
 10
1.9656359353417823
 20
7.732136277426439
 30
0.0
 10
1.9213444647080622
 20
7.793662397198609
 30
0.0
 10
1.8825120619187214
 20
7.858162110247505
 30
0.0
 10
1.8493689453668694
 20
7.925284079517795
 30
0.0
 10
1.822146260496599
 20
7.994679821123696
 30
0.0
 10
1.8010745347180133
 20
8.065998949066394
 30
0.0
 10
1.786384604458211
 20
8.138892028403593
 30
0.0
 10
1.7783049274272114
 20
8.213009345622797
 30
0.0
 10
1.7770681007352018
 20
8.287999842238872
 30
0.0
 10
1.7829028911091975
 20
8.36351475579584
 30
0.0
 10
1.824021251168776
 20
8.742230133682998
 30
0.0
 10
1.8179862186896982
 20
8.831203739507467
 30
0.0
 10
1.780971848869528
 20
8.912056000117655
 30
0.0
 10
1.7176556891820038
 20
8.977876241385603
 30
0.0
 10
1.6327190096849804
 20
9.021754682566915
 30
0.0
 10
1.2350674625550662
 20
9.084736500303272
 30
0.0
 10
1.140686259911894
 20
9.069252500303271
 30
0.0
 10
1.060124
 20
9.026219500303272
 30
0.0
 10
1.0001454361233482
 20
8.960762500303272
 30
0.0
 10
0.9675174977973569
 20
8.878008500303272
 30
0.0
 10
0.8892108810572688
 20
8.505122500303273
 30
0.0
 10
0.8713615947136564
 20
8.431504500303273
 30
0.0
 10
0.8469640881057269
 20
8.360576500303273
 30
0.0
 10
0.8163447929515419
 20
8.292599500303272
 30
0.0
 10
0.7798290528634362
 20
8.227833500303273
 30
0.0
 10
0.7377411233480176
 20
8.166537500303273
 30
0.0
 10
0.6904085242290748
 20
8.108972500303272
 30
0.0
 10
0.6381555110132159
 20
8.055398500303273
 30
0.0
 10
0.5813074273127753
 20
8.006074500303273
 30
0.0
 10
0.520190704845815
 20
7.961260500303272
 30
0.0
 10
0.4551306872246696
 20
7.921216500303272
 30
0.0
 10
0.3864538061674009
 20
7.886203500303272
 30
0.0
 10
0.3144832290748899
 20
7.856479500303272
 30
0.0
 10
0.23954647577092514
 20
7.832306500303272
 30
0.0
 10
0.1619688898678414
 20
7.813943500303272
 30
0.0
 10
0.08207581497797356
 20
7.801649500303272
 30
0.0
 10
1.915066079295154E-4
 20
7.7956865003032725
 30
0.0
 10
-0.08169606607929515
 20
7.801591500303272
 30
0.0
 10
-0.16160002202643173
 20
7.813841500303272
 30
0.0
 10
-0.23919501762114537
 20
7.832175500303272
 30
0.0
 10
-0.31415353303964755
 20
7.856330500303272
 30
0.0
 10
-0.38614587224669605
 20
7.886046500303272
 30
0.0
 10
-0.45484777973568286
 20
7.9210615003032725
 30
0.0
 10
-0.5199306475770925
 20
7.961113500303272
 30
0.0
 10
-0.5810669559471365
 20
8.005941500303273
 30
0.0
 10
-0.6379302731277533
 20
8.055284500303273
 30
0.0
 10
-0.6901930792951542
 20
8.108879500303273
 30
0.0
 10
-0.7375278546255507
 20
8.166466500303272
 30
0.0
 10
-0.7796070792951543
 20
8.227783500303271
 30
0.0
 10
-0.8161032334801762
 20
8.292569500303273
 30
0.0
 10
-0.8466909735682819
 20
8.360562500303272
 30
0.0
 10
-0.8710406035242291
 20
8.431500500303272
 30
0.0
 10
-0.8888267797356829
 20
8.505122500303273
 30
0.0
 10
-0.9667503832599119
 20
8.878008500303272
 30
0.0
 10
-0.999984396475771
 20
8.960762500303272
 30
0.0
 10
-1.0601718766519823
 20
9.026219500303272
 30
0.0
 10
-1.1407286960352423
 20
9.069252500303271
 30
0.0
 10
-1.2350674625550662
 20
9.084736500303272
 30
0.0
 10
-1.6327190096849782
 20
9.021754682566915
 30
0.0
 10
-1.7176960483336385
 20
8.977863127902316
 30
0.0
 10
-1.7810173822713724
 20
8.912041205418559
 30
0.0
 10
-1.817833060883486
 20
8.831253503495338
 30
0.0
 10
-1.8232916818891922
 20
8.7424671851117
 30
0.0
 10
-1.782537589044384
 20
8.363633449631774
 30
0.0
 10
-1.7767640560407996
 20
8.288102838197515
 30
0.0
 10
-1.7780495063045987
 20
8.213107057447507
 30
0.0
 10
-1.7861641382587248
 20
8.138995206080885
 30
0.0
 10
-1.8008788761591705
 20
8.066115095497112
 30
0.0
 10
-1.8219653700949736
 20
7.994813249795964
 30
0.0
 10
-1.8491927836390363
 20
7.925439103919743
 30
0.0
 10
-1.8823330758973924
 20
7.858340133024749
 30
0.0
 10
-1.9211568621090391
 20
7.79386319745392
 30
0.0
 10
-1.9654340316799246
 20
7.732356444849882
 30
0.0
 10
-2.014935508866042
 20
7.6741676866120905
 30
0.0
 10
-2.069431492090335
 20
7.619646021439685
 30
0.0
 10
-2.128694357274889
 20
7.56913668613277
 30
0.0
 10
-2.1924935770096017
 20
7.522990066690159
 30
0.0
 10
-2.2605997665334696
 20
7.481553023454796
 30
0.0
 10
-2.3327835410854894
 20
7.4451724167696245
 30
0.0
 10
-2.408817477805684
 20
7.4141976239039735
 30
0.0
 10
-2.488521932765246
 20
7.39450896104423
 30
0.0
 10
-2.568300568927624
 20
7.381467723063394
 30
0.0
 10
-2.64776331269474
 20
7.374926220915933
 30
0.0
 10
-2.7265174027344448
 20
7.374735535929609
 30
0.0
 10
-2.8041689350654853
 20
7.380750275088052
 30
0.0
 10
-2.880328561922832
 20
7.392821462046054
 30
0.0
 10
-2.954602796141286
 20
7.410801465431053
 30
0.0
 10
-3.026599494422687
 20
7.434543268683842
 30
0.0
 10
-3.0959275483189135
 20
7.463899519002051
 30
0.0
 10
-3.1621941964978157
 20
7.4987212977134385
 30
0.0
 10
-3.2250076046782263
 20
7.538862539315315
 30
0.0
 10
-3.2839753205449895
 20
7.584175276191955
 30
0.0
 10
-3.3387052007999425
 20
7.634512491784154
 30
0.0
 10
-3.388806862828014
 20
7.6897255459898615
 30
0.0
 10
-3.4338857846139628
 20
7.7496671436796785
 30
0.0
 10
-3.4735518925597124
 20
7.814189595808073
 30
0.0
 10
-3.662889754429127
 20
8.144745538191385
 30
0.0
 10
-3.7200695716132133
 20
8.213179394265893
 30
0.0
 10
-3.797538592234986
 20
8.256833746429969
 30
0.0
 10
-3.8874506085603837
 20
8.272867135293478
 30
0.0
 10
-3.981956926339211
 20
8.258441012308797
 30
0.0
 10
-4.340683569434804
 20
8.075660658239887
 30
0.0
 10
-4.4079382994761795
 20
8.0076579600917
 30
0.0
 10
-4.447820374088251
 20
7.9254902235052
 30
0.0
 10
-4.457869392303357
 20
7.837279882804021
 30
0.0
 10
-4.435624368132291
 20
7.75115226949079
 30
0.0
 10
-4.279798860260698
 20
7.403453684049552
 30
0.0
 10
-4.250967661546877
 20
7.333403923680937
 30
0.0
 10
-4.229015226638467
 20
7.26168147172706
 30
0.0
 10
-4.213830878678898
 20
7.1886893533732135
 30
0.0
 10
-4.205304233322382
 20
7.114829145215193
 30
0.0
 10
-4.20332519873389
 20
7.040500975259298
 30
0.0
 10
-4.207782217760835
 20
6.966108508263318
 30
0.0
 10
-4.218565786353448
 20
6.892052681250549
 30
0.0
 10
-4.235564932380679
 20
6.818734261799792
 30
0.0
 10
-4.258668391200712
 20
6.746555466079341
 30
0.0
 10
-4.287765778467753
 20
6.6759178706849935
 30
0.0
 10
-4.3227464173252335
 20
6.607224500802036
 30
0.0
 10
-4.363500508448905
 20
6.5408740358472786
 30
0.0
 10
-4.40991708247143
 20
6.477270949595503
 30
0.0
 10
-4.46188516726176
 20
6.416816009625511
 30
0.0
 10
-4.519293790688851
 20
6.359909983516102
 30
0.0
 10
-4.582034624273435
 20
6.306955426324564
 30
0.0
 10
-4.6517539341203005
 20
6.263600364104771
 30
0.0
 10
-4.7235979617399035
 20
6.226544455380308
 30
0.0
 10
-4.7971500866700065
 20
6.195767778892907
 30
0.0
 10
-4.871990752285816
 20
6.1712500744953
 30
0.0
 10
-4.947700404726247
 20
6.1529747882362065
 30
0.0
 10
-5.023862716039835
 20
6.1409205502678565
 30
0.0
 10
-5.100057837091011
 20
6.135068549032481
 30
0.0
 10
-5.175867386825492
 20
6.135400142416805
 30
0.0
 10
-5.250873864485012
 20
6.1418960487350525
 30
0.0
 10
-5.324657713444777
 20
6.154536007839959
 30
0.0
 10
-5.3968011404357545
 20
6.173302186635245
 30
0.0
 10
-5.466885176618403
 20
6.198175133990638
 30
0.0
 10
-5.534491440938434
 20
6.229136207792866
 30
0.0
 10
-5.599202725148358
 20
6.266164677766659
 30
0.0
 10
-5.660598299816583
 20
6.309242371926743
 30
0.0
 10
-5.718261544480875
 20
6.358349369014848
 30
0.0
 10
-6.000479955581241
 20
6.614218135022316
 30
0.0
 10
-6.076008417832364
 20
6.661633064532046
 30
0.0
 10
-6.163175771402832
 20
6.679211576712624
 30
0.0
 10
-6.253641770058586
 20
6.666675894626492
 30
0.0
 10
-6.33906470224799
 20
6.623751778087579
 30
0.0
 10
-6.623751778087577
 20
6.339064702247992
 30
0.0
 10
-6.666700837953958
 20
6.253607438513622
 30
0.0
 10
-6.679239717902586
 20
6.163137038377748
 30
0.0
 10
-6.661538407802164
 20
6.076138701644023
 30
0.0
 10
-6.613767236410385
 20
6.0011005642786674
 30
0.0
 10
-6.3581235999226315
 20
5.718572288977601
 30
0.0
 10
-6.309056934107458
 20
5.660860338284887
 30
0.0
 10
-6.266015471307281
 20
5.599431908444095
 30
0.0
 10
-6.2290184932078745
 20
5.534704500213491
 30
0.0
 10
-6.198085112050521
 20
5.467094146270062
 30
0.0
 10
-6.173234270632002
 20
5.397015411209513
 30
0.0
 10
-6.154484611065595
 20
5.324886676086136
 30
0.0
 10
-6.141855885165077
 20
5.25112309328089
 30
0.0
 10
-6.135366396154733
 20
5.1761401076855105
 30
0.0
 10
-6.135034616703345
 20
5.100354632273008
 30
0.0
 10
-6.140879659052193
 20
5.024182699720367
 30
0.0
 10
-6.15292080488705
 20
4.9480418107858535
 30
0.0
 10
-6.171176827560205
 20
4.872345061983898
 30
0.0
 10
-6.19566717820193
 20
4.797511422154042
 30
0.0
 10
-6.226410160036507
 20
4.723956336188017
 30
0.0
 10
-6.263424076288225
 20
4.652095248977561
 30
0.0
 10
-6.306730296804848
 20
4.582344488474137
 30
0.0
 10
-6.359639849728211
 20
4.519566922456845
 30
0.0
 10
-6.416516674814858
 20
4.462123633518408
 30
0.0
 10
-6.476958386452
 20
4.410124418219365
 30
0.0
 10
-6.540559701847861
 20
4.363679658141805
 30
0.0
 10
-6.606916486116647
 20
4.32290325881562
 30
0.0
 10
-6.675626184201074
 20
4.287903548720076
 30
0.0
 10
-6.74628368275386
 20
4.2587923775185335
 30
0.0
 10
-6.818485317017218
 20
4.235681302363589
 30
0.0
 10
-6.891828061805857
 20
4.218681000111805
 30
0.0
 10
-6.965906634327999
 20
4.207901852345268
 30
0.0
 10
-7.040318178842854
 20
4.203456004001824
 30
0.0
 10
-7.114658221575636
 20
4.20545442444881
 30
0.0
 10
-7.188523097768561
 20
4.21400867083882
 30
0.0
 10
-7.261509612791841
 20
4.2292279519471405
 30
0.0
 10
-7.333212013725696
 20
4.2512249977331615
 30
0.0
 10
-7.403227914957336
 20
4.280109604757425
 30
0.0
 10
-7.7507013708788595
 20
4.436244976829718
 30
0.0
 10
-7.837185226074139
 20
4.457999676115017
 30
0.0
 10
-7.925518364695162
 20
4.447781641063167
 30
0.0
 10
-8.007682903419168
 20
4.407903967931218
 30
0.0
 10
-8.075660658239885
 20
4.340683569434807
 30
0.0
 10
-8.258441012308797
 20
3.9819569263392136
 30
0.0
 10
-8.272880248776765
 20
3.887410249408749
 30
0.0
 10
-8.256848541129065
 20
3.7974930588331413
 30
0.0
 10
-8.21312963027802
 20
3.720222729419426
 30
0.0
 10
-8.144508486762682
 20
3.6636193237087107
 30
0.0
 10
-7.814070901972141
 20
3.4739171946245264
 30
0.0
 10
-7.749571756173165
 20
3.434192301444321
 30
0.0
 10
-7.6896544637476065
 20
3.389070936426469
 30
0.0
 10
-7.634466377497836
 20
3.338944208019091
 30
0.0
 10
-7.584154235412869
 20
3.2842018808032707
 30
0.0
 10
-7.53886416066836
 20
3.225232375493053
 30
0.0
 10
-7.498743169823519
 20
3.1624278353866027
 30
0.0
 10
-7.463938337110522
 20
3.09617699021496
 30
0.0
 10
-7.434595449461865
 20
3.026869295542214
 30
0.0
 10
-7.410860908623402
 20
2.9548955507994896
 30
0.0
 10
-7.392881452584146
 20
2.8806455205678714
 30
0.0
 10
-7.380804434146467
 20
2.804510313295479
 30
0.0
 10
-7.374775361672668
 20
2.7268770058293224
 30
0.0
 10
-7.374942202778473
 20
2.6481380504845586
 30
0.0
 10
-7.38145074439638
 20
2.5686829028252767
 30
0.0
 10
-7.3944467734588875
 20
2.4889010184155658
 30
0.0
 10
-7.4140792663112025
 20
2.409181745020456
 30
0.0
 10
-7.444999906628391
 20
2.3331267807644616
 30
0.0
 10
-7.481342029258459
 20
2.26091906096427
 30
0.0
 10
-7.52275687174543
 20
2.192787352346894
 30
0.0
 10
-7.568893097033974
 20
2.1289618733054434
 30
0.0
 10
-7.619401548751984
 20
2.069675838984095
 30
0.0
 10
-7.673932849630131
 20
2.015156672242826
 30
0.0
 10
-7.732136277426439
 20
1.9656359353417827
 30
0.0
 10
-7.793662397198609
 20
1.9213444647080626
 30
0.0
 10
-7.858162110247505
 20
1.882512061918722
 30
0.0
 10
-7.925284079517795
 20
1.8493689453668698
 30
0.0
 10
-7.994679821123696
 20
1.8221462604965994
 30
0.0
 10
-8.065998949066394
 20
1.8010745347180137
 30
0.0
 10
-8.138892028403593
 20
1.7863846044582115
 30
0.0
 10
-8.213009345622797
 20
1.7783049274272118
 30
0.0
 10
-8.287999842238872
 20
1.7770681007352027
 30
0.0
 10
-8.363514755795842
 20
1.782902891109198
 30
0.0
 10
-8.742230133682998
 20
1.8240212511687763
 30
0.0
 10
-8.831203739507467
 20
1.8179862186896991
 30
0.0
 10
-8.912056000117655
 20
1.7809718488695285
 30
0.0
 10
-8.977876241385603
 20
1.7176556891820043
 30
0.0
 10
-9.021754682566915
 20
1.6327190096849808
 30
0.0
 10
-9.084736500303272
 20
1.2350674625550662
 30
0.0
 10
-9.069252500303271
 20
1.140686259911894
 30
0.0
 10
-9.026219500303272
 20
1.060124
 30
0.0
 10
-8.960762500303272
 20
1.0001454361233482
 30
0.0
 10
-8.878008500303272
 20
0.9675174977973569
 30
0.0
 10
-8.505122500303273
 20
0.8892108810572688
 30
0.0
 10
-8.431504500303273
 20
0.8713615947136564
 30
0.0
 10
-8.360576500303273
 20
0.8469640881057269
 30
0.0
 10
-8.292599500303272
 20
0.8163447929515419
 30
0.0
 10
-8.227833500303273
 20
0.7798290528634362
 30
0.0
 10
-8.166537500303273
 20
0.7377411233480176
 30
0.0
 10
-8.108972500303272
 20
0.6904085242290748
 30
0.0
 10
-8.055398500303273
 20
0.6381555110132159
 30
0.0
 10
-8.006074500303273
 20
0.5813074273127753
 30
0.0
 10
-7.961260500303272
 20
0.520190704845815
 30
0.0
 10
-7.921216500303272
 20
0.4551306872246696
 30
0.0
 10
-7.886203500303272
 20
0.3864538061674009
 30
0.0
 10
-7.856479500303272
 20
0.3144832290748899
 30
0.0
 10
-7.832306500303272
 20
0.23954647577092514
 30
0.0
 10
-7.813943500303272
 20
0.1619688898678414
 30
0.0
 10
-7.801649500303272
 20
0.08207581497797356
 30
0.0
 10
-7.7956865003032725
 20
1.915066079295154E-4
 30
0.0
 10
-7.801591500303272
 20
-0.08169606607929515
 30
0.0
 10
-7.813841500303272
 20
-0.16160002202643173
 30
0.0
 10
-7.832175500303272
 20
-0.23919501762114537
 30
0.0
 10
-7.856330500303272
 20
-0.31415353303964755
 30
0.0
 10
-7.886046500303272
 20
-0.38614587224669605
 30
0.0
 10
-7.9210615003032725
 20
-0.45484777973568286
 30
0.0
 10
-7.961113500303272
 20
-0.5199306475770925
 30
0.0
 10
-8.005941500303273
 20
-0.5810669559471365
 30
0.0
 10
-8.055284500303273
 20
-0.6379302731277533
 30
0.0
 10
-8.108879500303273
 20
-0.6901930792951542
 30
0.0
 10
-8.166466500303272
 20
-0.7375278546255507
 30
0.0
 10
-8.227783500303271
 20
-0.7796070792951543
 30
0.0
 10
-8.292569500303273
 20
-0.8161032334801762
 30
0.0
 10
-8.360562500303272
 20
-0.8466909735682819
 30
0.0
 10
-8.431500500303272
 20
-0.8710406035242291
 30
0.0
 10
-8.505122500303273
 20
-0.8888267797356829
 30
0.0
 10
-8.878008500303272
 20
-0.9667503832599119
 30
0.0
 10
-8.960762500303272
 20
-0.999984396475771
 30
0.0
 10
-9.026219500303272
 20
-1.0601718766519823
 30
0.0
 10
-9.069252500303271
 20
-1.1407286960352423
 30
0.0
 10
-9.084736500303272
 20
-1.2350674625550662
 30
0.0
 10
-9.021754682566915
 20
-1.6327190096849777
 30
0.0
 10
-8.977863127902314
 20
-1.7176960483336376
 30
0.0
 10
-8.912041205418559
 20
-1.781017382271372
 30
0.0
 10
-8.831253503495338
 20
-1.8178330608834856
 30
0.0
 10
-8.7424671851117
 20
-1.8232916818891918
 30
0.0
 10
-8.363633449631774
 20
-1.7825375890443835
 30
0.0
 10
-8.288102838197515
 20
-1.7767640560407991
 30
0.0
 10
-8.213107057447507
 20
-1.7780495063045982
 30
0.0
 10
-8.138995206080885
 20
-1.7861641382587243
 30
0.0
 10
-8.066115095497112
 20
-1.80087887615917
 30
0.0
 10
-7.994813249795964
 20
-1.8219653700949732
 30
0.0
 10
-7.925439103919743
 20
-1.8491927836390358
 30
0.0
 10
-7.858340133024749
 20
-1.882333075897392
 30
0.0
 10
-7.79386319745392
 20
-1.9211568621090387
 30
0.0
 10
-7.732356444849882
 20
-1.9654340316799241
 30
0.0
 10
-7.6741676866120905
 20
-2.0149355088660417
 30
0.0
 10
-7.619646021439685
 20
-2.0694314920903345
 30
0.0
 10
-7.56913668613277
 20
-2.128694357274889
 30
0.0
 10
-7.522990066690159
 20
-2.1924935770096012
 30
0.0
 10
-7.481553023454796
 20
-2.260599766533469
 30
0.0
 10
-7.4451724167696245
 20
-2.332783541085489
 30
0.0
 10
-7.4141976239039735
 20
-2.4088174778056834
 30
0.0
 10
-7.39450896104423
 20
-2.4885219327652455
 30
0.0
 10
-7.381467723063394
 20
-2.5683005689276235
 30
0.0
 10
-7.374926220915933
 20
-2.6477633126947397
 30
0.0
 10
-7.374735535929609
 20
-2.7265174027344443
 30
0.0
 10
-7.380750275088052
 20
-2.804168935065485
 30
0.0
 10
-7.392821462046054
 20
-2.8803285619228314
 30
0.0
 10
-7.410801465431053
 20
-2.9546027961412857
 30
0.0
 10
-7.434543268683842
 20
-3.026599494422686
 30
0.0
 10
-7.463899519002051
 20
-3.0959275483189126
 30
0.0
 10
-7.4987212977134385
 20
-3.1621941964978153
 30
0.0
 10
-7.538862539315315
 20
-3.225007604678226
 30
0.0
 10
-7.584175276191955
 20
-3.2839753205449886
 30
0.0
 10
-7.634512491784154
 20
-3.338705200799942
 30
0.0
 10
-7.6897255459898615
 20
-3.3888068628280132
 30
0.0
 10
-7.7496671436796785
 20
-3.4338857846139623
 30
0.0
 10
-7.814189595808073
 20
-3.473551892559712
 30
0.0
 10
-8.144745538191385
 20
-3.6628897544291266
 30
0.0
 10
-8.213179394265893
 20
-3.7200695716132124
 30
0.0
 10
-8.256833746429969
 20
-3.797538592234985
 30
0.0
 10
-8.272867135293478
 20
-3.887450608560383
 30
0.0
 10
-8.258441012308797
 20
-3.98195692633921
 30
0.0
 10
-8.075660658239887
 20
-4.340683569434804
 30
0.0
 10
-8.0076579600917
 20
-4.407938299476178
 30
0.0
 10
-7.9254902235052
 20
-4.44782037408825
 30
0.0
 10
-7.837279882804021
 20
-4.4578693923033565
 30
0.0
 10
-7.75115226949079
 20
-4.43562436813229
 30
0.0
 10
-7.403453684049552
 20
-4.279798860260697
 30
0.0
 10
-7.333403923680937
 20
-4.250967661546876
 30
0.0
 10
-7.26168147172706
 20
-4.229015226638466
 30
0.0
 10
-7.1886893533732135
 20
-4.213830878678898
 30
0.0
 10
-7.114829145215193
 20
-4.205304233322381
 30
0.0
 10
-7.040500975259298
 20
-4.203325198733889
 30
0.0
 10
-6.966108508263318
 20
-4.207782217760834
 30
0.0
 10
-6.892052681250549
 20
-4.218565786353446
 30
0.0
 10
-6.818734261799792
 20
-4.2355649323806785
 30
0.0
 10
-6.746555466079341
 20
-4.258668391200711
 30
0.0
 10
-6.6759178706849935
 20
-4.287765778467751
 30
0.0
 10
-6.607224500802036
 20
-4.322746417325233
 30
0.0
 10
-6.5408740358472786
 20
-4.3635005084489045
 30
0.0
 10
-6.477270949595503
 20
-4.409917082471429
 30
0.0
 10
-6.416816009625511
 20
-4.461885167261759
 30
0.0
 10
-6.359909983516102
 20
-4.51929379068885
 30
0.0
 10
-6.306955426324564
 20
-4.582034624273434
 30
0.0
 10
-6.263600364104771
 20
-4.6517539341203
 30
0.0
 10
-6.226544455380308
 20
-4.723597961739903
 30
0.0
 10
-6.195767778892907
 20
-4.797150086670006
 30
0.0
 10
-6.1712500744953
 20
-4.871990752285815
 30
0.0
 10
-6.1529747882362065
 20
-4.9477004047262465
 30
0.0
 10
-6.1409205502678565
 20
-5.023862716039834
 30
0.0
 10
-6.135068549032481
 20
-5.10005783709101
 30
0.0
 10
-6.135400142416805
 20
-5.175867386825491
 30
0.0
 10
-6.1418960487350525
 20
-5.25087386448501
 30
0.0
 10
-6.154536007839959
 20
-5.324657713444776
 30
0.0
 10
-6.173302186635245
 20
-5.396801140435754
 30
0.0
 10
-6.198175133990638
 20
-5.466885176618402
 30
0.0
 10
-6.229136207792866
 20
-5.534491440938433
 30
0.0
 10
-6.266164677766659
 20
-5.5992027251483565
 30
0.0
 10
-6.309242371926743
 20
-5.6605982998165825
 30
0.0
 10
-6.358349369014848
 20
-5.718261544480873
 30
0.0
 10
-6.614218135022316
 20
-6.00047995558124
 30
0.0
 10
-6.661633064532046
 20
-6.076008417832363
 30
0.0
 10
-6.679211576712624
 20
-6.163175771402832
 30
0.0
 10
-6.666675894626492
 20
-6.253641770058584
 30
0.0
 10
-6.623751778087579
 20
-6.339064702247988
 30
0.0
 10
-6.339064702247993
 20
-6.623751778087576
 30
0.0
 10
-6.253607438513624
 20
-6.666700837953958
 30
0.0
 10
-6.163137038377749
 20
-6.679239717902586
 30
0.0
 10
-6.076138701644025
 20
-6.661538407802164
 30
0.0
 10
-6.001100564278669
 20
-6.613767236410385
 30
0.0
 10
-5.718572288977602
 20
-6.3581235999226315
 30
0.0
 10
-5.660860338284888
 20
-6.309056934107458
 30
0.0
 10
-5.599431908444096
 20
-6.266015471307281
 30
0.0
 10
-5.534704500213492
 20
-6.2290184932078745
 30
0.0
 10
-5.467094146270063
 20
-6.198085112050521
 30
0.0
 10
-5.397015411209514
 20
-6.173234270632002
 30
0.0
 10
-5.324886676086137
 20
-6.154484611065595
 30
0.0
 10
-5.251123093280891
 20
-6.141855885165077
 30
0.0
 10
-5.176140107685511
 20
-6.135366396154733
 30
0.0
 10
-5.1003546322730084
 20
-6.135034616703345
 30
0.0
 10
-5.024182699720368
 20
-6.140879659052193
 30
0.0
 10
-4.948041810785854
 20
-6.152920804887049
 30
0.0
 10
-4.872345061983899
 20
-6.171176827560205
 30
0.0
 10
-4.7975114221540425
 20
-6.19566717820193
 30
0.0
 10
-4.723956336188019
 20
-6.226410160036507
 30
0.0
 10
-4.652095248977562
 20
-6.263424076288225
 30
0.0
 10
-4.582344488474138
 20
-6.306730296804848
 30
0.0
 10
-4.519566922456846
 20
-6.359639849728211
 30
0.0
 10
-4.4621236335184085
 20
-6.416516674814858
 30
0.0
 10
-4.4101244182193655
 20
-6.476958386452
 30
0.0
 10
-4.363679658141806
 20
-6.540559701847861
 30
0.0
 10
-4.322903258815621
 20
-6.606916486116647
 30
0.0
 10
-4.2879035487200765
 20
-6.675626184201074
 30
0.0
 10
-4.258792377518534
 20
-6.74628368275386
 30
0.0
 10
-4.23568130236359
 20
-6.818485317017218
 30
0.0
 10
-4.218681000111806
 20
-6.891828061805857
 30
0.0
 10
-4.207901852345269
 20
-6.965906634327999
 30
0.0
 10
-4.203456004001825
 20
-7.040318178842854
 30
0.0
 10
-4.205454424448812
 20
-7.114658221575637
 30
0.0
 10
-4.214008670838821
 20
-7.188523097768561
 30
0.0
 10
-4.229227951947141
 20
-7.261509612791841
 30
0.0
 10
-4.251224997733162
 20
-7.333212013725696
 30
0.0
 10
-4.280109604757426
 20
-7.403227914957336
 30
0.0
 10
-4.43624497682972
 20
-7.7507013708788595
 30
0.0
 10
-4.457999676115018
 20
-7.837185226074139
 30
0.0
 10
-4.447781641063168
 20
-7.925518364695162
 30
0.0
 10
-4.407903967931219
 20
-8.007682903419168
 30
0.0
 10
-4.340683569434808
 20
-8.075660658239885
 30
0.0
 10
-3.9819569263392136
 20
-8.258441012308795
 30
0.0
 10
-3.8874102494087497
 20
-8.272880248776765
 30
0.0
 10
-3.797493058833142
 20
-8.256848541129065
 30
0.0
 10
-3.7202227294194263
 20
-8.21312963027802
 30
0.0
 10
-3.6636193237087116
 20
-8.144508486762682
 30
0.0
 10
-3.473917194624527
 20
-7.814070901972141
 30
0.0
 10
-3.4341923014443214
 20
-7.749571756173165
 30
0.0
 10
-3.3890709364264695
 20
-7.6896544637476065
 30
0.0
 10
-3.3389442080190914
 20
-7.634466377497836
 30
0.0
 10
-3.2842018808032707
 20
-7.584154235412869
 30
0.0
 10
-3.2252323754930536
 20
-7.53886416066836
 30
0.0
 10
-3.162427835386603
 20
-7.498743169823519
 30
0.0
 10
-3.0961769902149605
 20
-7.463938337110522
 30
0.0
 10
-3.0268692955422143
 20
-7.434595449461865
 30
0.0
 10
-2.95489555079949
 20
-7.410860908623402
 30
0.0
 10
-2.880645520567872
 20
-7.392881452584146
 30
0.0
 10
-2.8045103132954794
 20
-7.380804434146467
 30
0.0
 10
-2.726877005829323
 20
-7.374775361672668
 30
0.0
 10
-2.648138050484559
 20
-7.374942202778473
 30
0.0
 10
-2.568682902825277
 20
-7.38145074439638
 30
0.0
 10
-2.488901018415566
 20
-7.3944467734588875
 30
0.0
 10
-2.4091817450204562
 20
-7.4140792663112025
 30
0.0
 10
-2.333126780764462
 20
-7.444999906628391
 30
0.0
 10
-2.2609190609642704
 20
-7.481342029258459
 30
0.0
 10
-2.1927873523468944
 20
-7.52275687174543
 30
0.0
 10
-2.128961873305444
 20
-7.568893097033974
 30
0.0
 10
-2.0696758389840952
 20
-7.619401548751984
 30
0.0
 10
-2.0151566722428265
 20
-7.673932849630131
 30
0.0
 10
-1.9656359353417832
 20
-7.732136277426439
 30
0.0
 10
-1.921344464708063
 20
-7.793662397198609
 30
0.0
 10
-1.8825120619187223
 20
-7.858162110247505
 30
0.0
 10
-1.8493689453668702
 20
-7.925284079517795
 30
0.0
 10
-1.8221462604966
 20
-7.994679821123696
 30
0.0
 10
-1.8010745347180142
 20
-8.065998949066394
 30
0.0
 10
-1.786384604458212
 20
-8.138892028403593
 30
0.0
 10
-1.7783049274272122
 20
-8.213009345622797
 30
0.0
 10
-1.7770681007352032
 20
-8.287999842238872
 30
0.0
 10
-1.7829028911091984
 20
-8.363514755795842
 30
0.0
 10
-1.8240212511687772
 20
-8.742230133682998
 30
0.0
 10
-1.8179862186896996
 20
-8.831203739507467
 30
0.0
 10
-1.780971848869529
 20
-8.912056000117655
 30
0.0
 10
-1.7176556891820047
 20
-8.977876241385603
 30
0.0
 10
-1.6327190096849813
 20
-9.021754682566916
 30
0.0
  0
ENDSEC
  0
SECTION
  2
OBJECTS
  0
DICTIONARY
  5
C
330
0
100
AcDbDictionary
  3
ACAD_GROUP
350
D
  3
ACAD_MLINESTYLE
350
17
  0
DICTIONARY
  5
D
330
C
100
AcDbDictionary
  0
DICTIONARY
  5
1A
330
C
100
AcDbDictionary
  0
DICTIONARY
  5
17
330
C
100
AcDbDictionary
  3
STANDARD
350
18
  0
DICTIONARY
  5
19
330
C
100
AcDbDictionary
  0
ENDSEC
  0
EOF