  0
SECTION
  2
HEADER
  9
$ACADVER
  1
AC1014
  9
$HANDSEED
  5
FFFF
  9
$MEASUREMENT
 70
     1
  0
ENDSEC
  0
SECTION
  2
TABLES
  0
TABLE
  2
VPORT
  5
8
330
0
100
AcDbSymbolTable
 70
     4
  0
VPORT
  5
2E
330
8
100
AcDbSymbolTableRecord
100
AcDbViewportTableRecord
  2
*ACTIVE
 70
     0
 10
0.0
 20
0.0
 11
1.0
 21
1.0
 12
210.0
 22
148.5
 13
0.0
 23
0.0
 14
10.0
 24
10.0
 15
10.0
 25
10.0
 16
0.0
 26
0.0
 36
1.0
 17
0.0
 27
0.0
 37
0.0
 40
341.0
 41
1.24
 42
50.0
 43
0.0
 44
0.0
 50
0.0
 51
0.0
 71
     0
 72
   100
 73
     1
 74
     3
 75
     0
 76
     0
 77
     0
 78
     0
  0
ENDTAB
  0
TABLE
  2
LTYPE
  5
5
330
0
100
AcDbSymbolTable
 70
     1
  0
LTYPE
  5
14
330
5
100
AcDbSymbolTableRecord
100
AcDbLinetypeTableRecord
  2
BYBLOCK
 70
     0
  3

 72
    65
 73
     0
 40
0.0
  0
LTYPE
  5
15
330
5
100
AcDbSymbolTableRecord
100
AcDbLinetypeTableRecord
  2
BYLAYER
 70
     0
  3

 72
    65
 73
     0
 40
0.0
  0
LTYPE
  5
16
330
5
100
AcDbSymbolTableRecord
100
AcDbLinetypeTableRecord
  2
CONTINUOUS
 70
     0
  3
Solid line
 72
    65
 73
     0
 40
0.0
  0
ENDTAB
  0
TABLE
  2
LAYER
  5
2
100
AcDbSymbolTable
 70
2
  0
LAYER
  5
50
100
AcDbSymbolTableRecord
100
AcDbLayerTableRecord
  2
0
 70
0
  6
CONTINUOUS
  0
LAYER
  5
51
100
AcDbSymbolTableRecord
100
AcDbLayerTableRecord
  2
Layer_1
 70
0
  6
CONTINUOUS
  0
ENDTAB
  0
TABLE
  2
STYLE
  5
3
330
0
100
AcDbSymbolTable
 70
     1
  0
STYLE
  5
11
330
3
100
AcDbSymbolTableRecord
100
AcDbTextStyleTableRecord
  2
STANDARD
 70
     0
 40
0.0
 41
1.0
 50
0.0
 71
     0
 42
2.5
  3
txt
  4

  0
ENDTAB
  0
TABLE
  2
VIEW
  5
6
330
0
100
AcDbSymbolTable
 70
     0
  0
ENDTAB
  0
TABLE
  2
UCS
  5
7
330
0
100
AcDbSymbolTable
 70
     0
  0
ENDTAB
  0
TABLE
  2
APPID
  5
9
330
0
100
AcDbSymbolTable
 70
     2
  0
APPID
  5
12
330
9
100
AcDbSymbolTableRecord
100
AcDbRegAppTableRecord
  2
ACAD
 70
     0
  0
ENDTAB
  0
TABLE
  2
DIMSTYLE
  5
A
330
0
100
AcDbSymbolTable
 70
     1
  0
DIMSTYLE
105
27
330
A
100
AcDbSymbolTableRecord
100
AcDbDimStyleTableRecord
  2
ISO-25
 70
     0
  3

  4

  5

  6

  7

 40
1.0
 41
2.5
 42
0.625
 43
3.75
 44
1.25
 45
0.0
 46
0.0
 47
0.0
 48
0.0
140
2.5
141
2.5
142
0.0
143
0.03937007874016
144
1.0
145
0.0
146
1.0
147
0.625
 71
     0
 72
     0
 73
     0
 74
     0
 75
     0
 76
     0
 77
     1
 78
     8
170
     0
171
     3
172
     1
173
     0
174
     0
175
     0
176
     0
177
     0
178
     0
270
     2
271
     2
272
     2
273
     2
274
     3
340
11
275
     0
280
     0
281
     0
282
     0
283
     0
284
     8
285
     0
286
     0
287
     3
288
     0
  0
ENDTAB
  0
TABLE
  2
BLOCK_RECORD
  5
1
330
0
100
AcDbSymbolTable
 70
     1
  0
BLOCK_RECORD
  5
1F
330
1
100
AcDbSymbolTableRecord
100
AcDbBlockTableRecord
  2
*MODEL_SPACE
  0
BLOCK_RECORD
  5
1B
330
1
100
AcDbSymbolTableRecord
100
AcDbBlockTableRecord
  2
*PAPER_SPACE
  0
ENDTAB
  0
ENDSEC
  0
SECTION
  2
BLOCKS
  0
BLOCK
  5
20
330
1F
100
AcDbEntity
  8
0
100
AcDbBlockBegin
  2
*MODEL_SPACE
 70
     0
 10
0.0
 20
0.0
 30
0.0
  3
*MODEL_SPACE
  1

  0
ENDBLK
  5
21
330
1F
100
AcDbEntity
  8
0
100
AcDbBlockEnd
  0
BLOCK
  5
1C
330
1B
100
AcDbEntity
 67
     1
  8
0
100
AcDbBlockBegin
  2
*PAPER_SPACE
  1

  0
ENDBLK
  5
1D
330
1B
100
AcDbEntity
 67
     1
  8
0
100
AcDbBlockEnd
  0
ENDSEC
  0
SECTION
  2
ENTITIES
  0
LWPOLYLINE
  5
100
100
AcDbEntity
  8
Layer_1
 62
7
100
AcDbPolyline
 90
1075
 70
1
 10
-1.2350674625550662
 20
-11.489436256811544
 30
0.0
 10
-1.140686259911894
 20
-11.473952256811543
 30
0.0
 10
-1.060124
 20
-11.430919256811544
 30
0.0
 10
-1.0001454361233482
 20
-11.365462256811544
 30
0.0
 10
-0.9675174977973569
 20
-11.282708256811544
 30
0.0
 10
-0.8892108810572688
 20
-10.909822256811545
 30
0.0
 10
-0.8713615947136564
 20
-10.836204256811545
 30
0.0
 10
-0.8469640881057269
 20
-10.765276256811545
 30
0.0
 10
-0.8163447929515419
 20
-10.697299256811544
 30
0.0
 10
-0.7798290528634362
 20
-10.632533256811545
 30
0.0
 10
-0.7377411233480176
 20
-10.571237256811544
 30
0.0
 10
-0.6904085242290748
 20
-10.513672256811544
 30
0.0
 10
-0.6381555110132159
 20
-10.460098256811545
 30
0.0
 10
-0.5813074273127753
 20
-10.410774256811544
 30
0.0
 10
-0.520190704845815
 20
-10.365960256811544
 30
0.0
 10
-0.4551306872246696
 20
-10.325916256811544
 30
0.0
 10
-0.3864538061674009
 20
-10.290903256811545
 30
0.0
 10
-0.3144832290748899
 20
-10.261179256811545
 30
0.0
 10
-0.23954647577092514
 20
-10.237006256811544
 30
0.0
 10
-0.1619688898678414
 20
-10.218643256811545
 30
0.0
 10
-0.08207581497797356
 20
-10.206349256811544
 30
0.0
 10
-1.915066079295154E-4
 20
-10.200386256811544
 30
0.0
 10
0.08169606607929515
 20
-10.206291256811545
 30
0.0
 10
0.16160002202643173
 20
-10.218541256811545
 30
0.0
 10
0.23919501762114537
 20
-10.236875256811544
 30
0.0
 10
0.31415353303964755
 20
-10.261030256811544
 30
0.0
 10
0.38614587224669605
 20
-10.290746256811545
 30
0.0
 10
0.45484777973568286
 20
-10.325761256811544
 30
0.0
 10
0.5199306475770925
 20
-10.365813256811544
 30
0.0
 10
0.5810669559471365
 20
-10.410641256811545
 30
0.0
 10
0.6379302731277533
 20
-10.459984256811545
 30
0.0
 10
0.6901930792951542
 20
-10.513579256811544
 30
0.0
 10
0.7375278546255507
 20
-10.571166256811544
 30
0.0
 10
0.7796070792951543
 20
-10.632483256811543
 30
0.0
 10
0.8161032334801762
 20
-10.697269256811545
 30
0.0
 10
0.8466909735682819
 20
-10.765262256811544
 30
0.0
 10
0.8710406035242291
 20
-10.836200256811544
 30
0.0
 10
0.8888267797356829
 20
-10.909822256811545
 30
0.0
 10
0.9667503832599119
 20
-11.282708256811544
 30
0.0
 10
0.999984396475771
 20
-11.365462256811544
 30
0.0
 10
1.0601718766519823
 20
-11.430919256811544
 30
0.0
 10
1.1407286960352423
 20
-11.473952256811543
 30
0.0
 10
1.2350674625550662
 20
-11.489436256811544
 30
0.0
 10
1.6610410592055516
 20
-11.435623277112233
 30
0.0
 10
1.7486063885999363
 20
-11.397154084809506
 30
0.0
 10
1.8159357650586998
 20
-11.335438026309422
 30
0.0
 10
1.857751498114153
 20
-11.25712141604863
 30
0.0
 10
1.8687742868366115
 20
-11.16885304683188
 30
0.0
 10
1.8518877799506597
 20
-10.788207882529916
 30
0.0
 10
1.850868246027944
 20
-10.712463790367183
 30
0.0
 10
1.8568601837850798
 20
-10.63769671074922
 30
0.0
 10
1.8696123250172456
 20
-10.564240624148217
 30
0.0
 10
1.8888742067506161
 20
-10.492428271852308
 30
0.0
 10
1.914396171242362
 20
-10.422591155965575
 30
0.0
 10
1.9459258963667767
 20
-10.355063527561098
 30
0.0
 10
1.98321397307092
 20
-10.290177857326118
 30
0.0
 10
2.026009689691078
 20
-10.228265917965608
 30
0.0
 10
2.0740615293325417
 20
-10.169660721368594
 30
0.0
 10
2.127119029021486
 20
-10.114695008823213
 30
0.0
 10
2.184930920553087
 20
-10.06370276080165
 30
0.0
 10
2.2472483514155153
 20
-10.017014240223936
 30
0.0
 10
2.3138192481729494
 20
-9.974964666746311
 30
0.0
 10
2.3843928991616785
 20
-9.937885813073747
 30
0.0
 10
2.458718592717988
 20
-9.906109451911215
 30
0.0
 10
2.536547417168713
 20
-9.879969991112288
 30
0.0
 10
2.6173308549629644
 20
-9.865324863466963
 30
0.0
 10
2.6977709323186945
 20
-9.857318701402269
 30
0.0
 10
2.777487618830864
 20
-9.855779614379394
 30
0.0
 10
2.8560982788728935
 20
-9.860534315894984
 30
0.0
 10
2.9332189150460923
 20
-9.871412966396948
 30
0.0
 10
3.008470302176419
 20
-9.88824243616242
 30
0.0
 10
3.081468999406295
 20
-9.910850677872098
 30
0.0
 10
3.1518328684889134
 20
-9.939066342188951
 30
0.0
 10
3.219180825098351
 20
-9.972717809175055
 30
0.0
 10
3.2831302336080253
 20
-10.011631792327055
 30
0.0
 10
3.3432992044610166
 20
-10.055637910891079
 30
0.0
 10
3.3993053507206303
 20
-10.104563846946933
 30
0.0
 10
3.4507665341400595
 20
-10.15823825115759
 30
0.0
 10
3.4973024756243776
 20
-10.21648826440107
 30
0.0
 10
3.538528680395122
 20
-10.279142109958963
 30
0.0
 10
3.574065118047254
 20
-10.346027897292453
 30
0.0
 10
3.74227358554064
 20
-10.687820185745144
 30
0.0
 10
3.7950435740406876
 20
-10.759709353664496
 30
0.0
 10
3.8696186477942787
 20
-10.808141883988734
 30
0.0
 10
3.95834649847735
 20
-10.829789256838799
 30
0.0
 10
4.053572153382958
 20
-10.821325701304628
 30
0.0
 10
4.452780262334591
 20
-10.663268029631505
 30
0.0
 10
4.528027666791585
 20
-10.604230805858219
 30
0.0
 10
4.57789360745419
 20
-10.527709535789398
 30
0.0
 10
4.598919073393061
 20
-10.441454235918846
 30
0.0
 10
4.587644110157574
 20
-10.353217723751586
 30
0.0
 10
4.476625520977455
 20
-9.988730730735739
 30
0.0
 10
4.456801227854359
 20
-9.91561982628814
 30
0.0
 10
4.444011101274615
 20
-9.841711557638698
 30
0.0
 10
4.438094824652049
 20
-9.767391900510422
 30
0.0
 10
4.43889255316113
 20
-9.693045430120714
 30
0.0
 10
4.446244913736968
 20
-9.619055321181358
 30
0.0
 10
4.45999063627907
 20
-9.545808073614298
 30
0.0
 10
4.4799708294762235
 20
-9.473687738438004
 30
0.0
 10
4.506025166749218
 20
-9.40307801456319
 30
0.0
 10
4.537992849758209
 20
-9.334364001406191
 30
0.0
 10
4.575714033677661
 20
-9.267930274184407
 30
0.0
 10
4.619028401921399
 20
-9.204162808620845
 30
0.0
 10
4.667777053185179
 20
-9.143443378921685
 30
0.0
 10
4.721799199122182
 20
-9.086159361315543
 30
0.0
 10
4.780934513153202
 20
-9.032694454713146
 30
0.0
 10
4.8450226686990305
 20
-8.98343235802521
 30
0.0
 10
4.913905737955803
 20
-8.938758874883563
 30
0.0
 10
4.988509120359766
 20
-8.90448382682388
 30
0.0
 10
5.064430973225919
 20
-8.876724559301621
 30
0.0
 10
5.141260458064521
 20
-8.855409091753886
 30
0.0
 10
5.218583865849853
 20
-8.840464739402272
 30
0.0
 10
5.29598702578858
 20
-8.831822494786284
 30
0.0
 10
5.373059571151606
 20
-8.829408976837403
 30
0.0
 10
5.4493873211525665
 20
-8.833152901282844
 30
0.0
 10
5.52455753027309
 20
-8.842983335957566
 30
0.0
 10
5.598158406509118
 20
-8.8588288244976
 30
0.0
 10
5.669776240834931
 20
-8.880616682124538
 30
0.0
 10
5.738998769485828
 20
-8.908276852980025
 30
0.0
 10
5.805412765189763
 20
-8.941737528592341
 30
0.0
 10
5.868605482428363
 20
-8.980927776796447
 30
0.0
 10
5.928165600958213
 20
-9.025774740722756
 30
0.0
 10
5.983677986478632
 20
-9.076207660297413
 30
0.0
 10
6.034731800499884
 20
-9.132154554957514
 30
0.0
 10
6.282655975322347
 20
-9.421377065355307
 30
0.0
 10
6.351646206654683
 20
-9.477884340383772
 30
0.0
 10
6.435923047833781
 20
-9.506249207029589
 30
0.0
 10
6.527246832640038
 20
-9.505150768680082
 30
0.0
 10
6.617375997818249
 20
-9.473271453932734
 30
0.0
 10
6.964734905400877
 20
-9.220900435092473
 30
0.0
 10
7.022936313757851
 20
-9.145004705742027
 30
0.0
 10
7.052205558178363
 20
-9.05848633692844
 30
0.0
 10
7.0511196496494595
 20
-8.969712085163794
 30
0.0
 10
7.0182553818625255
 20
-8.887051654616686
 30
0.0
 10
6.820080416644237
 20
-8.561624891147531
 30
0.0
 10
6.782696997566334
 20
-8.495741001424609
 30
0.0
 10
6.751928457341511
 20
-8.427335472078529
 30
0.0
 10
6.727715504282953
 20
-8.356822021808929
 30
0.0
 10
6.70999895535168
 20
-8.284612895487198
 30
0.0
 10
6.698719736156539
 20
-8.211118864156465
 30
0.0
 10
6.693817761815777
 20
-8.136754391375996
 30
0.0
 10
6.695234642485351
 20
-8.061930977157552
 30
0.0
 10
6.702910510579172
 20
-7.98706013740389
 30
0.0
 10
6.716785389863319
 20
-7.912554861846022
 30
0.0
 10
6.73680009729881
 20
-7.838827395355334
 30
0.0
 10
6.7628953411988295
 20
-7.766291456631467
 30
0.0
 10
6.79501215582006
 20
-7.695356342889297
 30
0.0
 10
6.833091140827853
 20
-7.626437246656717
 30
0.0
 10
6.877072428636123
 20
-7.559945683836488
 30
0.0
 10
6.926896151658778
 20
-7.4962931703313656
 30
0.0
 10
6.982505289145989
 20
-7.435892664090366
 30
0.0
 10
7.046241011271175
 20
-7.3841413229407245
 30
0.0
 10
7.112874190411126
 20
-7.338373166830771
 30
0.0
 10
7.181988994484671
 20
-7.298620647977004
 30
0.0
 10
7.253166635926552
 20
-7.264916250377922
 30
0.0
 10
7.325988794422947
 20
-7.237296134657155
 30
0.0
 10
7.40003974654052
 20
-7.21579127920295
 30
0.0
 10
7.474900596066177
 20
-7.200435641842056
 30
0.0
 10
7.550153924528871
 20
-7.191263164510225
 30
0.0
 10
7.625383106652494
 20
-7.188307044283584
 30
0.0
 10
7.7001693548717824
 20
-7.191599765160628
 30
0.0
 10
7.774095935262798
 20
-7.201175998045737
 30
0.0
 10
7.846744744807386
 20
-7.217068955906035
 30
0.0
 10
7.917698365034497
 20
-7.239312580677276
 30
0.0
 10
7.9865402793158555
 20
-7.267938595607328
 30
0.0
 10
8.052850798243432
 20
-7.30298170338257
 30
0.0
 10
8.116214089736053
 20
-7.344474356219501
 30
0.0
 10
8.428275984182164
 20
-7.562954174548115
 30
0.0
 10
8.509151548383857
 20
-7.6005289967764345
 30
0.0
 10
8.597834733108638
 20
-7.607043930853791
 30
0.0
 10
8.686016242773315
 20
-7.583268700225987
 30
0.0
 10
8.765385771304102
 20
-7.529976720854953
 30
0.0
 10
9.039069639857606
 20
-7.199149754116966
 30
0.0
 10
9.076568043577685
 20
-7.111164326989416
 30
0.0
 10
9.083401497484413
 20
-7.02008512673592
 30
0.0
 10
9.060272446114297
 20
-6.934369935804416
 30
0.0
 10
9.007883856587291
 20
-6.862479445732534
 30
0.0
 10
8.735004577232038
 20
-6.596560672194755
 30
0.0
 10
8.682410969906591
 20
-6.542043524291799
 30
0.0
 10
8.63559731657779
 20
-6.4834389052358326
 30
0.0
 10
8.59460907597292
 20
-6.421162281235678
 30
0.0
 10
8.559491445527554
 20
-6.355627663955309
 30
0.0
 10
8.530289361385531
 20
-6.287247610513847
 30
0.0
 10
8.507047699237935
 20
-6.216438505838165
 30
0.0
 10
8.48981223955654
 20
-6.1436134428741855
 30
0.0
 10
8.478627335448984
 20
-6.069185897459083
 30
0.0
 10
8.473537601314629
 20
-5.993570799974884
 30
0.0
 10
8.47458823458904
 20
-5.917182162085558
 30
0.0
 10
8.48182469399951
 20
-5.8404354499999265
 30
0.0
 10
8.495291654398157
 20
-5.763741766292268
 30
0.0
 10
8.51503483580399
 20
-5.687518031716247
 30
0.0
 10
8.541098591324655
 20
-5.6121777221090445
 30
0.0
 10
8.573527274067787
 20
-5.5381343133078325
 30
0.0
 10
8.612368353161013
 20
-5.465801969912126
 30
0.0
 10
8.661231665182706
 20
-5.399826062765078
 30
0.0
 10
8.714389362891403
 20
-5.33892479963932
 30
0.0
 10
8.771446748873482
 20
-5.283233026438642
 30
0.0
 10
8.832006270987064
 20
-5.232886354849345
 30
0.0
 10
8.895671744001634
 20
-5.188023841474217
 30
0.0
 10
8.962048209211856
 20
-5.148778877672198
 30
0.0
 10
9.030738375767566
 20
-5.115288529674438
 30
0.0
 10
9.101346380182738
 20
-5.087689480820826
 30
0.0
 10
9.173476942007548
 20
-5.066117495733201
 30
0.0
 10
9.246732509100115
 20
-5.050708186097864
 30
0.0
 10
9.320718062302339
 20
-5.041598771081502
 30
0.0
 10
9.395036893800258
 20
-5.038925398197209
 30
0.0
 10
9.469293140107853
 20
-5.042824750784878
 30
0.0
 10
9.543091259483571
 20
-5.0534311389215
 30
0.0
 10
9.616033378041053
 20
-5.070882547556273
 30
0.0
 10
9.687724798366677
 20
-5.0953138225929875
 30
0.0
 10
10.044316415925023
 20
-5.229323058354272
 30
0.0
 10
10.13199560385776
 20
-5.2456044635113095
 30
0.0
 10
10.219512841478027
 20
-5.229860107751875
 30
0.0
 10
10.299011307439988
 20
-5.184901970025299
 30
0.0
 10
10.362634119945051
 20
-5.113545857088652
 30
0.0
 10
10.545446385469358
 20
-4.725050017469567
 30
0.0
 10
10.559885621937326
 20
-4.630503340539103
 30
0.0
 10
10.543853914289626
 20
-4.540586149963495
 30
0.0
 10
10.500135003438581
 20
-4.463315820549779
 30
0.0
 10
10.431513859923243
 20
-4.406712414839064
 30
0.0
 10
10.101076275132701
 20
-4.2170102857548795
 30
0.0
 10
10.036577129333727
 20
-4.1772853925746745
 30
0.0
 10
9.976659836908167
 20
-4.132164027556823
 30
0.0
 10
9.921471750658398
 20
-4.0820372991494445
 30
0.0
 10
9.87115960857343
 20
-4.027294971933624
 30
0.0
 10
9.825869533828921
 20
-3.9683254666234067
 30
0.0
 10
9.78574854298408
 20
-3.905520926516956
 30
0.0
 10
9.750943710271084
 20
-3.8392700813453136
 30
0.0
 10
9.721600822622428
 20
-3.769962386672567
 30
0.0
 10
9.697866281783963
 20
-3.697988641929843
 30
0.0
 10
9.679886825744706
 20
-3.623738611698225
 30
0.0
 10
9.667809807307028
 20
-3.5476034044258324
 30
0.0
 10
9.661780734833231
 20
-3.4699700969596763
 30
0.0
 10
9.661947575939033
 20
-3.391231141614912
 30
0.0
 10
9.668456117556943
 20
-3.3117759939556306
 30
0.0
 10
9.68145214661945
 20
-3.2319941095459193
 30
0.0
 10
9.701084639471762
 20
-3.1522748361508093
 30
0.0
 10
9.732005279788952
 20
-3.076219871894815
 30
0.0
 10
9.76834740241902
 20
-3.0040121520946235
 30
0.0
 10
9.809762244905992
 20
-2.9358804434772474
 30
0.0
 10
9.855898470194534
 20
-2.872054964435797
 30
0.0
 10
9.906406921912545
 20
-2.8127689301144487
 30
0.0
 10
9.960938222790691
 20
-2.7582497633731795
 30
0.0
 10
10.019141650586999
 20
-2.7087290264721355
 30
0.0
 10
10.08066777035917
 20
-2.664437555838416
 30
0.0
 10
10.145167483408065
 20
-2.6256051530490754
 30
0.0
 10
10.212289452678355
 20
-2.5924620364972233
 30
0.0
 10
10.281685194284258
 20
-2.5652393516269525
 30
0.0
 10
10.353004322226955
 20
-2.5441676258483668
 30
0.0
 10
10.425897401564153
 20
-2.529477695588565
 30
0.0
 10
10.500014718783358
 20
-2.521398018557565
 30
0.0
 10
10.575005215399433
 20
-2.5201611918655558
 30
0.0
 10
10.650520128956401
 20
-2.5259959822395515
 30
0.0
 10
11.029235506843559
 20
-2.5671143422991296
 30
0.0
 10
11.118209112668028
 20
-2.561079309820052
 30
0.0
 10
11.199061373278216
 20
-2.524064939999882
 30
0.0
 10
11.264881614546164
 20
-2.4607487803123576
 30
0.0
 10
11.308760055727475
 20
-2.3758121008153337
 30
0.0
 10
11.389213951243208
 20
-1.9540580107061651
 30
0.0
 10
11.379686750127991
 20
-1.8588907994026824
 30
0.0
 10
11.34179721207786
 20
-1.7757854462811218
 30
0.0
 10
11.280235461701567
 20
-1.7118151573626506
 30
0.0
 10
11.199693483015874
 20
-1.674055436166673
 30
0.0
 10
10.832460201506864
 20
-1.572489633982069
 30
0.0
 10
10.760108235776174
 20
-1.5500530566610653
 30
0.0
 10
10.690852128097346
 20
-1.521250086990171
 30
0.0
 10
10.624931866629328
 20
-1.486422900874616
 30
0.0
 10
10.562586509827074
 20
-1.4459125254705114
 30
0.0
 10
10.50405418644152
 20
-1.4000588391848496
 30
0.0
 10
10.449574816308898
 20
-1.3492051038814594
 30
0.0
 10
10.399387526206878
 20
-1.293691260757853
 30
0.0
 10
10.353730376563679
 20
-1.2338582741796218
 30
0.0
 10
10.312842357511522
 20
-1.170048257261476
 30
0.0
 10
10.27696252750536
 20
-1.1026022371595268
 30
0.0
 10
10.246330874704139
 20
-1.0318623897790036
 30
0.0
 10
10.221184598154801
 20
-0.9581674447777809
 30
0.0
 10
10.201764615720299
 20
-0.8818607268102063
 30
0.0
 10
10.188308987828856
 20
-0.8032832002418717
 30
0.0
 10
10.181055774908687
 20
-0.7227758294383687
 30
0.0
 10
10.180246099790924
 20
-0.6406786811782487
 30
0.0
 10
10.191281210854317
 20
-0.5593234729281061
 30
0.0
 10
10.208524249183933
 20
-0.4803463730499427
 30
0.0
 10
10.231694301309203
 20
-0.40405569483919496
 30
0.0
 10
10.26050832106066
 20
-0.3307617979274576
 30
0.0
 10
10.294686119703577
 20
-0.2607774022350817
 30
0.0
 10
10.333945854063382
 20
-0.19440967230838535
 30
0.0
 10
10.378005407674609
 20
-0.13197011652808166
 30
0.0
 10
10.426583730421253
 20
-0.07376922010680476
 30
0.0
 10
10.47939984051002
 20
-0.020116382298589697
 30
0.0
 10
10.536170691771444
 20
0.02867803726496876
 30
0.0
 10
10.596616232116242
 20
0.07230349058071717
 30
0.0
 10
10.660454413401672
 20
0.11044955522654087
 30
0.0
 10
10.727404185511727
 20
0.142805745989806
 30
0.0
 10
10.797183636949109
 20
0.16906381236559587
 30
0.0
 10
10.869510582925635
 20
0.1889111600145985
 30
0.0
 10
10.944104109970738
 20
0.20203947564137725
 30
0.0
 10
11.321147168176324
 20
0.2563956090687979
 30
0.0
 10
11.405824653016545
 20
0.2843678758980348
 30
0.0
 10
11.474931691728699
 20
0.34032651079381016
 30
0.0
 10
11.522937980473857
 20
0.41802230526856754
 30
0.0
 10
11.544315006498374
 20
0.5112026673779139
 30
0.0
 10
11.517355317861549
 20
0.939714647392563
 30
0.0
 10
11.484460308247808
 20
1.0295226871823462
 30
0.0
 10
11.427093678818913
 20
1.1005943878731235
 30
0.0
 10
11.351557240101792
 20
1.1472451477773369
 30
0.0
 10
11.264155174979246
 20
1.1637886023052932
 30
0.0
 10
10.883200814418512
 20
1.1708363247061673
 30
0.0
 10
10.807542168854884
 20
1.1745748134989316
 30
0.0
 10
10.73329886187439
 20
1.185249591308533
 30
0.0
 10
10.660788437653927
 20
1.2025889149431936
 30
0.0
 10
10.590327254192452
 20
1.2263219226622035
 30
0.0
 10
10.522230483310997
 20
1.2561786341759202
 30
0.0
 10
10.456815873077133
 20
1.291886237460182
 30
0.0
 10
10.394399577599142
 20
1.3331749396066628
 30
0.0
 10
10.335296972588733
 20
1.3797736914933365
 30
0.0
 10
10.279824619935546
 20
1.4314105625471103
 30
0.0
 10
10.228298877638546
 20
1.4878146910272747
 30
0.0
 10
10.181037289874626
 20
1.5487143337420504
 30
0.0
 10
10.138353842286877
 20
1.613840391852864
 30
0.0
 10
10.100567265230127
 20
1.6829202407168686
 30
0.0
 10
10.067992934416091
 20
1.75568283121204
 30
0.0
 10
10.040946225556475
 20
1.8318571142163524
 30
0.0
 10
10.019745257334057
 20
1.9111736715841088
 30
0.0
 10
10.010201462531242
 20
1.992717276890517
 30
0.0
 10
10.007261973046695
 20
2.073501335203851
 30
0.0
 10
10.010731375221745
 20
2.1531573591185014
 30
0.0
 10
10.020412698604583
 20
2.2313143488014644
 30
0.0
 10
10.036112327386519
 20
2.307599728898913
 30
0.0
 10
10.05763366173095
 20
2.381645893456305
 30
0.0
 10
10.084780917364002
 20
2.4530809611895696
 30
0.0
 10
10.117359088408373
 20
2.5215343070283307
 30
0.0
 10
10.15517296509607
 20
2.5866363747345953
 30
0.0
 10
10.198025576975287
 20
2.6480161644753597
 30
0.0
 10
10.245722900455968
 20
2.705303238561563
 30
0.0
 10
10.29806894737356
 20
2.7581267845415156
 30
0.0
 10
10.354868711850758
 20
2.806116177344842
 30
0.0
 10
10.415925797941638
 20
2.8489027421846185
 30
0.0
 10
10.481044625263007
 20
2.8861135289443887
 30
0.0
 10
10.550029780156201
 20
2.917380050218544
 30
0.0
 10
10.90170951666579
 20
3.063795281361844
 30
0.0
 10
10.976770282727244
 20
3.1119471821415576
 30
0.0
 10
11.029789850141173
 20
3.1833339952809743
 30
0.0
 10
11.0569657746869
 20
3.270527512030971
 30
0.0
 10
11.054498188390303
 20
3.3660966919079103
 30
0.0
 10
10.921818891988773
 20
3.7744415781668934
 30
0.0
 10
10.867622988309918
 20
3.8532474770121192
 30
0.0
 10
10.794383823808982
 20
3.9078198289342803
 30
0.0
 10
10.709618928999221
 20
3.934219821009961
 30
0.0
 10
10.62084857063378
 20
3.928507522779335
 30
0.0
 10
10.250109894547485
 20
3.8405943310783215
 30
0.0
 10
10.175898480104717
 20
3.8253998283427966
 30
0.0
 10
10.101332953847928
 20
3.8172756787422424
 30
0.0
 10
10.026788463503472
 20
3.8160376464224712
 30
0.0
 10
9.952638788677772
 20
3.821502054297504
 30
0.0
 10
9.879256340857298
 20
3.833485784049565
 30
0.0
 10
9.807016731061294
 20
3.8518036152769706
 30
0.0
 10
9.736293275603293
 20
3.876272855441237
 30
0.0
 10
9.667458849262651
 20
3.9067094016770927
 30
0.0
 10
9.60088769493868
 20
3.9429285923510586
 30
0.0
 10
9.536953592237786
 20
3.9847467503771545
 30
0.0
 10
9.476031688886332
 20
4.031979639901195
 30
0.0
 10
9.418493028250852
 20
4.08444470137361
 30
0.0
 10
9.364714126177642
 20
4.141957140172007
 30
0.0
 10
9.315067857446065
 20
4.204332853431115
 30
0.0
 10
9.269927096835485
 20
4.271387738285659
 30
0.0
 10
9.229666970313538
 20
4.342939953755743
 30
0.0
 10
9.2001439413716
 20
4.419548271500613
 30
0.0
 10
9.177206623007889
 20
4.497063328762307
 30
0.0
 10
9.16075737993449
 20
4.575079617443939
 30
0.0
 10
9.150697693795147
 20
4.653188808795046
 30
0.0
 10
9.146932687300538
 20
4.730981882308042
 30
0.0
 10
9.149363357042805
 20
4.808053888654245
 30
0.0
 10
9.157892552785636
 20
4.883995940314988
 30
0.0
 10
9.17242356582688
 20
4.958400560098388
 30
0.0
 10
9.192859224171508
 20
5.030861255360061
 30
0.0
 10
9.219101009463268
 20
5.100969697349543
 30
0.0
 10
9.251053117827059
 20
5.168318834654245
 30
0.0
 10
9.288617935733686
 20
5.232500764302992
 30
0.0
 10
9.331698754481003
 20
5.293108009103907
 30
0.0
 10
9.380197033954033
 20
5.349734635180808
 30
0.0
 10
9.434016087209352
 20
5.401970770467529
 30
0.0
 10
9.493058278959044
 20
5.449410906867184
 30
0.0
 10
9.797277362540143
 20
5.678685428276077
 30
0.0
 10
9.858005065837002
 20
5.743991401989975
 30
0.0
 10
9.891605747539757
 20
5.826320897361148
 30
0.0
 10
9.896243744600786
 20
5.9175334470536605
 30
0.0
 10
9.870086593505237
 20
6.0094864816476665
 30
0.0
 10
9.640024417492228
 20
6.372006463159896
 30
0.0
 10
9.567932947694999
 20
6.4348585566082965
 30
0.0
 10
9.483423134182418
 20
6.469502578187501
 30
0.0
 10
9.39475587336439
 20
6.473992993840155
 30
0.0
 10
9.310194989846694
 20
6.44638386755714
 30
0.0
 10
8.972966872734814
 20
6.2690336709109165
 30
0.0
 10
8.904865665512833
 20
6.235860903135448
 30
0.0
 10
8.834663146227285
 20
6.209448296322672
 30
0.0
 10
8.762768494242643
 20
6.189710698172285
 30
0.0
 10
8.68958942482544
 20
6.176563157359866
 30
0.0
 10
8.615532189144275
 20
6.169920923536875
 30
0.0
 10
8.541006660148316
 20
6.169698006003134
 30
0.0
 10
8.466419859519402
 20
6.175810291834096
 30
0.0
 10
8.392178732010827
 20
6.188172192281347
 30
0.0
 10
8.31869168647382
 20
6.206697917620595
 30
0.0
 10
8.246366438174913
 20
6.231302516527417
 30
0.0
 10
8.175612166478585
 20
6.26190083670151
 30
0.0
 10
8.106833658455493
 20
6.298408328770216
 30
0.0
 10
8.040441557568048
 20
6.340739639457346
 30
0.0
 10
7.976842808569541
 20
6.388809180014495
 30
0.0
 10
7.916444356213265
 20
6.442531361693245
 30
0.0
 10
7.859654763207548
 20
6.501823346417029
 30
0.0
 10
7.8120075406130125
 20
6.568682794250767
 30
0.0
 10
7.770513629440488
 20
6.63805829433263
 30
0.0
 10
7.735179307557025
 20
6.709532797439538
 30
0.0
 10
7.706010698972573
 20
6.782686302700687
 30
0.0
 10
7.683017626406201
 20
6.857099044717497
 30
0.0
 10
7.66620490362702
 20
6.932354175242769
 30
0.0
 10
7.655580118742917
 20
7.008031492429815
 30
0.0
 10
7.651150936790331
 20
7.0837122702558135
 30
0.0
 10
7.652924329221004
 20
7.158978621097808
 30
0.0
 10
7.660906420044885
 20
7.233410544084996
 30
0.0
 10
7.675105644811655
 20
7.306589950618541
 30
0.0
 10
7.695528898044507
 20
7.378097477251628
 30
0.0
 10
7.722183844779879
 20
7.4475143979614336
 30
0.0
 10
7.7550759923715775
 20
7.514423026100886
 30
0.0
 10
7.794213622512183
 20
7.578402321423425
 30
0.0
 10
7.839603013068744
 20
7.639035234705973
 30
0.0
 10
8.077246239860427
 20
7.936762884987631
 30
0.0
 10
8.11982513545368
 20
8.0151195171287
 30
0.0
 10
8.131895677039216
 20
8.103218629750755
 30
0.0
 10
8.113704324202844
 20
8.192718992432308
 30
0.0
 10
8.065501158310948
 20
8.275278134400235
 30
0.0
 10
7.752511755314855
 20
8.569194747472066
 30
0.0
 10
7.667054491580487
 20
8.612143807338448
 30
0.0
 10
7.576584091444611
 20
8.624682687287077
 30
0.0
 10
7.4895857547108875
 20
8.606981377186653
 30
0.0
 10
7.414547617345532
 20
8.559210205794875
 30
0.0
 10
7.132019342044464
 20
8.303566569307122
 30
0.0
 10
7.07430739135175
 20
8.254499903491947
 30
0.0
 10
7.012878961510959
 20
8.21145844069177
 30
0.0
 10
6.948151553280355
 20
8.174461462592364
 30
0.0
 10
6.880541199336926
 20
8.143528081435012
 30
0.0
 10
6.810462464276377
 20
8.118677240016492
 30
0.0
 10
6.738333729152999
 20
8.099927580450084
 30
0.0
 10
6.664570146347754
 20
8.087298854549566
 30
0.0
 10
6.589587160752374
 20
8.080809365539224
 30
0.0
 10
6.513801685339871
 20
8.080477586087836
 30
0.0
 10
6.43762975278723
 20
8.086322628436683
 30
0.0
 10
6.361488863852718
 20
8.09836377427154
 30
0.0
 10
6.285792115050762
 20
8.116619796944697
 30
0.0
 10
6.210958475220905
 20
8.141110147586419
 30
0.0
 10
6.137403389254882
 20
8.171853129420999
 30
0.0
 10
6.065542302044425
 20
8.208867045672715
 30
0.0
 10
5.995791541541
 20
8.252173266189338
 30
0.0
 10
5.93301397552371
 20
8.305082819112702
 30
0.0
 10
5.875570686585272
 20
8.361959644199349
 30
0.0
 10
5.823571471286228
 20
8.42240135583649
 30
0.0
 10
5.777126711208669
 20
8.48600267123235
 30
0.0
 10
5.736350311882484
 20
8.552359455501136
 30
0.0
 10
5.701350601786939
 20
8.621069153585564
 30
0.0
 10
5.672239430585397
 20
8.69172665213835
 30
0.0
 10
5.649128355430452
 20
8.763928286401708
 30
0.0
 10
5.632128053178668
 20
8.837271031190346
 30
0.0
 10
5.621348905412131
 20
8.91134960371249
 30
0.0
 10
5.616903057068688
 20
8.985761148227345
 30
0.0
 10
5.618901477515674
 20
9.060101190960125
 30
0.0
 10
5.627455723905683
 20
9.133966067153052
 30
0.0
 10
5.642675005014004
 20
9.20695258217633
 30
0.0
 10
5.664672050800025
 20
9.278654983110185
 30
0.0
 10
5.693556657824288
 20
9.348670884341825
 30
0.0
 10
5.849692029896582
 20
9.696144340263348
 30
0.0
 10
5.871446729181881
 20
9.78262819545863
 30
0.0
 10
5.8612286941300304
 20
9.870961334079652
 30
0.0
 10
5.821351020998081
 20
9.953125872803657
 30
0.0
 10
5.754130622501671
 20
10.021103627624376
 30
0.0
 10
5.377880267807237
 20
10.22794901050682
 30
0.0
 10
5.284426804305991
 20
10.248296389404185
 30
0.0
 10
5.193680405514215
 20
10.237942263780289
 30
0.0
 10
5.113817418319276
 20
10.199161466341263
 30
0.0
 10
5.0530169492478905
 20
10.134229888229346
 30
0.0
 10
4.842940806361114
 20
9.816355841772115
 30
0.0
 10
4.799244366309397
 20
9.754478316984978
 30
0.0
 10
4.750449800078222
 20
9.697512451600561
 30
0.0
 10
4.696956696711542
 20
9.64558074975149
 30
0.0
 10
4.639163265433639
 20
9.598805186352337
 30
0.0
 10
4.57746633564912
 20
9.557307207099617
 30
0.0
 10
4.512266508097059
 20
9.521208915567522
 30
0.0
 10
4.443960980306617
 20
9.490632687229061
 30
0.0
 10
4.37294759337752
 20
9.465699567222313
 30
0.0
 10
4.299625568229171
 20
9.446531129903422
 30
0.0
 10
4.22439311408585
 20
9.433249350186953
 30
0.0
 10
4.147649819991509
 20
9.425976732205534
 30
0.0
 10
4.069791135531085
 20
9.42483419243763
 30
0.0
 10
3.9912180295682025
 20
9.429944764233916
 30
0.0
 10
3.9123283432025913
 20
9.441429492732482
 30
0.0
 10
3.8335199175339776
 20
9.459409423071408
 30
0.0
 10
3.7551906863406295
 20
9.484008790276674
 30
0.0
 10
3.681227322253186
 20
9.519643946491762
 30
0.0
 10
3.611444028654475
 20
9.560448316484669
 30
0.0
 10
3.546047221876828
 20
9.606059461620816
 30
0.0
 10
3.4852446053937114
 20
9.65611228259579
 30
0.0
 10
3.4292470104424853
 20
9.710243668317766
 30
0.0
 10
3.3782594735358087
 20
9.76809065093411
 30
0.0
 10
3.3324910779668206
 20
9.829288660358461
 30
0.0
 10
3.292150263458089
 20
9.893474456839375
 30
0.0
 10
3.2574444580370665
 20
9.96028520118384
 30
0.0
 10
3.2285813651772166
 20
10.02935579408744
 30
0.0
 10
3.205769792725663
 20
10.10032392557522
 30
0.0
 10
3.189217812280423
 20
10.172825426119244
 30
0.0
 10
3.1791338635640676
 20
10.246497055968074
 30
0.0
 10
3.1757239947843745
 20
10.320975446710644
 30
0.0
 10
3.1791983009296008
 20
10.395895627702155
 30
0.0
 10
3.189763198332077
 20
10.470895160308032
 30
0.0
 10
3.254580156031948
 20
10.846281386715892
 30
0.0
 10
3.2541437312450108
 20
10.935458366278093
 30
0.0
 10
3.222279156277385
 20
11.018475234931966
 30
0.0
 10
3.163220823712563
 20
11.088141249550358
 30
0.0
 10
3.0812068974684994
 20
11.137266324883786
 30
0.0
 10
2.665336784613195
 20
11.244043621446231
 30
0.0
 10
2.569759146154653
 20
11.240510818726035
 30
0.0
 10
2.484438678684972
 20
11.207914275322373
 30
0.0
 10
2.416729126229798
 20
11.150490730673637
 30
0.0
 10
2.373986642532619
 20
11.07247863569599
 30
0.0
 10
2.24956248872372
 20
10.712347374667157
 30
0.0
 10
2.222627167345714
 20
10.641546983360048
 30
0.0
 10
2.1895324067743207
 20
10.574236090219294
 30
0.0
 10
2.1506347766899663
 20
10.510632724439171
 30
0.0
 10
2.1062896419141524
 20
10.450954059475075
 30
0.0
 10
2.0568511624094605
 20
10.395416413043495
 30
0.0
 10
2.0026769873820034
 20
10.344237677962909
 30
0.0
 10
1.944121402127596
 20
10.29763516406451
 30
0.0
 10
1.8815396461345073
 20
10.255825052688984
 30
0.0
 10
1.815288163749928
 20
10.219024380915913
 30
0.0
 10
1.745722319795362
 20
10.187450322200684
 30
0.0
 10
1.6731986839512332
 20
10.161320905737579
 30
0.0
 10
1.5980702113212004
 20
10.140851593504202
 30
0.0
 10
1.5206946764446108
 20
10.126261270433721
 30
0.0
 10
1.4414273188097333
 20
10.117766117866832
 30
0.0
 10
1.3606233779048373
 20
10.115582317144213
 30
0.0
 10
1.2786373896922048
 20
10.11992916232647
 30
0.0
 10
1.1981356177184483
 20
10.136050833911355
 30
0.0
 10
1.1203970604412723
 20
10.158218860175891
 30
0.0
 10
1.045711784067493
 20
10.186133522816084
 30
0.0
 10
0.9743717631888344
 20
10.219492846546915
 30
0.0
 10
0.9066715074481
 20
10.257997559675854
 30
0.0
 10
0.8428998781931831
 20
10.30134708816001
 30
0.0
 10
0.7833500548747308
 20
10.349240312453258
 30
0.0
 10
0.7283142627509354
 20
10.401377241499986
 30
0.0
 10
0.6780836475543008
 20
10.457458020620388
 30
0.0
 10
0.6329501838765522
 20
10.517180674529442
 30
0.0
 10
0.5932062223091155
 20
10.580246204286237
 30
0.0
 10
0.5591438627769493
 20
10.646353626720455
 30
0.0
 10
0.5310553305382464
 20
10.715202950776488
 30
0.0
 10
0.5092305664665882
 20
10.786493466035628
 30
0.0
 10
0.4939638295383103
 20
10.859923916575948
 30
0.0
 10
0.4855451859602281
 20
10.93519458409345
 30
0.0
 10
0.454971041455299
 20
11.314906683808472
 30
0.0
 10
0.432370914770546
 20
11.401173470141714
 30
0.0
 10
0.38086196832207175
 20
11.473657813656228
 30
0.0
 10
0.30633382856077707
 20
11.526447932256854
 30
0.0
 10
0.21467961118109558
 20
11.553633618950403
 30
0.0
 10
-0.2146796111810978
 20
11.553633618950403
 30
0.0
 10
-0.30637593006261965
 20
11.526442613600294
 30
0.0
 10
-0.3809094674523552
 20
11.473651813120622
 30
0.0
 10
-0.4322111449686924
 20
11.401193653761476
 30
0.0
 10
-0.45420997584511
 20
11.315002828753965
 30
0.0
 10
-0.4851641133922907
 20
10.9352427247541
 30
0.0
 10
-0.4936458707932233
 20
10.859968115898472
 30
0.0
 10
-0.5089613601841183
 20
10.786541585969559
 30
0.0
 10
-0.5308194358324715
 20
10.71526298964717
 30
0.0
 10
-0.558929906198234
 20
10.646431053120603
 30
0.0
 10
-0.5930035339338108
 20
10.580343374088635
 30
0.0
 10
-0.6327480937810093
 20
10.517299943606886
 30
0.0
 10
-0.6778744737254688
 20
10.457599351488845
 30
0.0
 10
-0.7280923568939061
 20
10.401539331809097
 30
0.0
 10
-0.7831104722205834
 20
10.349418747132754
 30
0.0
 10
-0.8426386281654519
 20
10.301536323649108
 30
0.0
 10
-0.906385678996007
 20
10.258191916037966
 30
0.0
 10
-0.9740633415571087
 20
10.219681993507603
 30
0.0
 10
-1.0453795159237982
 20
10.186307539228329
 30
0.0
 10
-1.1200438852227934
 20
10.158366287274745
 30
0.0
 10
-1.19776613258081
 20
10.136155971721443
 30
0.0
 10
-1.278257396649955
 20
10.119977166611312
 30
0.0
 10
-1.3602393541121058
 20
10.115572369648952
 30
0.0
 10
-1.4410485756116072
 20
10.117711153566619
 30
0.0
 10
-1.5203295709937223
 20
10.126175352794226
 30
0.0
 10
-1.5977244403858724
 20
10.140745090283895
 30
0.0
 10
-1.6728735008638007
 20
10.16120373808348
 30
0.0
 10
-1.745422216465226
 20
10.187332002132376
 30
0.0
 10
-1.8150117331251132
 20
10.218911133873219
 30
0.0
 10
-1.8812844016373498
 20
10.255723240487544
 30
0.0
 10
-1.9438836523215113
 20
10.297550292781066
 30
0.0
 10
-2.0024515853050175
 20
10.344172413705909
 30
0.0
 10
-2.0566306767149896
 20
10.395372702558308
 30
0.0
 10
-2.1060631520120805
 20
10.450932274405087
 30
0.0
 10
-2.1503913619901773
 20
10.510633236427777
 30
0.0
 10
-2.189259691161311
 20
10.574256430941585
 30
0.0
 10
-2.2223082059347585
 20
10.64158324576496
 30
0.0
 10
-2.249181416155783
 20
10.712395515327808
 30
0.0
 10
-2.3732255769224304
 20
11.072574780641482
 30
0.0
 10
-2.416569356427944
 20
11.150510914293399
 30
0.0
 10
-2.484486177815256
 20
11.207908274786767
 30
0.0
 10
-2.5698012476564953
 20
11.240505500069474
 30
0.0
 10
-2.6653367846131966
 20
11.244043621446231
 30
0.0
 10
-3.0812068974685056
 20
11.137266324883786
 30
0.0
 10
-3.163260279822211
 20
11.08812562777143
 30
0.0
 10
-3.222323670862629
 20
11.01845761036087
 30
0.0
 10
-3.2539940003674053
 20
10.93551764892632
 30
0.0
 10
-3.2538669109730565
 20
10.846563780411845
 30
0.0
 10
-3.1894060699550746
 20
10.471036557435225
 30
0.0
 10
-3.178901323367711
 20
10.39601751154612
 30
0.0
 10
-3.175475213053248
 20
10.321089003748371
 30
0.0
 10
-3.1789203109842346
 20
10.246613873234992
 30
0.0
 10
-3.1890298327037865
 20
10.17295362886407
 30
0.0
 10
-3.205597637325585
 20
10.100468449158777
 30
0.0
 10
-3.2284152851270593
 20
10.029521573870554
 30
0.0
 10
-3.257277003346444
 20
9.960474111299064
 30
0.0
 10
-3.2919756394023016
 20
9.893686640525905
 30
0.0
 10
-3.332303397142628
 20
9.829521070967605
 30
0.0
 10
-3.3780534921105394
 20
9.768338911482253
 30
0.0
 10
-3.4290184962785837
 20
9.710503001262863
 30
0.0
 10
-3.484992912331009
 20
9.656372188497683
 30
0.0
 10
-3.5457686686697967
 20
9.606310642714641
 30
0.0
 10
-3.6111386127135114
 20
9.560678942995347
 30
0.0
 10
-3.680895591880714
 20
9.519837668421399
 30
0.0
 10
-3.754834569658745
 20
9.48414978684543
 30
0.0
 10
-3.8331454847133943
 20
9.459495290928682
 30
0.0
 10
-3.91194782985288
 20
9.441470444840038
 30
0.0
 10
-3.990843027728368
 20
9.42995234388844
 30
0.0
 10
-4.069429741351682
 20
9.424817024946726
 30
0.0
 10
-4.1473057147180645
 20
9.425944115334064
 30
0.0
 10
-4.224073014049248
 20
9.433209380024474
 30
0.0
 10
-4.2993296587864895
 20
9.446490186225713
 30
0.0
 10
-4.372675048190719
 20
9.465664430363598
 30
0.0
 10
-4.4437095932179815
 20
9.4906096083055
 30
0.0
 10
-4.512031956880102
 20
9.52120175692426
 30
0.0
 10
-4.577241906562561
 20
9.557319702422173
 30
0.0
 10
-4.638938473401733
 20
9.598840411448567
 30
0.0
 10
-4.696721056658548
 20
9.645641780429253
 30
0.0
 10
-4.75019071085962
 20
9.697599974896683
 30
0.0
 10
-4.798944443751085
 20
9.754592762617055
 30
0.0
 10
-4.842583677984112
 20
9.816497238899307
 30
0.0
 10
-5.052303704188997
 20
10.134512281925296
 30
0.0
 10
-5.11366768744167
 20
10.19922074898949
 30
0.0
 10
-5.1937249200994575
 20
10.237924639209192
 30
0.0
 10
-5.284466260415639
 20
10.248280767625255
 30
0.0
 10
-5.377880267807243
 20
10.227949010506816
 30
0.0
 10
-5.7541306225016715
 20
10.021103627624374
 30
0.0
 10
-5.821385352543047
 20
9.953100929476188
 30
0.0
 10
-5.861267427155118
 20
9.870933192889687
 30
0.0
 10
-5.871316445370225
 20
9.782722852188508
 30
0.0
 10
-5.849071421199159
 20
9.696595238875277
 30
0.0
 10
-5.693245913327564
 20
9.348896653434037
 30
0.0
 10
-5.664414714613744
 20
9.278846893065424
 30
0.0
 10
-5.642462279705334
 20
9.207124441111548
 30
0.0
 10
-5.627277931745766
 20
9.1341323227577
 30
0.0
 10
-5.618751286389248
 20
9.06027211459968
 30
0.0
 10
-5.616772251800757
 20
8.985943944643784
 30
0.0
 10
-5.621229270827703
 20
8.911551477647805
 30
0.0
 10
-5.632012839420314
 20
8.837495650635036
 30
0.0
 10
-5.649011985447546
 20
8.764177231184279
 30
0.0
 10
-5.672115444267578
 20
8.691998435463827
 30
0.0
 10
-5.70121283153462
 20
8.62136084006948
 30
0.0
 10
-5.7361934703921005
 20
8.552667470186524
 30
0.0
 10
-5.776947561515773
 20
8.486317005231767
 30
0.0
 10
-5.823364135538297
 20
8.42271391897999
 30
0.0
 10
-5.875332220328628
 20
8.362258979009999
 30
0.0
 10
-5.932740843755717
 20
8.30535295290059
 30
0.0
 10
-5.995481677340302
 20
8.252398395709053
 30
0.0
 10
-6.065200987187167
 20
8.209043333489257
 30
0.0
 10
-6.137045014806771
 20
8.171987424764795
 30
0.0
 10
-6.2105971397368736
 20
8.141210748277395
 30
0.0
 10
-6.285437805352682
 20
8.116693043879788
 30
0.0
 10
-6.361147457793114
 20
8.098417757620695
 30
0.0
 10
-6.437309769106701
 20
8.086363519652345
 30
0.0
 10
-6.513504890157877
 20
8.080511518416968
 30
0.0
 10
-6.589314439892358
 20
8.080843111801292
 30
0.0
 10
-6.664320917551877
 20
8.08733901811954
 30
0.0
 10
-6.738104766511644
 20
8.099978977224445
 30
0.0
 10
-6.810248193502621
 20
8.118745156019731
 30
0.0
 10
-6.880332229685268
 20
8.143618103375125
 30
0.0
 10
-6.947938494005301
 20
8.174579177177353
 30
0.0
 10
-7.0126497782152235
 20
8.211607647151146
 30
0.0
 10
-7.07404535288345
 20
8.25468534131123
 30
0.0
 10
-7.13170859754774
 20
8.303792338399333
 30
0.0
 10
-7.413927008648108
 20
8.559661104406803
 30
0.0
 10
-7.48945547089923
 20
8.607076033916531
 30
0.0
 10
-7.576622824469699
 20
8.62465454609711
 30
0.0
 10
-7.667088823125451
 20
8.612118864010977
 30
0.0
 10
-7.752511755314856
 20
8.569194747472064
 30
0.0
 10
-8.06550115831095
 20
8.275278134400233
 30
0.0
 10
-8.113731374005898
 20
8.192686294837294
 30
0.0
 10
-8.131926194765738
 20
8.10318174015638
 30
0.0
 10
-8.119722484919016
 20
8.015243600309766
 30
0.0
 10
-8.076757262651377
 20
7.937353956897455
 30
0.0
 10
-7.839358177671873
 20
7.63933118986082
 30
0.0
 10
-7.7940120970805165
 20
7.57865219908165
 30
0.0
 10
-7.754912689798862
 20
7.514642388404635
 30
0.0
 10
-7.722052984375164
 20
7.447719645452729
 30
0.0
 10
-7.695425932429135
 20
7.378300382025021
 30
0.0
 10
-7.675024408651931
 20
7.306799534096741
 30
0.0
 10
-7.6608407480071135
 20
7.233635827690715
 30
0.0
 10
-7.652868595699088
 20
7.159224836206161
 30
0.0
 10
-7.651100132834316
 20
7.083982334018181
 30
0.0
 10
-7.655527617447815
 20
7.008325571325737
 30
0.0
 10
-7.666144001159292
 20
6.932670959927922
 30
0.0
 10
-7.682942312517003
 20
6.857436387447688
 30
0.0
 10
-7.70591534928356
 20
6.783035314036402
 30
0.0
 10
-7.735056216935766
 20
6.70988710314088
 30
0.0
 10
-7.770357096580091
 20
6.638407529136222
 30
0.0
 10
-7.811810169322995
 20
6.569012366397531
 30
0.0
 10
-7.8594106213953685
 20
6.502118463172004
 30
0.0
 10
-7.916157605387086
 20
6.442786992657198
 30
0.0
 10
-7.976529091007618
 20
6.389028380324178
 30
0.0
 10
-8.040116592477183
 20
6.340926940073374
 30
0.0
 10
-8.106508695820132
 20
6.298567387756985
 30
0.0
 10
-8.175294911431155
 20
6.26203802829892
 30
0.0
 10
-8.246066676601925
 20
6.231421699775748
 30
0.0
 10
-8.31841265428534
 20
6.206804593863529
 30
0.0
 10
-8.391922971532232
 20
6.1882727012624414
 30
0.0
 10
-8.466188448978134
 20
6.175911174272786
 30
0.0
 10
-8.540797672647388
 20
6.16980472874676
 30
0.0
 10
-8.615341540104076
 20
6.1700399928085305
 30
0.0
 10
-8.689409407885789
 20
6.176702319734282
 30
0.0
 10
-8.762591403043363
 20
6.189877700224196
 30
0.0
 10
-8.834478269283773
 20
6.209649810754709
 30
0.0
 10
-8.904657975975224
 20
6.236105681401754
 30
0.0
 10
-8.972722037337943
 20
6.269329626065764
 30
0.0
 10
-9.309706012637644
 20
6.446974939466964
 30
0.0
 10
-9.394653222829726
 20
6.474117077021223
 30
0.0
 10
-9.48345365190894
 20
6.469465688593126
 30
0.0
 10
-9.567959997498052
 20
6.434825859013282
 30
0.0
 10
-9.64002441749223
 20
6.372006463159893
 30
0.0
 10
-9.87008659350524
 20
6.00948648164766
 30
0.0
 10
-9.896261813023326
 20
5.917495049701247
 30
0.0
 10
-9.891626132426724
 20
5.826277577271247
 30
0.0
 10
-9.857936498489947
 20
5.744137115019616
 30
0.0
 10
-9.796950741055843
 20
5.679379534261891
 30
0.0
 10
-9.492894736570452
 20
5.449758452133838
 30
0.0
 10
-9.433883035116335
 20
5.402262915096487
 30
0.0
 10
-9.380093415018504
 20
5.349987717512786
 30
0.0
 10
-9.33162304827199
 20
5.293339352027119
 30
0.0
 10
-9.288568665337666
 20
5.2327229009570795
 30
0.0
 10
-9.251026555142223
 20
5.1685420362934735
 30
0.0
 10
-9.219093426387813
 20
5.101204235228181
 30
0.0
 10
-9.192866472828188
 20
5.0311135955313
 30
0.0
 10
-9.17244152009716
 20
4.958674773741133
 30
0.0
 10
-9.157914835362709
 20
4.884293836722772
 30
0.0
 10
-9.1493831490857
 20
4.808375866793813
 30
0.0
 10
-9.146943633261172
 20
4.731327356598637
 30
0.0
 10
-9.15069213528165
 20
4.653550567801262
 30
0.0
 10
-9.160726268676338
 20
4.575453403372859
 30
0.0
 10
-9.177141859079049
 20
4.497440519851733
 30
0.0
 10
-9.200034732123594
 20
4.419916573776186
 30
0.0
 10
-9.229503891217831
 20
4.343286514474898
 30
0.0
 10
-9.269712927649394
 20
4.271706650163411
 30
0.0
 10
-9.314818508798522
 20
4.204623185545062
 30
0.0
 10
-9.364445950231746
 20
4.142219371926537
 30
0.0
 10
-9.41821783127572
 20
4.084679578150939
 30
0.0
 10
-9.475758519152492
 20
4.032191419494239
 30
0.0
 10
-9.536692887894418
 20
3.9849367369363367
 30
0.0
 10
-9.600643958362326
 20
3.9431013096471226
 30
0.0
 10
-9.667236119536975
 20
3.9068703580282813
 30
0.0
 10
-9.736094223692008
 20
3.876428117933999
 30
0.0
 10
-9.806840850154083
 20
3.851958958207377
 30
0.0
 10
-9.879101292731011
 20
3.8336485250293904
 30
0.0
 10
-9.952499035576501
 20
3.8216816130224327
 30
0.0
 10
-10.026658467671314
 20
3.81624344258819
 30
0.0
 10
-10.101203999754926
 20
3.817516839254056
 30
0.0
 10
-10.175758189395275
 20
3.825688566737421
 30
0.0
 10
-10.249946352158894
 20
3.8409418763449743
 30
0.0
 10
-10.620521949149481
 20
3.929201628765149
 30
0.0
 10
-10.709550361652166
 20
3.934365534039602
 30
0.0
 10
-10.79440420869595
 20
3.9077765088443788
 30
0.0
 10
-10.867641056732458
 20
3.853209079659705
 30
0.0
 10
-10.921818891988776
 20
3.774441578166887
 30
0.0
 10
-11.054498188390305
 20
3.366096691907908
 30
0.0
 10
-11.056973726423479
 20
3.2704858275680335
 30
0.0
 10
-11.02979882133116
 20
3.183286966656122
 30
0.0
 10
-10.976740106906384
 20
3.1121053693342327
 30
0.0
 10
-10.901565773735328
 20
3.0645488081918226
 30
0.0
 10
-10.549957806745628
 20
2.917757348049724
 30
0.0
 10
-10.480988406660968
 20
2.8864295840226157
 30
0.0
 10
-10.41588837340209
 20
2.8491736424511416
 30
0.0
 10
-10.354852916736984
 20
2.806359079573293
 30
0.0
 10
-10.298076468037072
 20
2.7583541954133652
 30
0.0
 10
-10.245752680277196
 20
2.705526033781955
 30
0.0
 10
-10.198076559334666
 20
2.6482452197494384
 30
0.0
 10
-10.15524274047158
 20
2.5868789845077274
 30
0.0
 10
-10.117444672772105
 20
2.5217954406998007
 30
0.0
 10
-10.08487658371698
 20
2.4533639571823374
 30
0.0
 10
-10.057732904677621
 20
2.3819528339796316
 30
0.0
 10
-10.036208845422015
 20
2.307931627329676
 30
0.0
 10
-10.020497280528446
 20
2.23166612482937
 30
0.0
 10
-10.010794198161463
 20
2.1535271389304036
 30
0.0
 10
-10.00729304740524
 20
2.0738827822757573
 30
0.0
 10
-10.010187277343938
 20
1.993101167508411
 30
0.0
 10
-10.019673487814167
 20
1.9115499005829055
 30
0.0
 10
-10.040818095048087
 20
1.8322192686017547
 30
0.0
 10
-10.067823622175487
 20
1.756026052495771
 30
0.0
 10
-10.100372728910155
 20
1.6832409266243493
 30
0.0
 10
-10.138145702610021
 20
1.614136328249023
 30
0.0
 10
-10.180825369713395
 20
1.5489873944400339
 30
0.0
 10
-10.228093611537492
 20
1.4880635433430793
 30
0.0
 10
-10.27963149383681
 20
1.4316384684333898
 30
0.0
 10
-10.335121268543771
 20
1.3799849817351268
 30
0.0
 10
-10.394245391481487
 20
1.3333748264400689
 30
0.0
 10
-10.456684150007877
 20
1.292080439809748
 30
0.0
 10
-10.522120778342622
 20
1.2563748212496408
 30
0.0
 10
-10.590236546130889
 20
1.2265305954025938
 30
0.0
 10
-10.660713705305112
 20
1.2028205742927693
 30
0.0
 10
-10.733233933291823
 20
1.1855152448982476
 30
0.0
 10
-10.807478091954835
 20
1.1748893695266411
 30
0.0
 10
-10.883128841007938
 20
1.1712136225373466
 30
0.0
 10
-11.264011432048783
 20
1.1645421291352718
 30
0.0
 10
-11.351527064280932
 20
1.1474033349700115
 30
0.0
 10
-11.427102650008901
 20
1.1005473592482715
 30
0.0
 10
-11.484468259984387
 20
1.0294810027194086
 30
0.0
 10
-11.51735531786155
 20
0.9397146473925608
 30
0.0
 10
-11.544315006498374
 20
0.5112026673779091
 30
0.0
 10
-11.522935315887626
 20
0.4179799528832102
 30
0.0
 10
-11.474928685528848
 20
0.3402787286154596
 30
0.0
 10
-11.405834764779682
 20
0.2845285977706489
 30
0.0
 10
-11.321195335696668
 20
0.25716120988092905
 30
0.0
 10
-10.944128227892273
 20
0.20242281902673998
 30
0.0
 10
-10.869534730236099
 20
0.18923126663915424
 30
0.0
 10
-10.797214758327005
 20
0.1693355089066103
 30
0.0
 10
-10.727449293958284
 20
0.1430449450831438
 30
0.0
 10
-10.66051825257377
 20
0.11066795125470985
 30
0.0
 10
-10.596700483267844
 20
0.07251188033918587
 30
0.0
 10
-10.536277036156518
 20
0.028887217549205535
 30
0.0
 10
-10.479527758360907
 20
-0.019898746987874083
 30
0.0
 10
-10.426731567298113
 20
-0.07353757439557751
 30
0.0
 10
-10.3781684467347
 20
-0.1317198026293498
 30
0.0
 10
-10.3341183121145
 20
-0.19413705560323535
 30
0.0
 10
-10.294862145230802
 20
-0.26047993406319897
 30
0.0
 10
-10.260677728828538
 20
-0.3304421082594431
 30
0.0
 10
-10.231847111050444
 20
-0.40371315576985334
 30
0.0
 10
-10.208649209313633
 20
-0.4799846377179545
 30
0.0
 10
-10.191362941035203
 20
-0.5589481152272707
 30
0.0
 10
-10.180270149389735
 20
-0.6402964237514842
 30
0.0
 10
-10.181021733989077
 20
-0.7223931880372679
 30
0.0
 10
-10.188230350505956
 20
-0.8029086556438996
 30
0.0
 10
-10.201655942458691
 20
-0.8815017366247482
 30
0.0
 10
-10.221056593957604
 20
-0.9578290435349466
 30
0.0
 10
-10.246193519838638
 20
-1.0315452053839889
 30
0.0
 10
-10.276825597270664
 20
-1.1023101553933228
 30
0.0
 10
-10.312711976713453
 20
-1.1697794829500026
 30
0.0
 10
-10.353612738330778
 20
-1.2336099261901996
 30
0.0
 10
-10.399287893963683
 20
-1.2934593092086848
 30
0.0
 10
-10.449495527722485
 20
-1.3489842445605902
 30
0.0
 10
-10.503996717797685
 20
-1.3998415331726077
 30
0.0
 10
-10.562550546326325
 20
-1.4456878503903892
 30
0.0
 10
-10.624917093472181
 20
-1.4861799343501068
 30
0.0
 10
-10.690855304726844
 20
-1.5209766323146097
 30
0.0
 10
-10.760124398872808
 20
-1.549732447712353
 30
0.0
 10
-10.832484319428398
 20
-1.5721062905967065
 30
0.0
 10
-11.199741650536218
 20
-1.673289835354542
 30
0.0
 10
-11.280245573464704
 20
-1.7116544354900365
 30
0.0
 10
-11.341794205878008
 20
-1.7758332284594724
 30
0.0
 10
-11.37968408554176
 20
-1.8589331517880396
 30
0.0
 10
-11.389213951243208
 20
-1.9540580107061698
 30
0.0
 10
-11.308760055727475
 20
-2.375812100815331
 30
0.0
 10
-11.264868501062875
 20
-2.4607891394639916
 30
0.0
 10
-11.19904657857912
 20
-2.5241104734017252
 30
0.0
 10
-11.118258876655899
 20
-2.560926152013839
 30
0.0
 10
-11.029472558272262
 20
-2.5663847730195455
 30
0.0
 10
-10.650638822792335
 20
-2.525630680174737
 30
0.0
 10
-10.575108211358076
 20
-2.5198571471711526
 30
0.0
 10
-10.50011243060807
 20
-2.5211425974349515
 30
0.0
 10
-10.426000579241446
 20
-2.529257229389078
 30
0.0
 10
-10.353120468657673
 20
-2.5439719672895236
 30
0.0
 10
-10.281818622956525
 20
-2.565058461225327
 30
0.0
 10
-10.212444477080304
 20
-2.5922858747693898
 30
0.0
 10
-10.14534550618531
 20
-2.625426167027746
 30
0.0
 10
-10.08086857061448
 20
-2.664249953239392
 30
0.0
 10
-10.019361818010443
 20
-2.708527122810278
 30
0.0
 10
-9.961173059772651
 20
-2.7580285999963956
 30
0.0
 10
-9.906651394600246
 20
-2.8125245832206884
 30
0.0
 10
-9.856142059293331
 20
-2.8717874484052426
 30
0.0
 10
-9.80999543985072
 20
-2.935586668139955
 30
0.0
 10
-9.768558396615358
 20
-3.0036928576638227
 30
0.0
 10
-9.732177789930185
 20
-3.0758766322158424
 30
0.0
 10
-9.701202997064536
 20
-3.1519105689360374
 30
0.0
 10
-9.681514334204792
 20
-3.2316150238955994
 30
0.0
 10
-9.668473096223956
 20
-3.3113936600579774
 30
0.0
 10
-9.661931594076494
 20
-3.3908564038250937
 30
0.0
 10
-9.66174090909017
 20
-3.4696104938647983
 30
0.0
 10
-9.667755648248614
 20
-3.5472620261958387
 30
0.0
 10
-9.679826835206617
 20
-3.623421653053185
 30
0.0
 10
-9.697806838591616
 20
-3.6976958872716392
 30
0.0
 10
-9.721548641844404
 20
-3.76969258555304
 30
0.0
 10
-9.750904892162612
 20
-3.8390206394492665
 30
0.0
 10
-9.785726670874
 20
-3.905287287628169
 30
0.0
 10
-9.825867912475875
 20
-3.96810069580858
 30
0.0
 10
-9.871180649352516
 20
-4.027068411675343
 30
0.0
 10
-9.921517864944716
 20
-4.081798291930296
 30
0.0
 10
-9.976730919150423
 20
-4.131899953958367
 30
0.0
 10
-10.03667251684024
 20
-4.176978875744316
 30
0.0
 10
-10.101194968968635
 20
-4.216644983690066
 30
0.0
 10
-10.431750911351948
 20
-4.40598284555948
 30
0.0
 10
-10.500184767426454
 20
-4.463162662743566
 30
0.0
 10
-10.54383911959053
 20
-4.540631683365339
 30
0.0
 10
-10.559872508454038
 20
-4.630543699690737
 30
0.0
 10
-10.545446385469358
 20
-4.725050017469564
 30
0.0
 10
-10.36263411994505
 20
-5.1135458570886545
 30
0.0
 10
-10.298988569028023
 20
-5.184937800029294
 30
0.0
 10
-10.219487187885038
 20
-5.229900531346127
 30
0.0
 10
-10.132081893215984
 20
-5.24546849323975
 30
0.0
 10
-10.044727456449003
 20
-5.22867536212825
 30
0.0
 10
-9.687930610146768
 20
-5.094989515120953
 30
0.0
 10
-9.616208751033001
 20
-5.070613669038382
 30
0.0
 10
-9.543249422161788
 20
-5.053208042265807
 30
0.0
 10
-9.469447903982955
 20
-5.042636870181386
 30
0.0
 10
-9.395198049582197
 20
-5.038764771054538
 30
0.0
 10
-9.320892284681076
 20
-5.041456746045934
 30
0.0
 10
-9.246926472765624
 20
-5.050576111815683
 30
0.0
 10
-9.173693883885331
 20
-5.065988405351255
 30
0.0
 10
-9.101587526797964
 20
-5.087557709095268
 30
0.0
 10
-9.031001837625423
 20
-5.115147722599089
 30
0.0
 10
-8.962330669453406
 20
-5.1486230641321376
 30
0.0
 10
-8.895969302731734
 20
-5.18784796907257
 30
0.0
 10
-8.832308735817843
 20
-5.232687821472317
 30
0.0
 10
-8.771745676525688
 20
-5.283006473818283
 30
0.0
 10
-8.714673133613037
 20
-5.338668008553088
 30
0.0
 10
-8.66148411583766
 20
-5.399536508119356
 30
0.0
 10
-8.612573581904899
 20
-5.465478581158143
 30
0.0
 10
-8.573681782683384
 20
-5.537782602753894
 30
0.0
 10
-8.541210119149486
 20
-5.611811622356637
 30
0.0
 10
-8.515112549539715
 20
-5.687151092475604
 30
0.0
 10
-8.495342509507136
 20
-5.763383556530337
 30
0.0
 10
-8.481857133761002
 20
-5.840091327984657
 30
0.0
 10
-8.474608953173686
 20
-5.916860242239054
 30
0.0
 10
-8.473552830762388
 20
-5.993272459821811
 30
0.0
 10
-8.478643890836025
 20
-6.068911595806061
 30
0.0
 10
-8.489836674667307
 20
-6.143362183982983
 30
0.0
 10
-8.507084617909301
 20
-6.216206767772118
 30
0.0
 10
-8.530343689198848
 20
-6.287029498073391
 30
0.0
 10
-8.55956816851694
 20
-6.355413454133137
 30
0.0
 10
-8.594713180172494
 20
-6.4209422510244885
 30
0.0
 10
-8.635731838074092
 20
-6.48320080542988
 30
0.0
 10
-8.682579588275134
 20
-6.541770359159547
 30
0.0
 10
-8.73521038901213
 20
-6.596236364722721
 30
0.0
 10
-9.008294897111272
 20
-6.861831749506512
 30
0.0
 10
-9.060358735472521
 20
-6.934233965532857
 30
0.0
 10
-9.083375843891424
 20
-7.020125550330171
 30
0.0
 10
-9.07654530516572
 20
-7.1112001569934105
 30
0.0
 10
-9.039069639857605
 20
-7.199149754116968
 30
0.0
 10
-8.765385771304096
 20
-7.529976720854957
 30
0.0
 10
-8.685985308170721
 20
-7.583297749751416
 30
0.0
 10
-8.597799832531352
 20
-7.607076704677352
 30
0.0
 10
-8.509268941234707
 20
-7.600418757551749
 30
0.0
 10
-8.428835186613595
 20
-7.5624290485115955
 30
0.0
 10
-8.116494087549235
 20
-7.34421142077143
 30
0.0
 10
-8.053087528938622
 20
-7.302764885667332
 30
0.0
 10
-7.986748954904825
 20
-7.267761841401921
 30
0.0
 10
-7.917894990723953
 20
-7.239169090899068
 30
0.0
 10
-7.846940783930072
 20
-7.216953452973651
 30
0.0
 10
-7.774300004315203
 20
-7.201081762331539
 30
0.0
 10
-7.7003900703503945
 20
-7.191520077036979
 30
0.0
 10
-7.625625336374774
 20
-7.188235960764475
 30
0.0
 10
-7.550420265375299
 20
-7.1911955033602695
 30
0.0
 10
-7.475190798080975
 20
-7.20036477877961
 30
0.0
 10
-7.400352082025868
 20
-7.215710605837372
 30
0.0
 10
-7.326320742486087
 20
-7.2371997874574285
 30
0.0
 10
-7.253508971511607
 20
-7.26479917423665
 30
0.0
 10
-7.182334872120585
 20
-7.298475553207913
 30
0.0
 10
-7.113212907299978
 20
-7.338195014217464
 30
0.0
 10
-7.046557540036748
 20
-7.383923647111549
 30
0.0
 10
-6.982784493764233
 20
-7.43563047350192
 30
0.0
 10
-6.927133272960065
 20
-7.495990934141409
 30
0.0
 10
-6.877271497915366
 20
-7.559618821623187
 30
0.0
 10
-6.833257667122013
 20
-7.626101162107241
 30
0.0
 10
-6.795150496367548
 20
-7.695022034097052
 30
0.0
 10
-6.763012341470707
 20
-7.765966213282729
 30
0.0
 10
-6.73690022318132
 20
-7.838520741715255
 30
0.0
 10
-6.716874335028974
 20
-7.912269682007114
 30
0.0
 10
-6.702994761895423
 20
-7.9867985705990385
 30
0.0
 10
-6.695320795467479
 20
-8.06169368879139
 30
0.0
 10
-6.693911151532686
 20
-8.136539115087647
 30
0.0
 10
-6.698826599519901
 20
-8.21092111489717
 30
0.0
 10
-6.710126539763771
 20
-8.28442449569207
 30
0.0
 10
-6.727871057146054
 20
-8.356634793913077
 30
0.0
 10
-6.752117965611513
 20
-8.427138306751553
 30
0.0
 10
-6.782928251884676
 20
-8.495518351960351
 30
0.0
 10
-6.8203604144574195
 20
-8.561361955699459
 30
0.0
 10
-7.018814584293956
 20
-8.886526528580164
 30
0.0
 10
-7.051237042500309
 20
-8.969601845939108
 30
0.0
 10
-7.052170657601077
 20
-9.058519110751998
 30
0.0
 10
-7.022905379155256
 20
-9.145033755267454
 30
0.0
 10
-6.964734905400871
 20
-9.220900435092474
 30
0.0
 10
-6.617375997818249
 20
-9.473271453932734
 30
0.0
 10
-6.527209645581673
 20
-9.50517121243842
 30
0.0
 10
-6.435881093203831
 20
-9.506272271782585
 30
0.0
 10
-6.351787326773607
 20
-9.477806758941876
 30
0.0
 10
-6.283328202915869
 20
-9.421007505108436
 30
0.0
 10
-6.035068391053803
 20
-9.131969512734614
 30
0.0
 10
-5.98396120021686
 20
-9.076056526839274
 30
0.0
 10
-5.928411677603231
 20
-9.025655435084412
 30
0.0
 10
-5.868831615216971
 20
-8.980837693834005
 30
0.0
 10
-5.805631369794147
 20
-8.941674407344271
 30
0.0
 10
-5.739219862802831
 20
-8.90823632776369
 30
0.0
 10
-5.6700098397613985
 20
-8.880594387257299
 30
0.0
 10
-5.598410703891596
 20
-8.858820214280255
 30
0.0
 10
-5.524832330175814
 20
-8.8429840367821
 30
0.0
 10
-5.449686028864435
 20
-8.833156434820127
 30
0.0
 10
-5.373382156693525
 20
-8.829408512650561
 30
0.0
 10
-5.29633250566714
 20
-8.83181172663737
 30
0.0
 10
-5.218944561985361
 20
-8.840436476821285
 30
0.0
 10
-5.141631552920237
 20
-8.855354571674022
 30
0.0
 10
-5.064803353454158
 20
-8.87663623914513
 30
0.0
 10
-4.988869838569515
 20
-8.904351707184146
 30
0.0
 10
-4.914241374995406
 20
-8.938574356859592
 30
0.0
 10
-4.845327503482584
 20
-8.983198586810593
 30
0.0
 10
-4.781208615631924
 20
-9.032427367993925
 30
0.0
 10
-4.722044074515282
 20
-9.08587524888551
 30
0.0
 10
-4.667994186725805
 20
-9.143153976950043
 30
0.0
 10
-4.6192226111462915
 20
-9.203876880174398
 30
0.0
 10
-4.575887275580609
 20
-9.26765815492675
 30
0.0
 10
-4.53814992188989
 20
-9.334109900779541
 30
0.0
 10
-4.5061718201746315
 20
-9.402845617810833
 30
0.0
 10
-4.480113287021005
 20
-9.47347933029761
 30
0.0
 10
-4.460134629022155
 20
-9.545622785704571
 30
0.0
 10
-4.446397598032249
 20
-9.618890360416456
 30
0.0
 10
-4.439062982398104
 20
-9.692894678204638
 30
0.0
 10
-4.438292052220213
 20
-9.767249239147178
 30
0.0
 10
-4.444243688816757
 20
-9.841567715413312
 30
0.0
 10
-4.457080587563192
 20
-9.91546168237656
 30
0.0
 10
-4.476962111531375
 20
-9.988545688512838
 30
0.0
 10
-4.588316337751095
 20
-10.352848163504715
 30
0.0
 10
-4.599060193511985
 20
-10.441376654476949
 30
0.0
 10
-4.577851652824239
 20
-10.527732600542395
 30
0.0
 10
-4.52799047973322
 20
-10.604251249616556
 30
0.0
 10
-4.452780262334591
 20
-10.663268029631505
 30
0.0
 10
-4.053572153382954
 20
-10.82132570130463
 30
0.0
 10
-3.9583053955628484
 20
-10.829799810273528
 30
0.0
 10
-3.8695722752753543
 20
-10.808153790427914
 30
0.0
 10
-3.7951995543316013
 20
-10.759669304732713
 30
0.0
 10
-3.743016599764262
 20
-10.687629412117387
 30
0.0
 10
-3.574437152119506
 20
-10.34593237517813
 30
0.0
 10
-3.5388405818156174
 20
-10.279066157028929
 30
0.0
 10
-3.4975704914248236
 20
-10.216433903741827
 30
0.0
 10
-3.451007965273047
 20
-10.158207235254748
 30
0.0
 10
-3.399532785075439
 20
-10.104557073523344
 30
0.0
 10
-3.343523429936379
 20
-10.055653642520994
 30
0.0
 10
-3.2833620381026742
 20
-10.011668291584733
 30
0.0
 10
-3.219427337368592
 20
-9.972772213271103
 30
0.0
 10
-3.152098860759395
 20
-9.939135360952594
 30
0.0
 10
-3.081757443911119
 20
-9.91092838598397
 30
0.0
 10
-3.0087828685389164
 20
-9.888322210320881
 30
0.0
 10
-2.933556218968709
 20
-9.871488453901252
 30
0.0
 10
-2.8564546716941046
 20
-9.86059664271619
 30
0.0
 10
-2.777860613651798
 20
-9.855819094685891
 30
0.0
 10
-2.698153577867053
 20
-9.857325763182848
 30
0.0
 10
-2.617713097365134
 20
-9.865286601579545
 30
0.0
 10
-2.536918397320081
 20
-9.879874739598854
 30
0.0
 10
-2.4590719870932465
 20
-9.905958834377108
 30
0.0
 10
-2.3847248119730557
 20
-9.937695283889454
 30
0.0
 10
-2.314127086243446
 20
-9.974750378264593
 30
0.0
 10
-2.247530634650351
 20
-10.016787929263126
 30
0.0
 10
-2.1851901358511343
 20
-10.06347411319336
 30
0.0
 10
-2.127354501518962
 20
-10.114474522201725
 30
0.0
 10
-2.0742768590105394
 20
-10.169453666031094
 30
0.0
 10
-2.026209530451573
 20
-10.228077293608392
 30
0.0
 10
-1.983403784046887
 20
-10.290011424461428
 30
0.0
 10
-1.9461114445424132
 20
-10.354919870350805
 30
0.0
 10
-1.9145850827537467
 20
-10.42246934878661
 30
0.0
 10
-1.8890767721167072
 20
-10.492324640112603
 30
0.0
 10
-1.8698388347570036
 20
-10.564151493255707
 30
0.0
 10
-1.857121236268685
 20
-10.637615229761465
 30
0.0
 10
-1.8511781579293416
 20
-10.712380088771857
 30
0.0
 10
-1.8522598140229118
 20
-10.788112360415592
 30
0.0
 10
-1.8695173010602337
 20
-11.16866227320412
 30
0.0
 10
-1.8579074784050666
 20
-11.257081367116847
 30
0.0
 10
-1.8158893925397748
 20
-11.335449932748602
 30
0.0
 10
-1.748565285685434
 20
-11.397164638244233
 30
0.0
 10
-1.6610410592055478
 20
-11.435623277112235
 30
0.0
  0
ENDSEC
  0
SECTION
  2
OBJECTS
  0
DICTIONARY
  5
C
330
0
100
AcDbDictionary
  3
ACAD_GROUP
350
D
  3
ACAD_MLINESTYLE
350
17
  0
DICTIONARY
  5
D
330
C
100
AcDbDictionary
  0
DICTIONARY
  5
1A
330
C
100
AcDbDictionary
  0
DICTIONARY
  5
17
330
C
100
AcDbDictionary
  3
STANDARD
350
18
  0
DICTIONARY
  5
19
330
C
100
AcDbDictionary
  0
ENDSEC
  0
EOF